<svg xmlns="http://www.w3.org/2000/svg" width="230" height="230" viewBox="0 0 230 230">
  <g id="Gruppe_624" data-name="Gruppe 624" transform="translate(-178.295 -319.172)">
    <circle id="Ellipse_47" data-name="Ellipse 47" cx="103.448" cy="103.448" r="103.448" transform="translate(190.437 331.997)" fill="#451c14"/>
    <ellipse id="Ellipse_48" data-name="Ellipse 48" cx="91.544" cy="91.544" rx="91.544" ry="91.544" transform="translate(178.295 493.634) rotate(-72.342)" fill="#451c14"/>
    <path id="Pfad_1583" data-name="Pfad 1583" d="M358.794,407.014A89.764,89.764,0,0,0,317.7,342.727,89.948,89.948,0,0,1,217.45,492.021a89.947,89.947,0,0,0,141.344-85.007Z" transform="translate(26.361 17.452)" fill="#351410"/>
    <path id="Pfad_1584" data-name="Pfad 1584" d="M233.216,503.321a92.006,92.006,0,0,1-35.52-61.763c-6.478-50.322,28.2-96.481,77.455-103.1.677-.092,1.354-.172,2.03-.247l2.85-10.7c-52.554,3.892-94.008,48.681-94.008,103.367A104.17,104.17,0,0,0,229.8,516.148Z" transform="translate(4.413 4.761)" fill="#56221c"/>
    <g id="Gruppe_623" data-name="Gruppe 623" transform="translate(205.156 352.871)">
      <g id="Gruppe_585" data-name="Gruppe 585" transform="translate(14.554 20.256)">
        <path id="Pfad_1585" data-name="Pfad 1585" d="M217.063,413.753c3.092-1.323,5.67-4.013,7.967-6.737l-1.98-1.6c-2.7,3.309-5.753,7.06-9.593,8.7a8.554,8.554,0,0,1-.839.3A9.306,9.306,0,0,0,217.063,413.753Z" transform="translate(-200.109 -323.875)" fill="#f9a454"/>
        <path id="Pfad_1586" data-name="Pfad 1586" d="M218.324,358.853a5.992,5.992,0,0,0-2.105,2.631,16.265,16.265,0,0,0,1.238,16.089c.676.971,1.5,1.928,2.364,2.943,1.915,2.232,4.085,4.765,5.117,8.089,2.481,8-2.742,15.052-6.938,20.722-.419.564-.833,1.123-1.233,1.676A53.584,53.584,0,0,0,207.5,432.11c-.661,3.42-.537,5.714.388,7.214,1.419,2.3,5.026,2.793,7.891,1.917a5.494,5.494,0,0,1-4.286-2.281c-.925-1.5-1.048-3.792-.387-7.213a53.556,53.556,0,0,1,9.266-21.107c.4-.553.815-1.112,1.233-1.676,4.2-5.67,9.419-12.726,6.938-20.722-1.032-3.324-3.2-5.855-5.115-8.089-.869-1.013-1.69-1.972-2.364-2.943a16.262,16.262,0,0,1-1.24-16.089,6.392,6.392,0,0,1,1.914-2.49A4.927,4.927,0,0,0,218.324,358.853Z" transform="translate(-203.27 -350.701)" fill="#f9a454"/>
        <path id="Pfad_1587" data-name="Pfad 1587" d="M223.476,356.334a23.421,23.421,0,0,1,9.913,13.444c1.939,6.5,1.559,13.294,1.221,19.285l-.82,14.631,3.571.24.856-15.236c.336-5.99.718-12.782-1.222-19.285a23.416,23.416,0,0,0-9.912-13.442A17.46,17.46,0,0,0,222.477,354a13.311,13.311,0,0,0-6.734-.105,14.716,14.716,0,0,1,3.128.47A17.475,17.475,0,0,1,223.476,356.334Z" transform="translate(-198.325 -353.514)" fill="#f9a454"/>
        <path id="Pfad_1588" data-name="Pfad 1588" d="M214.546,360.468a23.5,23.5,0,0,0,1.816,23.557,44.664,44.664,0,0,0,2.826,3.541c1.584,1.846,3.078,3.59,3.653,5.442,1.381,4.449-2.294,9.414-5.848,14.213-.43.583-.858,1.161-1.273,1.731a60.9,60.9,0,0,0-10.517,23.99c-.649,3.359-1.216,8.308,1.361,12.487,2.493,4.044,7.012,5.848,11.5,5.876a15.749,15.749,0,0,0,2.944-.911c5.5-2.349,9.313-7.034,12.38-10.8l-3.81-3.081c-2.3,2.724-4.875,5.414-7.967,6.737a9.306,9.306,0,0,1-4.445.663c-2.866.877-6.473.382-7.891-1.917-.925-1.5-1.049-3.794-.388-7.214a53.584,53.584,0,0,1,9.268-21.106c.4-.553.814-1.112,1.233-1.676,4.2-5.67,9.419-12.727,6.938-20.722-1.032-3.324-3.2-5.857-5.117-8.089-.869-1.015-1.689-1.972-2.364-2.943a16.265,16.265,0,0,1-1.238-16.089,5.992,5.992,0,0,1,2.105-2.631,4.927,4.927,0,0,1,3.414-.223c.064-.044.127-.1.192-.141A5.1,5.1,0,0,1,227,360.99c4.046,1.059,7.67,5.106,9.219,10.3,1.571,5.266,1.243,11.114.925,16.77l-.855,15.236,3.837.259.82-14.631c.338-5.99.718-12.782-1.221-19.285a23.421,23.421,0,0,0-9.913-13.444,17.475,17.475,0,0,0-4.6-1.967,14.716,14.716,0,0,0-3.128-.47,10.3,10.3,0,0,0-2.5.993A12.762,12.762,0,0,0,214.546,360.468Z" transform="translate(-204.656 -353.375)" fill="#ffca93"/>
      </g>
      <g id="Gruppe_586" data-name="Gruppe 586" transform="translate(34.255 58.835)">
        <path id="Pfad_1589" data-name="Pfad 1589" d="M230.85,381.271c-2.955,1.6-5.271,4.523-7.3,7.45l2.121,1.409c2.377-3.546,5.07-7.566,8.74-9.558a8.583,8.583,0,0,1,.806-.377A9.287,9.287,0,0,0,230.85,381.271Z" transform="translate(-212.548 -372.857)" fill="#f9a454"/>
        <path id="Pfad_1590" data-name="Pfad 1590" d="M239.351,462.716A5.986,5.986,0,0,0,241.2,459.9a16.265,16.265,0,0,0-2.735-15.9c-.764-.9-1.67-1.78-2.63-2.708-2.115-2.046-4.511-4.363-5.849-7.577-3.218-7.73,1.324-15.243,4.972-21.279q.547-.9,1.071-1.785a53.615,53.615,0,0,0,7.255-21.88c.338-3.467,0-5.738-1.059-7.145-1.628-2.157-5.266-2.313-8.038-1.172a5.5,5.5,0,0,1,4.481,1.871c1.06,1.408,1.4,3.678,1.059,7.145a53.56,53.56,0,0,1-7.255,21.88c-.347.588-.707,1.183-1.071,1.785-3.648,6.036-8.188,13.55-4.972,21.279,1.339,3.214,3.736,5.532,5.851,7.577.96.928,1.866,1.805,2.628,2.709a16.258,16.258,0,0,1,2.735,15.9,6.375,6.375,0,0,1-1.672,2.66A4.93,4.93,0,0,0,239.351,462.716Z" transform="translate(-211.526 -373.112)" fill="#f9a454"/>
        <path id="Pfad_1591" data-name="Pfad 1591" d="M234.816,453.326a23.405,23.405,0,0,1-11.125-12.459c-2.539-6.292-2.793-13.09-3.018-19.087l-.548-14.642-3.579.093.572,15.25c.223,6,.479,12.793,3.016,19.085a23.412,23.412,0,0,0,11.125,12.459,17.447,17.447,0,0,0,4.77,1.53,13.316,13.316,0,0,0,6.713-.525,14.8,14.8,0,0,1-3.156-.174A17.484,17.484,0,0,1,234.816,453.326Z" transform="translate(-216.546 -357.471)" fill="#f9a454"/>
        <path id="Pfad_1592" data-name="Pfad 1592" d="M248.31,465.7a23.5,23.5,0,0,0-4.008-23.286,44.157,44.157,0,0,0-3.145-3.26c-1.749-1.69-3.4-3.287-4.143-5.078-1.791-4.3,1.4-9.587,4.493-14.7.375-.622.746-1.236,1.106-1.843a60.9,60.9,0,0,0,8.229-24.867c.333-3.406.435-8.386-2.52-12.306-2.861-3.793-7.527-5.167-12-4.776a15.848,15.848,0,0,0-2.847,1.183c-5.252,2.852-8.616,7.871-11.318,11.906l4.08,2.712c2.033-2.927,4.349-5.846,7.3-7.45a9.287,9.287,0,0,1,4.363-1.076c2.771-1.141,6.41-.985,8.038,1.172,1.06,1.408,1.4,3.678,1.059,7.145a53.615,53.615,0,0,1-7.255,21.88q-.523.881-1.071,1.785c-3.648,6.036-8.19,13.549-4.972,21.279,1.339,3.214,3.734,5.532,5.849,7.577.96.928,1.866,1.8,2.63,2.708a16.265,16.265,0,0,1,2.735,15.9,5.986,5.986,0,0,1-1.851,2.817,4.93,4.93,0,0,1-3.378.542c-.06.049-.118.115-.178.157a5.082,5.082,0,0,1-3.646.515c-4.129-.676-8.115-4.366-10.141-9.392-2.057-5.1-2.275-10.95-2.489-16.609l-.572-15.25-3.843.1.548,14.642c.225,6,.479,12.795,3.018,19.087a23.405,23.405,0,0,0,11.125,12.459,17.484,17.484,0,0,0,4.77,1.53,14.8,14.8,0,0,0,3.156.174,10.3,10.3,0,0,0,2.4-1.222A12.763,12.763,0,0,0,248.31,465.7Z" transform="translate(-215.245 -375.524)" fill="#ffca93"/>
      </g>
      <g id="Gruppe_587" data-name="Gruppe 587" transform="translate(97.964 64.883)">
        <path id="Pfad_1593" data-name="Pfad 1593" d="M289.06,383.463c-3.362.09-6.749,1.64-9.888,3.326l1.251,2.218c3.725-2.082,7.95-4.443,12.124-4.555a8.1,8.1,0,0,1,.891.031A9.3,9.3,0,0,0,289.06,383.463Z" transform="translate(-241.512 -377.041)" fill="#f9a454"/>
        <path id="Pfad_1594" data-name="Pfad 1594" d="M268.608,459.765a5.987,5.987,0,0,0,2.927-1.67,16.265,16.265,0,0,0,4.776-15.414c-.27-1.152-.68-2.344-1.114-3.606-.957-2.782-2.042-5.935-1.777-9.406.641-8.347,8.1-12.983,14.086-16.708q.9-.556,1.763-1.1a53.571,53.571,0,0,0,16.393-16.209c1.874-2.936,2.6-5.112,2.3-6.848-.473-2.66-3.643-4.449-6.63-4.69a5.5,5.5,0,0,1,3.144,3.7c.306,1.736-.424,3.912-2.3,6.848a53.585,53.585,0,0,1-16.393,16.207c-.577.366-1.167.734-1.764,1.1-5.989,3.725-13.445,8.36-14.085,16.708-.266,3.47.82,6.624,1.775,9.406.435,1.262.845,2.454,1.115,3.606a16.262,16.262,0,0,1-4.778,15.414,6.362,6.362,0,0,1-2.7,1.61A4.922,4.922,0,0,0,268.608,459.765Z" transform="translate(-249.404 -376.668)" fill="#f9a454"/>
        <path id="Pfad_1595" data-name="Pfad 1595" d="M263.052,451a23.407,23.407,0,0,1-4.262-16.149c.592-6.76,3.449-12.933,5.97-18.378l6.154-13.3-3.232-1.541-6.408,13.851c-2.522,5.445-5.378,11.618-5.97,18.378a23.409,23.409,0,0,0,4.262,16.149,17.5,17.5,0,0,0,3.555,3.527,13.329,13.329,0,0,0,6.221,2.578,14.864,14.864,0,0,1-2.735-1.588A17.467,17.467,0,0,1,263.052,451Z" transform="translate(-255.201 -366.664)" fill="#f9a454"/>
        <path id="Pfad_1596" data-name="Pfad 1596" d="M277.546,465.36a23.5,23.5,0,0,0,6.993-22.57,44.287,44.287,0,0,0-1.324-4.333c-.79-2.3-1.538-4.471-1.389-6.405.355-4.646,5.6-7.906,10.672-11.059.616-.383,1.225-.764,1.821-1.141a60.879,60.879,0,0,0,18.616-18.429c1.843-2.883,4.193-7.276,3.337-12.108-.828-4.679-4.363-8.02-8.523-9.7a15.821,15.821,0,0,0-3.073-.239c-5.975.16-11.25,3.108-15.488,5.477l2.407,4.267c3.139-1.686,6.526-3.236,9.888-3.326a9.3,9.3,0,0,1,4.377,1.021c2.987.24,6.157,2.03,6.63,4.69.306,1.736-.424,3.912-2.3,6.848A53.571,53.571,0,0,1,293.8,414.564q-.865.547-1.763,1.1c-5.99,3.725-13.445,8.361-14.086,16.708-.266,3.471.82,6.624,1.777,9.406.434,1.262.844,2.454,1.114,3.606a16.265,16.265,0,0,1-4.776,15.414,5.987,5.987,0,0,1-2.927,1.67,4.922,4.922,0,0,1-3.257-1.049c-.075.017-.157.05-.231.06a5.088,5.088,0,0,1-3.483-1.194c-3.372-2.476-5.249-7.573-4.776-12.971.479-5.477,2.94-10.792,5.318-15.932l6.408-13.849-3.471-1.654-6.154,13.3c-2.522,5.445-5.378,11.618-5.97,18.378a23.407,23.407,0,0,0,4.262,16.149,17.467,17.467,0,0,0,3.555,3.527,14.864,14.864,0,0,0,2.735,1.588,10.288,10.288,0,0,0,2.691,0A12.754,12.754,0,0,0,277.546,465.36Z" transform="translate(-253.934 -379.374)" fill="#ffca93"/>
      </g>
      <g id="Gruppe_588" data-name="Gruppe 588" transform="translate(71.554 84.871)">
        <path id="Pfad_1597" data-name="Pfad 1597" d="M239.467,427.569c-.622,19.99,22.261,42.259,22.261,42.259s24.223-20.8,24.843-40.794-9.419-36.524-22.427-36.93S240.087,407.577,239.467,427.569Z" transform="translate(-239.454 -392.096)" fill="#80b32e"/>
        <path id="Pfad_1598" data-name="Pfad 1598" d="M261.727,469.828l2.416-77.724c-13.007-.4-24.056,15.474-24.677,35.465S261.727,469.828,261.727,469.828Z" transform="translate(-239.454 -392.096)" fill="#668a21"/>
      </g>
      <g id="Gruppe_589" data-name="Gruppe 589" transform="translate(125.872 38.856)">
        <path id="Pfad_1599" data-name="Pfad 1599" d="M293.559,368.975c-3.175,1.108-5.932,3.614-8.41,6.174l1.865,1.734c2.917-3.117,6.223-6.65,10.168-8.025a8.7,8.7,0,0,1,.856-.242A9.3,9.3,0,0,0,293.559,368.975Z" transform="translate(-266.006 -361.183)" fill="#f9a454"/>
        <path id="Pfad_1600" data-name="Pfad 1600" d="M291.263,450.68a5.976,5.976,0,0,0,2.28-2.481,16.263,16.263,0,0,0-.134-16.137c-.608-1.015-1.361-2.025-2.159-3.1-1.756-2.36-3.749-5.034-4.55-8.421-1.928-8.148,3.766-14.829,8.339-20.2q.686-.8,1.345-1.588a53.574,53.574,0,0,0,10.69-20.424c.894-3.367.929-5.662.108-7.222-1.258-2.391-4.823-3.131-7.742-2.454a5.493,5.493,0,0,1,4.119,2.57c.82,1.56.787,3.855-.107,7.222a53.579,53.579,0,0,1-10.691,20.424c-.437.523-.888,1.053-1.345,1.588-4.573,5.368-10.267,12.052-8.339,20.2.8,3.387,2.793,6.063,4.55,8.421.8,1.071,1.551,2.082,2.159,3.1a16.263,16.263,0,0,1,.135,16.136,6.386,6.386,0,0,1-2.08,2.355A4.922,4.922,0,0,0,291.263,450.68Z" transform="translate(-267.409 -361.225)" fill="#f9a454"/>
        <path id="Pfad_1601" data-name="Pfad 1601" d="M286.379,441.332a23.415,23.415,0,0,1-8.969-14.089c-1.489-6.62-.646-13.37.1-19.324l1.821-14.539-3.547-.485-1.895,15.142c-.748,5.954-1.592,12.7-.1,19.323a23.418,23.418,0,0,0,8.969,14.091,17.474,17.474,0,0,0,4.46,2.278,13.309,13.309,0,0,0,6.712.566,14.835,14.835,0,0,1-3.089-.682A17.479,17.479,0,0,1,286.379,441.332Z" transform="translate(-272.964 -347.248)" fill="#f9a454"/>
        <path id="Pfad_1602" data-name="Pfad 1602" d="M300.58,454.706a23.5,23.5,0,0,0-.2-23.626,44.5,44.5,0,0,0-2.578-3.725c-1.453-1.951-2.825-3.793-3.271-5.681-1.075-4.533,2.932-9.233,6.806-13.78.47-.551.936-1.1,1.389-1.639a60.9,60.9,0,0,0,12.133-23.216c.878-3.307,1.782-8.206-.5-12.55-2.21-4.206-6.594-6.314-11.067-6.65a15.822,15.822,0,0,0-3,.709c-5.643,1.967-9.774,6.379-13.09,9.924l3.59,3.334c2.478-2.561,5.235-5.067,8.41-6.174a9.3,9.3,0,0,1,4.479-.358c2.919-.677,6.484.063,7.742,2.454.82,1.56.786,3.855-.108,7.222a53.574,53.574,0,0,1-10.69,20.424q-.657.785-1.345,1.588c-4.573,5.368-10.267,12.05-8.339,20.2.8,3.387,2.793,6.061,4.55,8.421.8,1.072,1.551,2.082,2.159,3.1a16.263,16.263,0,0,1,.134,16.137,5.976,5.976,0,0,1-2.28,2.481,4.922,4.922,0,0,1-3.422-.009c-.068.039-.134.094-.2.127a5.1,5.1,0,0,1-3.683-.08c-3.964-1.332-7.3-5.618-8.492-10.9-1.208-5.364-.479-11.173.223-16.795l1.9-15.142-3.81-.52-1.821,14.539c-.746,5.954-1.59,12.7-.1,19.324a23.414,23.414,0,0,0,8.969,14.089,17.48,17.48,0,0,0,4.46,2.28,14.835,14.835,0,0,0,3.089.682,10.339,10.339,0,0,0,2.562-.819A12.764,12.764,0,0,0,300.58,454.706Z" transform="translate(-271.647 -363.84)" fill="#ffca93"/>
      </g>
      <g id="Gruppe_598" data-name="Gruppe 598" transform="translate(24.433 88.759)">
        <g id="Gruppe_591" data-name="Gruppe 591">
          <g id="Gruppe_590" data-name="Gruppe 590">
            <path id="Pfad_1603" data-name="Pfad 1603" d="M227.624,419.644a83.628,83.628,0,0,0-1-12.679c-1.029-5.876-5.686-12.394-5.686-12.394l-1.273.643,1.027,4.349a31.688,31.688,0,0,0-2.584-3.5l-1.24.719-.387-.862-1.662,1.7-.545-1.037-.875.72a34.946,34.946,0,0,0,2.415,9.255s-2.077-2.388-3.317-3.722a7.385,7.385,0,0,0-1.557,1.147,97.728,97.728,0,0,0,6.751,11.475c3.618,5.1,5.147,6.157,5.147,6.157s.98-.237,2.437-.763A10.781,10.781,0,0,0,227.624,419.644Z" transform="translate(-210.944 -394.571)" fill="#f98030"/>
            <path id="Pfad_1604" data-name="Pfad 1604" d="M217.086,394.79l-.589.3,1.027,4.349s4.068,7.125,5.067,11.838C222.591,411.275,221.323,401.37,217.086,394.79Z" transform="translate(-207.773 -394.446)" fill="#ca9677" style="mix-blend-mode: multiply;isolation: isolate"/>
            <path id="Pfad_1605" data-name="Pfad 1605" d="M215.377,395.733l-.66.383s4.7,9.185,5.822,14.372A51.485,51.485,0,0,0,215.377,395.733Z" transform="translate(-208.789 -393.907)" fill="#ca9677" style="mix-blend-mode: multiply;isolation: isolate"/>
            <path id="Pfad_1606" data-name="Pfad 1606" d="M213.961,396.151l-.548.561a107.74,107.74,0,0,1,6.325,12.627S217.168,401.155,213.961,396.151Z" transform="translate(-209.534 -393.669)" fill="#ca9677" style="mix-blend-mode: multiply;isolation: isolate"/>
            <path id="Pfad_1607" data-name="Pfad 1607" d="M212.754,396.168s2.033,9.777,7.283,16.157c0,0-6.012-3.466-7.529-15.94Z" transform="translate(-210.05 -393.659)" fill="#ca9677" style="mix-blend-mode: multiply;isolation: isolate"/>
            <path id="Pfad_1608" data-name="Pfad 1608" d="M225.278,417.581a10.781,10.781,0,0,0,2.346-1.2s.008-2.583-.222-5.935c.075,1.307.16,4.671-.952,5.725-1.37,1.291-7.118-1.753-15.035-15.88-.105.088-.385.328-.471.424a97.728,97.728,0,0,0,6.751,11.475c3.618,5.1,5.147,6.157,5.147,6.157S223.822,418.107,225.278,417.581Z" transform="translate(-210.944 -391.306)" fill="#f66c03"/>
            <path id="Pfad_1609" data-name="Pfad 1609" d="M213.065,396.483s3.613,11.191,7.714,16.121,5.3,4.347,5.235.679a43.316,43.316,0,0,0-2.831-13.411s1.863,8.077,1.844,12.806a44.785,44.785,0,0,0-5.973-13.822s4.581,11.233,4.451,15.5a24.646,24.646,0,0,1-3.087-7.032,33.507,33.507,0,0,0,1.093,4.8S215.64,404.594,213.065,396.483Z" transform="translate(-209.733 -393.479)" fill="#c76145" opacity="0.7" style="mix-blend-mode: screen;isolation: isolate"/>
          </g>
        </g>
        <path id="Pfad_1610" data-name="Pfad 1610" d="M246.6,406.843a23.225,23.225,0,0,1-1.1,5.745s.716-1.587-1.794-4.58-6.11.159-6.991,1c0,0,4.214-1.023,5.624.875a6.125,6.125,0,0,1,.6,6.954,9.458,9.458,0,0,0-2.437-5.584c-2.324-2.474-6,.261-6,.261s4.474.3,5.412,1.789,2.633,5.7-2.192,7.412c0,0,1.532-5.246-2.6-6.963,0,0,2.79,5.309-.457,7.459,0,0,.625-6.85-2.7-9.142,0,0,1.613,5.758-1.114,6.833s-4.182-2.036-4.182-2.036,2.649-.54,1.624-4.353c.088.365-1.629,4.787-4.946,2.724s-.478,8.239,6.368,11.071,14.047-.424,16.843-3.456S251.178,410.624,246.6,406.843Z" transform="translate(-204.657 -387.619)" fill="#e26107"/>
        <g id="Gruppe_596" data-name="Gruppe 596" transform="translate(25.781 24.265)">
          <g id="Gruppe_592" data-name="Gruppe 592" transform="translate(5.411 8.294)" style="mix-blend-mode: multiply;isolation: isolate">
            <path id="Pfad_1611" data-name="Pfad 1611" d="M232.767,415.295s-.035.064-.086.177l-.209.456-.135.3c-.044.107-.107.212-.152.327s-.107.229-.17.344-.116.234-.176.35-.119.236-.185.347l-.182.336c-.066.105-.119.214-.178.313l-.16.284c-.1.178-.185.33-.245.438l-.09.177.176-.093a2.625,2.625,0,0,0,.423-.3,2.324,2.324,0,0,0,.253-.236,2.906,2.906,0,0,0,.256-.291,3.4,3.4,0,0,0,.239-.338c.075-.119.143-.245.214-.371s.121-.259.173-.391.09-.266.13-.393a3.646,3.646,0,0,0,.085-.377,3.467,3.467,0,0,0,.046-.861C232.779,415.366,232.767,415.295,232.767,415.295Z" transform="translate(-230.798 -415.295)" fill="#ca9677"/>
          </g>
          <g id="Gruppe_593" data-name="Gruppe 593" transform="translate(0 8.889)" style="mix-blend-mode: multiply;isolation: isolate">
            <path id="Pfad_1612" data-name="Pfad 1612" d="M231.8,415.674s-.286.25-.683.627l-.324.3c-.11.11-.237.215-.358.333s-.253.232-.385.349-.264.239-.4.355-.269.239-.405.35l-.4.335-.375.314-.333.273a1.221,1.221,0,0,1-.542.264.54.54,0,0,1-.179,0l-.063-.019a.507.507,0,0,0,.229.143,1.1,1.1,0,0,0,.721-.082,3.549,3.549,0,0,0,.418-.206c.141-.077.289-.162.435-.261a5.29,5.29,0,0,0,.443-.313c.146-.115.291-.234.434-.357s.275-.256.407-.386.248-.27.363-.4.217-.27.313-.4.178-.258.255-.376a5.506,5.506,0,0,0,.325-.6C231.766,415.762,231.8,415.674,231.8,415.674Z" transform="translate(-227.354 -415.674)" fill="#ca9677"/>
          </g>
          <g id="Gruppe_594" data-name="Gruppe 594" transform="translate(11.404 4.657)" style="mix-blend-mode: multiply;isolation: isolate">
            <path id="Pfad_1613" data-name="Pfad 1613" d="M235.54,412.98s-.053.435-.077,1.076c0,.162-.016.335-.019.517s-.02.374-.02.572-.011.4-.03.606-.024.413-.039.621-.031.415-.064.616-.055.4-.086.589-.072.374-.112.547-.082.338-.129.487l-.063.217-.068.192c-.041.123-.077.231-.115.316l-.105.281.207-.218a2.311,2.311,0,0,0,.218-.27l.124-.176.118-.206a3.557,3.557,0,0,0,.237-.484,4.591,4.591,0,0,0,.2-.566,4.7,4.7,0,0,0,.14-.625c.041-.214.058-.434.082-.652s.024-.438.024-.654-.017-.426-.025-.63-.038-.4-.061-.583-.052-.358-.082-.518A8.61,8.61,0,0,0,235.54,412.98Z" transform="translate(-234.613 -412.98)" fill="#ca9677"/>
          </g>
          <g id="Gruppe_595" data-name="Gruppe 595" transform="translate(15.053)" style="mix-blend-mode: multiply;isolation: isolate">
            <path id="Pfad_1614" data-name="Pfad 1614" d="M237.005,410.016s-.05.633-.063,1.579c0,.236-.009.492-.006.762s0,.555.006.848l.017.908c.009.31.02.622.03.936s.028.627.042.936.033.611.052.9.038.578.061.848.042.523.068.759c.044.47.094.862.13,1.137l.066.43.055-.432c.03-.276.069-.669.094-1.142.016-.237.027-.493.033-.764s.017-.556.017-.852,0-.6-.006-.911l-.028-.94-.05-.938c-.025-.31-.049-.614-.072-.908s-.058-.578-.085-.848-.064-.523-.1-.757C237.145,410.637,237.005,410.016,237.005,410.016Z" transform="translate(-236.936 -410.016)" fill="#ca9677"/>
          </g>
        </g>
        <path id="Pfad_1615" data-name="Pfad 1615" d="M239.235,449.33c11.679,6.223,22.52-5.348,22.52-5.348a16.771,16.771,0,0,0,9.895-11.169,34.593,34.593,0,0,0,.4-15.725c-.432.057-.231-.985-.231-.985s-.148-9.491-8.273-18.911c-1.758-2.042-3.158-1.72-6.083-1.72l-9.631,10.433s1.236,2.248,1.043,2.418c-.413.366-1.09,1.324-1.265,3.744-.013.179-.02.365-.028.559a40.628,40.628,0,0,0,1.452,10.584,11,11,0,0,0-2.069,3.262c-3.244.588-7.02,3.612-7.02,3.612-3.441-2.017-7.485.137-7.485.137-1.1-4.8-9.829-12.707-9.829-12.707s-4.259-2.65-4.187,4.878,6.451,15.084,6.451,15.084C228.6,446.558,239.235,449.33,239.235,449.33Z" transform="translate(-206.661 -394.067)" fill="#f66c03"/>
        <path id="Pfad_1616" data-name="Pfad 1616" d="M237.4,413.148c.058-.014.116-.024.173-.038,9.984-2.17,14.339-10.884,15.964-15.434-6.493-8.35-13.84,2.608-16.05,6.078a8.629,8.629,0,0,0-1.15,7.378Z" transform="translate(-196.651 -394.551)" fill="#f5e1cd"/>
        <path id="Pfad_1617" data-name="Pfad 1617" d="M254.479,431.084s-6.424-4.141-8.674-8.449A15.154,15.154,0,0,0,236.6,415.2s6.413,3.678,7.857,8.441,5.9,10.058,5.9,10.058.622-.586,1.117-1.169A7.122,7.122,0,0,0,254.479,431.084Z" transform="translate(-196.294 -382.792)" fill="#f5e1cd"/>
        <path id="Pfad_1618" data-name="Pfad 1618" d="M261.132,413.679a11.48,11.48,0,0,1-6.181.669c-2.988-.687-10.344-1.888-16.356.676,0,0,6.647-4.749,10.639-4.385s7.282.4,11.078-2.042A21.548,21.548,0,0,1,261.132,413.679Z" transform="translate(-195.153 -386.561)" fill="#f5e1cd"/>
        <path id="Pfad_1619" data-name="Pfad 1619" d="M233.326,417.578s2.374,5.359,1.937,8.757-1.516,6.273-1.362,7.731a23.127,23.127,0,0,0,.914,3.731,7.959,7.959,0,0,1-2.2-.972,20.359,20.359,0,0,1-2.3-.806s-.679-4.424.088-5.6a15.185,15.185,0,0,0,2.737-5.932,26.5,26.5,0,0,0-.247-7.136Z" transform="translate(-200.041 -381.563)" fill="#f5e1cd"/>
        <path id="Pfad_1620" data-name="Pfad 1620" d="M230.288,417.583a9.606,9.606,0,0,1-1.485,5.436,7.81,7.81,0,0,1-5.546,2.994l-.534-1.174-.473-.6a6.333,6.333,0,0,0,5.117-.944C229.61,421.561,230.288,417.583,230.288,417.583Z" transform="translate(-204.487 -381.43)" fill="#f5e1cd"/>
        <path id="Pfad_1621" data-name="Pfad 1621" d="M248.14,427.319c3.95,3.175,5.87,1.068,7.946-2.621s2.124-9.585,1.508-10.413-4.405-.635-6.856-1.288-9.016-.063-9.7,2.665S246.259,425.809,248.14,427.319Z" transform="translate(-193.792 -384.188)" fill="#f98030"/>
        <path id="Pfad_1622" data-name="Pfad 1622" d="M252.511,416.341c-.405,2.173-.781,7.305-3.615,8.02-3.045.768-.7-3.532-.932-4.812-.361-2.016-2.778-3.224.518-4.119C249.738,415.089,252.627,414.206,252.511,416.341Z" transform="translate(-190.484 -382.929)" fill="#f3d9b8"/>
        <path id="Pfad_1623" data-name="Pfad 1623" d="M233.934,434.449c.754,2.291,7.323,2.275,9.81,1.427s5.8-3.312,4.063-7.381-4.727-9.708-6.214-10.319-5.437,2.757-5.945,5.136S233.255,432.381,233.934,434.449Z" transform="translate(-197.898 -381.133)" fill="#f98030"/>
        <path id="Pfad_1624" data-name="Pfad 1624" d="M226.646,428.84c2.682,2.614,4.6,2.511,5.013,1.634s.652-2.859,1.456-3.7,1.69-4.5.539-6.218-5.222,2.168-6.25,2.932S223.526,425.8,226.646,428.84Z" transform="translate(-202.787 -379.98)" fill="#f98030"/>
        <path id="Pfad_1625" data-name="Pfad 1625" d="M241.881,422.745a10.052,10.052,0,0,1,2.972,5.694c.027,2.553-2.79,2.939-4.716,3.156-2.463.28-6.308.063-5.073-3.618.459-1.37,1.566-2.471,2.1-3.819.308-.787.358-1.706,1.1-2.209C239.442,421.152,240.746,421.679,241.881,422.745Z" transform="translate(-197.306 -379.156)" fill="#f3d9b8"/>
        <g id="Gruppe_597" data-name="Gruppe 597" transform="translate(24.567 43.658)">
          <path id="Pfad_1626" data-name="Pfad 1626" d="M229.628,423.2l-.151.239C229.526,423.356,229.574,423.276,229.628,423.2Z" transform="translate(-224.928 -421.88)" fill="#f3d9b8"/>
          <path id="Pfad_1627" data-name="Pfad 1627" d="M227.695,423.169c1.742-1.153,4.616-1.321,3.186,1.145l.25-.4c-.892,1.519-1.062,3.774-3.144,2.429C226.226,425.209,226.11,424.219,227.695,423.169Z" transform="translate(-226.581 -422.359)" fill="#f3d9b8"/>
        </g>
        <path id="Pfad_1628" data-name="Pfad 1628" d="M222.037,414.119c.258.96-.058,2.112.145,3.117a11.377,11.377,0,0,0,1.046,2.683c.451.947,1.119,2.99,2.349,3.273.958.222.858-.236,1.584-.848.292-.245,1.343-1.137,1.733-1.086,1.015.138.874.809.346,1.549a11.423,11.423,0,0,1-2.3,2.214c-1.862,1.207-3.51,1.049-4.548-1.117-1.668-3.48-3.654-6.078-1.687-9.814C221.305,412.946,221.645,412.658,222.037,414.119Z" transform="translate(-205.838 -383.975)" fill="#f98030"/>
        <path id="Pfad_1629" data-name="Pfad 1629" d="M241.317,409.59a57.659,57.659,0,0,0,6.611-5.648c.77-.83,1.414-3.034,2.424-3.442,2.278-.921,4.058,5.836,4.737,7.463.993,2.379,1.687,5.246-1.409,5.761-1.852.31-3.782-.162-5.67.149-1.35.223-2.817.951-4.2.751C241.785,414.332,239.784,411.023,241.317,409.59Z" transform="translate(-193.908 -391.234)" fill="#f98030"/>
        <path id="Pfad_1630" data-name="Pfad 1630" d="M252.307,407.259a2.7,2.7,0,0,1,.124,1.945,1.934,1.934,0,0,1-1.582.985,8.886,8.886,0,0,1-1.942-.134,10.7,10.7,0,0,0-4.616.5,1.3,1.3,0,0,1-1.057.064.9.9,0,0,1-.38-.694,2.422,2.422,0,0,1,.812-1.924,11.826,11.826,0,0,1,1.745-1.269,11.93,11.93,0,0,0,2.328-2.082c.658-.765,1.991-2.459,3.12-1.458C251.651,403.894,251.99,406.291,252.307,407.259Z" transform="translate(-192.728 -389.822)" fill="#f3d9b8"/>
      </g>
      <g id="Gruppe_607" data-name="Gruppe 607" transform="translate(45.882)">
        <g id="Gruppe_600" data-name="Gruppe 600" transform="translate(36.725 42.888)">
          <g id="Gruppe_599" data-name="Gruppe 599">
            <path id="Pfad_1631" data-name="Pfad 1631" d="M255.921,367.92a83.692,83.692,0,0,0-6.484,10.943c-2.54,5.4-2.484,13.408-2.484,13.408l1.409.207,1.664-4.148a31.875,31.875,0,0,0,.1,4.35l1.428.126-.181.927,2.336-.43-.151,1.161,1.13-.083a34.993,34.993,0,0,0,3.354-8.958s.322,3.148.569,4.952a7.349,7.349,0,0,0,1.934-.041,97.636,97.636,0,0,0,1.082-13.269c-.022-6.251-.663-8-.663-8s-.938-.371-2.432-.778A10.771,10.771,0,0,0,255.921,367.92Z" transform="translate(-246.953 -367.92)" fill="#f98030"/>
            <path id="Pfad_1632" data-name="Pfad 1632" d="M247.434,389.542l.654.1,1.664-4.148s.776-8.168,2.671-12.6C252.422,372.893,247.758,381.722,247.434,389.542Z" transform="translate(-246.678 -365.08)" fill="#ca9677" style="mix-blend-mode: multiply;isolation: isolate"/>
            <path id="Pfad_1633" data-name="Pfad 1633" d="M249.4,389.184l.76.066s1.447-10.214,3.511-15.1A51.529,51.529,0,0,0,249.4,389.184Z" transform="translate(-245.558 -364.365)" fill="#ca9677" style="mix-blend-mode: multiply;isolation: isolate"/>
            <path id="Pfad_1634" data-name="Pfad 1634" d="M250.761,389.3l.771-.143a107.824,107.824,0,0,1,2.1-13.965S251.02,383.358,250.761,389.3Z" transform="translate(-244.778 -363.77)" fill="#ca9677" style="mix-blend-mode: multiply;isolation: isolate"/>
            <path id="Pfad_1635" data-name="Pfad 1635" d="M251.668,391.111s3.965-9.164,3.345-17.4c0,0,2.921,6.294-3.02,17.368Z" transform="translate(-244.26 -364.615)" fill="#ca9677" style="mix-blend-mode: multiply;isolation: isolate"/>
            <path id="Pfad_1636" data-name="Pfad 1636" d="M256.447,368.288a10.771,10.771,0,0,0-2.61-.368s-1.494,2.108-3.236,4.982c.69-1.112,2.559-3.912,4.074-4.134,1.865-.267,4.811,5.53,3.155,21.64.137-.011.5-.047.63-.075a97.641,97.641,0,0,0,1.082-13.269c-.022-6.251-.663-8-.663-8S257.941,368.695,256.447,368.288Z" transform="translate(-244.87 -367.92)" fill="#f66c03"/>
            <path id="Pfad_1637" data-name="Pfad 1637" d="M253.821,392.689s3.488-11.23,2.972-17.623-1.832-6.6-3.89-3.568a43.35,43.35,0,0,0-5.406,12.6s3.126-7.678,5.863-11.533a44.828,44.828,0,0,0-3.071,14.741s2.721-11.822,5.285-15.239a24.693,24.693,0,0,1-1.522,7.529,33.626,33.626,0,0,0,1.868-4.556S256.385,384.573,253.821,392.689Z" transform="translate(-246.642 -366.959)" fill="#c76145" opacity="0.7" style="mix-blend-mode: screen;isolation: isolate"/>
          </g>
        </g>
        <path id="Pfad_1638" data-name="Pfad 1638" d="M237.451,366.54a23.192,23.192,0,0,1,4.209-4.063s-1.5.884-1.169,4.778,5.089,3.387,6.294,3.2c0,0-4.033-1.59-4.094-3.953a6.127,6.127,0,0,1,3.514-6.028,9.451,9.451,0,0,0-1.221,5.969c.476,3.359,5.057,3.24,5.057,3.24s-3.489-2.817-3.4-4.578,1.126-6.176,6.06-4.8c0,0-4.272,3.408-1.879,7.192,0,0,.775-5.948,4.668-5.837,0,0-4.454,5.241-3.054,9.031,0,0,2-5.637,4.844-4.946s2.248,4.072,2.248,4.072-2.476-1.083-3.833,2.625c.137-.349,4.088-2.977,5.612.619s5.133-6.462,1.166-12.719-11.731-7.739-15.763-6.869S235.886,360.813,237.451,366.54Z" transform="translate(-215.786 -333.411)" fill="#e26107"/>
        <g id="Gruppe_605" data-name="Gruppe 605" transform="translate(25.418 21.154)">
          <g id="Gruppe_601" data-name="Gruppe 601" transform="translate(11.106 4.077)" style="mix-blend-mode: multiply;isolation: isolate">
            <path id="Pfad_1639" data-name="Pfad 1639" d="M246.825,358.73s.066-.033.173-.094l.434-.253.283-.165c.1-.063.209-.112.313-.179s.218-.126.336-.184.229-.124.346-.185.233-.124.35-.178l.342-.168c.115-.05.222-.107.325-.156l.3-.14c.185-.086.342-.163.452-.218l.176-.091-.2-.027a2.721,2.721,0,0,0-.518,0,2.609,2.609,0,0,0-.344.047,3.012,3.012,0,0,0-.376.091,3.2,3.2,0,0,0-.39.138c-.13.053-.259.118-.388.181s-.25.141-.366.22-.226.165-.333.245a3.332,3.332,0,0,0-.286.261,2.466,2.466,0,0,0-.234.255,2.71,2.71,0,0,0-.3.423C246.856,358.665,246.825,358.73,246.825,358.73Z" transform="translate(-246.825 -356.681)" fill="#ca9677"/>
          </g>
          <g id="Gruppe_602" data-name="Gruppe 602" transform="translate(13.849 6.331)" style="mix-blend-mode: multiply;isolation: isolate">
            <path id="Pfad_1640" data-name="Pfad 1640" d="M248.571,359.114s.377-.041.919-.119l.437-.061c.154-.025.317-.038.484-.064s.341-.046.517-.064.354-.042.533-.06.357-.039.533-.052l.518-.046.485-.041.43-.031a1.2,1.2,0,0,1,.6.1.468.468,0,0,1,.143.107l.042.052a.537.537,0,0,0-.105-.25,1.112,1.112,0,0,0-.638-.349,3.581,3.581,0,0,0-.459-.072,4.733,4.733,0,0,0-.507-.036,5.2,5.2,0,0,0-.542,0q-.278.014-.561.042c-.185.024-.372.052-.555.082s-.358.079-.529.121-.332.1-.485.148-.294.11-.424.162a5.572,5.572,0,0,0-.611.3C248.65,359.061,248.571,359.114,248.571,359.114Z" transform="translate(-248.571 -358.116)" fill="#ca9677"/>
          </g>
          <g id="Gruppe_603" data-name="Gruppe 603" transform="translate(4.965 1.357)" style="mix-blend-mode: multiply;isolation: isolate">
            <path id="Pfad_1641" data-name="Pfad 1641" d="M242.916,359.842s.294-.325.682-.836c.1-.129.206-.264.313-.412s.233-.294.346-.456.24-.322.374-.479.256-.325.39-.484.264-.322.407-.467.275-.294.41-.434.273-.264.405-.382.261-.229.385-.324l.178-.141.165-.118c.1-.077.2-.145.277-.193l.247-.168-.3.058a2.175,2.175,0,0,0-.333.1l-.2.071-.217.1a3.636,3.636,0,0,0-.47.259,4.343,4.343,0,0,0-.489.35,5,5,0,0,0-.473.429c-.157.154-.3.322-.443.487s-.272.346-.394.522-.233.358-.342.529-.2.347-.286.512-.163.324-.231.47A8.3,8.3,0,0,0,242.916,359.842Z" transform="translate(-242.916 -354.95)" fill="#ca9677"/>
          </g>
          <g id="Gruppe_604" data-name="Gruppe 604" style="mix-blend-mode: multiply;isolation: isolate">
            <path id="Pfad_1642" data-name="Pfad 1642" d="M239.756,362.538s.407-.49.96-1.255c.138-.193.291-.4.443-.621s.324-.452.485-.7.335-.5.509-.753l.514-.782.5-.79c.168-.259.325-.518.479-.77s.3-.495.437-.729.267-.453.382-.66c.236-.41.419-.759.547-1.005l.195-.39-.294.322c-.182.209-.441.508-.734.88-.149.184-.306.388-.468.6s-.333.446-.5.687-.349.49-.518.749l-.518.784c-.167.267-.335.534-.5.8l-.465.784c-.151.253-.286.506-.418.742s-.25.465-.358.676C240,361.949,239.756,362.538,239.756,362.538Z" transform="translate(-239.756 -354.086)" fill="#ca9677"/>
          </g>
        </g>
        <path id="Pfad_1643" data-name="Pfad 1643" d="M273.65,349.665c-5.969-11.811-21.494-8.589-21.494-8.589a16.772,16.772,0,0,0-14.52,3.438,34.6,34.6,0,0,0-9.379,12.628c.387.2-.379.936-.379.936s-5.342,7.847-4.119,20.229c.262,2.68,1.593,3.224,3.984,4.906l13.88-2.988s.283-2.55.539-2.577c.548-.061,1.654-.456,3.189-2.335.113-.14.226-.284.344-.44a40.665,40.665,0,0,0,4.906-9.491,11.021,11.021,0,0,0,3.569-1.477c2.99,1.387,7.819,1.089,7.819,1.089,1.653,3.629,6.2,4.195,6.2,4.195-1.87,4.558.724,16.05.724,16.05s1.956,4.617,6.231-1.581,3.409-16.047,3.409-16.047C280.753,358.054,273.65,349.665,273.65,349.665Z" transform="translate(-223.577 -340.613)" fill="#f66c03"/>
        <path id="Pfad_1644" data-name="Pfad 1644" d="M245.793,363.058c-.055-.022-.108-.047-.163-.068-9.412-3.973-17.99.646-21.937,3.433.5,10.564,12.818,5.832,16.624,4.267a8.629,8.629,0,0,0,5.186-5.371Z" transform="translate(-223.511 -328.729)" fill="#f5e1cd"/>
        <path id="Pfad_1645" data-name="Pfad 1645" d="M239.565,340.632s2.869,7.086,2.229,11.9a15.152,15.152,0,0,0,3.249,11.382s-3.126-6.7-1.566-11.425.966-11.621.966-11.621-.845.123-1.585.314A7.128,7.128,0,0,0,239.565,340.632Z" transform="translate(-214.447 -340.621)" fill="#f5e1cd"/>
        <path id="Pfad_1646" data-name="Pfad 1646" d="M228.571,348.793a11.488,11.488,0,0,1,5.439,3.01c2.049,2.283,7.371,7.5,13.764,8.864,0,0-8.17.058-11.225-2.54s-5.723-4.517-10.234-4.705A21.613,21.613,0,0,1,228.571,348.793Z" transform="translate(-222.014 -335.955)" fill="#f5e1cd"/>
        <path id="Pfad_1647" data-name="Pfad 1647" d="M248.027,362.462s1.144-5.749,3.458-8.276,4.85-4.258,5.563-5.538a22.937,22.937,0,0,0,1.4-3.576,7.927,7.927,0,0,1,1.238,2.06,19.937,19.937,0,0,1,1.42,1.984s-1.991,4.009-3.3,4.533a15.133,15.133,0,0,0-5.653,3.274,26.462,26.462,0,0,0-3.906,5.978Z" transform="translate(-209.615 -338.08)" fill="#f5e1cd"/>
        <path id="Pfad_1648" data-name="Pfad 1648" d="M251.973,360.243a9.616,9.616,0,0,1,4.344-3.591,7.806,7.806,0,0,1,6.258.743l-.237,1.268.044.759a6.335,6.335,0,0,0-4.729-2.173C254.818,357.379,251.973,360.243,251.973,360.243Z" transform="translate(-207.361 -331.664)" fill="#f5e1cd"/>
        <path id="Pfad_1649" data-name="Pfad 1649" d="M245.208,346.091c-1.4-4.869-4.184-4.251-8.006-2.43s-7.254,6.614-7.227,7.646,3.236,3.056,4.864,5,7.337,5.241,9.469,3.406S245.877,348.41,245.208,346.091Z" transform="translate(-219.924 -339.652)" fill="#f98030"/>
        <path id="Pfad_1650" data-name="Pfad 1650" d="M232.237,348.655c1.582-1.543,4.844-5.524,7.574-4.478,2.93,1.125-1.46,3.293-2.009,4.473-.864,1.854.416,4.234-2.793,3.068C233.784,351.274,230.914,350.335,232.237,348.655Z" transform="translate(-218.827 -338.689)" fill="#f3d9b8"/>
        <path id="Pfad_1651" data-name="Pfad 1651" d="M258.75,348.73c.7-2.306-4.677-6.075-7.2-6.812s-6.65-.632-7.569,3.7-1.723,10.66-.861,12.014,6.034.877,7.818-.778S258.115,350.812,258.75,348.73Z" transform="translate(-212.628 -340.079)" fill="#f98030"/>
        <path id="Pfad_1652" data-name="Pfad 1652" d="M261.456,354.484c-.688-3.681-2.317-4.7-3.158-4.223s-2.181,1.964-3.321,2.189-3.973,2.707-4.02,4.774,5.519,1.233,6.8,1.2S262.255,358.767,261.456,354.484Z" transform="translate(-207.942 -335.18)" fill="#f98030"/>
        <path id="Pfad_1653" data-name="Pfad 1653" d="M244.989,350.787a10.05,10.05,0,0,1,.847-6.366c1.449-2.1,3.973-.8,5.675.133,2.174,1.189,5.194,3.579,2.064,5.879-1.164.856-2.7,1.119-3.912,1.917-.705.467-1.274,1.188-2.174,1.17C246.066,353.494,245.3,352.312,244.989,350.787Z" transform="translate(-211.449 -339.097)" fill="#f3d9b8"/>
        <g id="Gruppe_606" data-name="Gruppe 606" transform="translate(46.433 17.935)">
          <path id="Pfad_1654" data-name="Pfad 1654" d="M253.4,352.988l.259-.108Q253.532,352.939,253.4,352.988Z" transform="translate(-252.978 -351.556)" fill="#f3d9b8"/>
          <path id="Pfad_1655" data-name="Pfad 1655" d="M256.2,355.95c-2.09-.061-4.536-1.577-1.947-2.771l-.434.182c1.606-.729,3.042-2.476,3.97-.178C258.569,355.129,258.095,356,256.2,355.95Z" transform="translate(-253.132 -352.037)" fill="#f3d9b8"/>
        </g>
        <path id="Pfad_1656" data-name="Pfad 1656" d="M255.446,369.724c.341-.933,1.263-1.694,1.676-2.633a11.314,11.314,0,0,0,.688-2.8c.178-1.034.808-3.087-.036-4.028-.657-.732-.837-.3-1.783-.218-.38.033-1.753.159-2.042-.108-.751-.7-.248-1.164.61-1.466a11.509,11.509,0,0,1,3.155-.487c2.217.085,3.474,1.163,3.076,3.532-.638,3.807-.511,7.075-4.27,9C255.369,371.1,254.926,371.144,255.446,369.724Z" transform="translate(-206.442 -330.705)" fill="#f98030"/>
        <path id="Pfad_1657" data-name="Pfad 1657" d="M239.171,364.1a57.986,57.986,0,0,0-8.658.814c-1.106.236-2.9,1.667-3.962,1.419-2.393-.558.041-7.108.421-8.828.558-2.517,1.64-5.262,4.47-3.9,1.694.814,3,2.309,4.723,3.142,1.23.6,2.85.845,3.87,1.807C241.519,359.958,241.25,363.815,239.171,364.1Z" transform="translate(-222.473 -333.412)" fill="#f98030"/>
        <path id="Pfad_1658" data-name="Pfad 1658" d="M227.966,356.852a2.717,2.717,0,0,1,1.018-1.664,1.932,1.932,0,0,1,1.862.107,8.853,8.853,0,0,1,1.51,1.225,10.7,10.7,0,0,0,4.064,2.247c.35.1.751.223.9.556a.906.906,0,0,1-.088.787,2.425,2.425,0,0,1-1.772,1.106,11.929,11.929,0,0,1-2.159.033,11.994,11.994,0,0,0-3.1.361c-.98.248-3.043.866-3.39-.6C226.568,359.982,227.669,357.825,227.966,356.852Z" transform="translate(-221.75 -332.413)" fill="#f3d9b8"/>
      </g>
      <g id="Gruppe_616" data-name="Gruppe 616" transform="translate(105.207 72.229)">
        <g id="Gruppe_609" data-name="Gruppe 609" transform="translate(1.83 49.648)">
          <g id="Gruppe_608" data-name="Gruppe 608">
            <path id="Pfad_1659" data-name="Pfad 1659" d="M285.722,415.651a83.62,83.62,0,0,0-12.622,1.568c-5.822,1.293-12.124,6.239-12.124,6.239l.7,1.243,4.3-1.222a31.723,31.723,0,0,0-3.383,2.74l.776,1.205-.845.424,1.771,1.584-1.012.592.759.842a34.955,34.955,0,0,0,9.137-2.83s-2.294,2.182-3.569,3.482a7.408,7.408,0,0,0,1.216,1.5,97.728,97.728,0,0,0,11.159-7.263c4.93-3.844,5.918-5.42,5.918-5.42s-.281-.968-.872-2.4A10.773,10.773,0,0,0,285.722,415.651Z" transform="translate(-260.976 -415.651)" fill="#f98030"/>
            <path id="Pfad_1660" data-name="Pfad 1660" d="M261.214,423.314l.325.575,4.3-1.222s6.935-4.385,11.6-5.6C277.434,417.071,267.6,418.785,261.214,423.314Z" transform="translate(-260.84 -414.84)" fill="#ca9677" style="mix-blend-mode: multiply;isolation: isolate"/>
            <path id="Pfad_1661" data-name="Pfad 1661" d="M262.234,424.853l.415.641s8.963-5.106,14.094-6.465A51.466,51.466,0,0,0,262.234,424.853Z" transform="translate(-260.258 -413.722)" fill="#ca9677" style="mix-blend-mode: multiply;isolation: isolate"/>
            <path id="Pfad_1662" data-name="Pfad 1662" d="M262.715,426.4l.584.522a107.946,107.946,0,0,1,12.327-6.888S267.568,422.974,262.715,426.4Z" transform="translate(-259.983 -413.146)" fill="#ca9677" style="mix-blend-mode: multiply;isolation: isolate"/>
            <path id="Pfad_1663" data-name="Pfad 1663" d="M262.781,428.1s9.675-2.473,15.811-8.006c0,0-3.191,6.162-15.583,8.24Z" transform="translate(-259.945 -413.116)" fill="#ca9677" style="mix-blend-mode: multiply;isolation: isolate"/>
            <path id="Pfad_1664" data-name="Pfad 1664" d="M283.611,417.94a10.773,10.773,0,0,0-1.307-2.289s-2.581.107-5.92.489c1.3-.135,4.66-.371,5.761.693,1.353,1.31-1.43,7.189-15.184,15.736.093.1.346.369.445.452a97.728,97.728,0,0,0,11.159-7.263c4.93-3.844,5.918-5.42,5.918-5.42S284.2,419.37,283.611,417.94Z" transform="translate(-257.558 -415.651)" fill="#f66c03"/>
            <path id="Pfad_1665" data-name="Pfad 1665" d="M263.078,429.76s11.015-4.116,15.755-8.434,4.1-5.491.443-5.261A43.36,43.36,0,0,0,266,419.5s7.986-2.225,12.71-2.419a44.825,44.825,0,0,0-13.538,6.591s11.015-5.082,15.287-5.147a24.6,24.6,0,0,1-6.886,3.4,33.462,33.462,0,0,0,4.746-1.309S271.065,426.82,263.078,429.76Z" transform="translate(-259.776 -415.43)" fill="#c76145" opacity="0.7" style="mix-blend-mode: screen;isolation: isolate"/>
          </g>
        </g>
        <path id="Pfad_1666" data-name="Pfad 1666" d="M272.281,400.886a23.242,23.242,0,0,1,5.789.842s-1.617-.644-4.493,2,.435,6.1,1.318,6.938c0,0-1.211-4.163.622-5.659a6.126,6.126,0,0,1,6.919-.908,9.456,9.456,0,0,0-5.469,2.687c-2.366,2.432.533,5.983.533,5.983s.091-4.484,1.543-5.488,5.574-2.888,7.5,1.855c0,0-5.309-1.295-6.839,2.916,0,0,5.178-3.027,7.474.119,0,0-6.872-.314-9.012,3.111,0,0,5.679-1.871,6.875.8s-1.844,4.27-1.844,4.27-.66-2.622-4.423-1.427c.361-.105,4.856,1.411,2.944,4.817s8.253.105,10.774-6.861-1.059-14.014-4.214-16.671S275.854,396.144,272.281,400.886Z" transform="translate(-252.69 -376.214)" fill="#e26107"/>
        <g id="Gruppe_614" data-name="Gruppe 614" transform="translate(24.675 24.546)">
          <g id="Gruppe_610" data-name="Gruppe 610" transform="translate(8.636 8.241)" style="mix-blend-mode: multiply;isolation: isolate">
            <path id="Pfad_1667" data-name="Pfad 1667" d="M281.014,404.978s.066.031.181.079l.465.189.3.121c.108.039.217.1.333.138s.234.1.35.154.239.105.358.159.24.108.355.17l.344.168c.107.06.218.11.32.162l.291.149c.182.093.339.17.449.223l.181.082-.1-.171a3.279,3.279,0,0,0-.567-.652,2.985,2.985,0,0,0-.3-.242,3.352,3.352,0,0,0-.347-.223c-.123-.071-.253-.132-.38-.2s-.266-.11-.4-.156-.269-.077-.4-.112a3.249,3.249,0,0,0-.38-.068,3.143,3.143,0,0,0-.346-.03,2.864,2.864,0,0,0-.517.023C281.085,404.962,281.014,404.978,281.014,404.978Z" transform="translate(-281.014 -404.918)" fill="#ca9677"/>
          </g>
          <g id="Gruppe_611" data-name="Gruppe 611" transform="translate(9.362 11.204)" style="mix-blend-mode: multiply;isolation: isolate">
            <path id="Pfad_1668" data-name="Pfad 1668" d="M281.476,406.8s.264.275.658.655l.314.308c.115.105.225.229.347.344s.245.242.368.369.25.253.372.385.25.258.368.388l.354.382.33.361.288.32a1.208,1.208,0,0,1,.289.529.523.523,0,0,1,0,.177l-.016.066a.552.552,0,0,0,.132-.236,1.1,1.1,0,0,0-.115-.718,3.256,3.256,0,0,0-.223-.408,4.8,4.8,0,0,0-.281-.423,5.151,5.151,0,0,0-.332-.429c-.121-.141-.247-.28-.375-.418s-.27-.262-.405-.388-.281-.236-.419-.344-.28-.2-.413-.294-.267-.167-.388-.237a5.32,5.32,0,0,0-.611-.3C281.566,406.835,281.476,406.8,281.476,406.8Z" transform="translate(-281.476 -406.804)" fill="#ca9677"/>
          </g>
          <g id="Gruppe_612" data-name="Gruppe 612" transform="translate(4.779 2.965)" style="mix-blend-mode: multiply;isolation: isolate">
            <path id="Pfad_1669" data-name="Pfad 1669" d="M278.559,402.113s.437.033,1.079.027c.16,0,.333,0,.515,0s.375,0,.572-.006.4-.006.608,0,.415,0,.622.013.415.011.617.035.4.038.594.06.375.055.55.088.341.066.492.105l.22.053.195.06c.124.035.234.066.32.1l.286.094-.228-.2a2.239,2.239,0,0,0-.28-.2l-.182-.116-.211-.11a3.677,3.677,0,0,0-.493-.214,4.768,4.768,0,0,0-.575-.171,5.017,5.017,0,0,0-.63-.112c-.217-.03-.435-.038-.655-.052s-.44,0-.655.006-.424.036-.627.053-.4.055-.58.088-.357.068-.514.1A8.6,8.6,0,0,0,278.559,402.113Z" transform="translate(-278.559 -401.56)" fill="#ca9677"/>
          </g>
          <g id="Gruppe_613" data-name="Gruppe 613" style="mix-blend-mode: multiply;isolation: isolate">
            <path id="Pfad_1670" data-name="Pfad 1670" d="M275.517,400.613s.636.02,1.581-.009c.236-.009.492-.014.762-.03s.555-.02.848-.042l.9-.058.935-.072.932-.085c.308-.025.611-.06.9-.093s.577-.064.844-.1.522-.068.756-.1c.468-.066.858-.133,1.13-.182l.429-.085-.435-.036c-.277-.017-.672-.038-1.145-.042-.237,0-.493,0-.765,0s-.556.008-.852.022-.6.022-.908.047l-.938.071-.935.093-.9.112c-.292.036-.575.085-.842.124s-.52.088-.753.129C276.131,400.445,275.517,400.613,275.517,400.613Z" transform="translate(-275.517 -399.673)" fill="#ca9677"/>
          </g>
        </g>
        <path id="Pfad_1671" data-name="Pfad 1671" d="M315.367,416.455c5.689-11.948-6.36-22.254-6.36-22.254a16.768,16.768,0,0,0-11.6-9.381,34.6,34.6,0,0,0-15.726.308c.075.43-.974.275-.974.275s-9.475.578-18.518,9.12c-1.961,1.849-1.576,3.233-1.444,6.155l10.858,9.148s2.19-1.335,2.368-1.15c.385.4,1.373,1.029,3.8,1.093.178,0,.363,0,.558,0a40.7,40.7,0,0,0,10.509-1.928,10.984,10.984,0,0,0,3.351,1.92c.734,3.214,3.925,6.85,3.925,6.85-1.859,3.529.476,7.47.476,7.47-4.749,1.31-12.251,10.393-12.251,10.393s-2.456,4.374,5.064,3.961,14.777-7.123,14.777-7.123C313.078,427.208,315.367,416.455,315.367,416.455Z" transform="translate(-259.349 -384.049)" fill="#f66c03"/>
        <path id="Pfad_1672" data-name="Pfad 1672" d="M278.83,406.136c-.016-.057-.028-.113-.046-.17-2.617-9.876-11.519-13.833-16.138-15.25-8.049,6.864,3.23,13.708,6.8,15.759a8.635,8.635,0,0,0,7.423.815Z" transform="translate(-259.811 -380.242)" fill="#f5e1cd"/>
        <path id="Pfad_1673" data-name="Pfad 1673" d="M295.774,388.592s-3.849,6.6-8.05,9.048a15.146,15.146,0,0,0-7.013,9.533s3.384-6.572,8.077-8.231,9.782-6.346,9.782-6.346-.613-.594-1.218-1.062A7.124,7.124,0,0,0,295.774,388.592Z" transform="translate(-247.876 -381.455)" fill="#f5e1cd"/>
        <path id="Pfad_1674" data-name="Pfad 1674" d="M278.445,384.245a11.49,11.49,0,0,1,.947,6.143c-.553,3.016-1.422,10.419,1.412,16.309,0,0-5.045-6.426-4.861-10.43s.071-7.293-2.54-10.974A21.571,21.571,0,0,1,278.445,384.245Z" transform="translate(-252.049 -383.938)" fill="#f5e1cd"/>
        <path id="Pfad_1675" data-name="Pfad 1675" d="M283.285,405.651s5.246-2.613,8.661-2.33,6.335,1.23,7.785,1.01a23.046,23.046,0,0,0,3.686-1.081,7.9,7.9,0,0,1-.874,2.24,20.138,20.138,0,0,1-.7,2.338s-4.388.878-5.6.165a15.161,15.161,0,0,0-6.049-2.467,26.522,26.522,0,0,0-7.119.569Z" transform="translate(-246.527 -373.084)" fill="#f5e1cd"/>
        <path id="Pfad_1676" data-name="Pfad 1676" d="M283.51,409.541a9.619,9.619,0,0,1,5.5,1.238,7.811,7.811,0,0,1,3.241,5.4l-1.148.588-.573.5a6.332,6.332,0,0,0-1.175-5.07C287.515,410.039,283.51,409.541,283.51,409.541Z" transform="translate(-246.278 -369.504)" fill="#f5e1cd"/>
        <path id="Pfad_1677" data-name="Pfad 1677" d="M292.426,394.569c2.993-4.089.8-5.912-2.976-7.819s-9.672-1.69-10.471-1.037-.435,4.429-.979,6.906.344,9.01,3.1,9.574S291,396.517,292.426,394.569Z" transform="translate(-249.511 -383.366)" fill="#f98030"/>
        <path id="Pfad_1678" data-name="Pfad 1678" d="M281.206,386.576c2.189.308,7.332.449,8.174,3.251.9,3.005-3.5.861-4.765,1.147-2,.451-3.1,2.921-4.138-.331C280.081,389.4,279.068,386.557,281.206,386.576Z" transform="translate(-248.346 -382.606)" fill="#f3d9b8"/>
        <path id="Pfad_1679" data-name="Pfad 1679" d="M300.185,407.684c2.254-.856,1.942-7.417.982-9.863s-3.571-5.645-7.557-3.725-9.485,5.159-10.028,6.672,3,5.309,5.4,5.708S298.149,408.457,300.185,407.684Z" transform="translate(-246.268 -378.648)" fill="#f98030"/>
        <path id="Pfad_1680" data-name="Pfad 1680" d="M294.913,413.051c2.49-2.8,2.3-4.712,1.406-5.082s-2.886-.522-3.763-1.288-4.572-1.485-6.236-.258,2.4,5.12,3.21,6.111S292.014,416.3,294.913,413.051Z" transform="translate(-244.898 -371.649)" fill="#f98030"/>
        <path id="Pfad_1681" data-name="Pfad 1681" d="M288.091,398.557a10.045,10.045,0,0,1,5.552-3.227c2.55-.141,3.064,2.654,3.367,4.569.39,2.448.347,6.3-3.386,5.232-1.389-.4-2.54-1.455-3.91-1.921-.8-.273-1.72-.281-2.256-1C286.608,401.063,287.076,399.737,288.091,398.557Z" transform="translate(-244.275 -377.61)" fill="#f3d9b8"/>
        <g id="Gruppe_615" data-name="Gruppe 615" transform="translate(44.622 36.175)">
          <path id="Pfad_1682" data-name="Pfad 1682" d="M289.021,407.075l.245.14C289.183,407.171,289.1,407.124,289.021,407.075Z" transform="translate(-287.753 -407.075)" fill="#f3d9b8"/>
          <path id="Pfad_1683" data-name="Pfad 1683" d="M289.136,410.668c-1.232-1.689-1.529-4.551,1-3.235l-.408-.231c1.559.823,3.819.891,2.569,3.031C291.239,412.043,290.255,412.2,289.136,410.668Z" transform="translate(-288.214 -407.062)" fill="#f3d9b8"/>
        </g>
        <path id="Pfad_1684" data-name="Pfad 1684" d="M280.317,418.7c.947-.3,2.112-.036,3.109-.284a11.465,11.465,0,0,0,2.633-1.166c.925-.493,2.935-1.252,3.163-2.495.178-.968-.275-.847-.919-1.544-.258-.28-1.2-1.29-1.163-1.683.091-1.02.768-.908,1.532-.415a11.461,11.461,0,0,1,2.314,2.2c1.29,1.805,1.208,3.459-.91,4.6-3.4,1.824-5.907,3.923-9.73,2.127C279.178,419.486,278.875,419.159,280.317,418.7Z" transform="translate(-248.654 -368.802)" fill="#f98030"/>
        <path id="Pfad_1685" data-name="Pfad 1685" d="M275.06,401.639a57.7,57.7,0,0,0-5.94-6.349c-.864-.732-3.1-1.276-3.547-2.266-1.023-2.236,5.646-4.319,7.24-5.07,2.333-1.1,5.166-1.923,5.821,1.147.393,1.837.009,3.785.405,5.659.283,1.337,1.076,2.77.938,4.167C279.777,400.957,276.562,403.106,275.06,401.639Z" transform="translate(-256.582 -382.386)" fill="#f98030"/>
        <path id="Pfad_1686" data-name="Pfad 1686" d="M272.191,388.709a2.72,2.72,0,0,1,1.939-.214,1.935,1.935,0,0,1,1.054,1.538,8.846,8.846,0,0,1-.044,1.943,10.673,10.673,0,0,0,.71,4.591,1.307,1.307,0,0,1,.112,1.053.908.908,0,0,1-.677.412,2.429,2.429,0,0,1-1.959-.724,12.089,12.089,0,0,1-1.348-1.687,11.928,11.928,0,0,0-2.182-2.231c-.8-.624-2.547-1.879-1.6-3.051C268.86,389.517,271.24,389.069,272.191,388.709Z" transform="translate(-255.18 -381.572)" fill="#f3d9b8"/>
      </g>
      <g id="Gruppe_617" data-name="Gruppe 617" transform="translate(72.372 1.885)">
        <path id="Pfad_1687" data-name="Pfad 1687" d="M250.814,396.5c3.362-.057,6.765-1.573,9.921-3.229l-1.229-2.231c-3.747,2.046-7.994,4.364-12.169,4.435a8.49,8.49,0,0,1-.889-.039A9.3,9.3,0,0,0,250.814,396.5Z" transform="translate(-235.9 -313.711)" fill="#f9a454"/>
        <path id="Pfad_1688" data-name="Pfad 1688" d="M282.332,345.9a5.993,5.993,0,0,0-2.944,1.642,16.265,16.265,0,0,0-4.929,15.367c.259,1.153.657,2.349,1.079,3.617.929,2.79,1.983,5.954,1.683,9.423-.723,8.341-8.223,12.9-14.25,16.567-.6.365-1.2.726-1.775,1.087a53.585,53.585,0,0,0-16.551,16.044c-1.9,2.917-2.655,5.087-2.366,6.826.446,2.664,3.6,4.484,6.584,4.756a5.5,5.5,0,0,1-3.108-3.731c-.289-1.739.462-3.909,2.366-6.826a53.586,53.586,0,0,1,16.551-16.044c.58-.361,1.174-.723,1.775-1.087,6.027-3.665,13.527-8.226,14.25-16.567.3-3.469-.754-6.633-1.683-9.423-.423-1.266-.82-2.463-1.079-3.617a16.266,16.266,0,0,1,4.928-15.367,6.38,6.38,0,0,1,2.713-1.584A4.936,4.936,0,0,0,282.332,345.9Z" transform="translate(-238.315 -339.502)" fill="#f9a454"/>
        <path id="Pfad_1689" data-name="Pfad 1689" d="M278.014,347.063a23.408,23.408,0,0,1,4.1,16.191c-.66,6.753-3.576,12.9-6.151,18.319l-6.286,13.236,3.216,1.573,6.547-13.785c2.573-5.422,5.491-11.566,6.151-18.319a23.408,23.408,0,0,0-4.1-16.191,17.515,17.515,0,0,0-3.521-3.562,13.319,13.319,0,0,0-6.2-2.639,14.773,14.773,0,0,1,2.72,1.615A17.476,17.476,0,0,1,278.014,347.063Z" transform="translate(-222.633 -341.784)" fill="#f9a454"/>
        <path id="Pfad_1690" data-name="Pfad 1690" d="M279.369,345.291a23.507,23.507,0,0,0-7.214,22.5,44.122,44.122,0,0,0,1.28,4.346c.768,2.308,1.494,4.487,1.326,6.419-.4,4.641-5.678,7.851-10.781,10.953-.619.377-1.233.749-1.832,1.122a60.885,60.885,0,0,0-18.8,18.243c-1.87,2.864-4.264,7.233-3.455,12.075.781,4.687,4.283,8.063,8.426,9.783a15.838,15.838,0,0,0,3.07.267c5.976-.1,11.28-2.994,15.543-5.321l-2.364-4.292c-3.156,1.656-6.559,3.172-9.921,3.229a9.3,9.3,0,0,1-4.366-1.064c-2.985-.272-6.138-2.091-6.584-4.756-.289-1.739.462-3.909,2.366-6.826a53.585,53.585,0,0,1,16.551-16.044c.58-.361,1.174-.723,1.775-1.087,6.027-3.665,13.527-8.226,14.25-16.567.3-3.469-.754-6.633-1.683-9.423-.423-1.268-.82-2.463-1.079-3.617a16.265,16.265,0,0,1,4.928-15.367,5.993,5.993,0,0,1,2.944-1.642A4.936,4.936,0,0,1,287,349.306c.075-.016.157-.049.231-.058a5.092,5.092,0,0,1,3.471,1.23c3.348,2.507,5.175,7.624,4.649,13.016-.534,5.472-3.046,10.762-5.475,15.879l-6.545,13.785,3.453,1.689,6.286-13.236c2.575-5.422,5.491-11.566,6.151-18.319a23.408,23.408,0,0,0-4.1-16.191,17.477,17.477,0,0,0-3.521-3.562,14.771,14.771,0,0,0-2.72-1.615,10.369,10.369,0,0,0-2.691-.027A12.774,12.774,0,0,0,279.369,345.291Z" transform="translate(-239.734 -341.821)" fill="#ffca93"/>
      </g>
      <g id="Gruppe_618" data-name="Gruppe 618" transform="translate(97.43 21.143)">
        <path id="Pfad_1691" data-name="Pfad 1691" d="M275.267,359.282c-3.155,1.164-5.866,3.72-8.3,6.325l1.9,1.7c2.861-3.169,6.1-6.762,10.02-8.207a8.347,8.347,0,0,1,.852-.258A9.291,9.291,0,0,0,275.267,359.282Z" transform="translate(-248.876 -351.415)" fill="#f9a454"/>
        <path id="Pfad_1692" data-name="Pfad 1692" d="M274.175,441.064a5.984,5.984,0,0,0,2.236-2.523,16.264,16.264,0,0,0-.427-16.13c-.625-1-1.4-2-2.214-3.057-1.8-2.327-3.84-4.965-4.7-8.338-2.075-8.11,3.5-14.9,7.972-20.345.446-.544.888-1.081,1.315-1.612a53.6,53.6,0,0,0,10.319-20.614c.833-3.383.825-5.679-.024-7.224-1.3-2.368-4.88-3.043-7.786-2.313a5.5,5.5,0,0,1,4.166,2.495c.848,1.544.856,3.841.024,7.224a53.6,53.6,0,0,1-10.319,20.614c-.427.531-.869,1.068-1.315,1.612-4.476,5.45-10.047,12.235-7.972,20.345.863,3.373,2.9,6.011,4.7,8.338.817,1.056,1.588,2.053,2.214,3.057a16.267,16.267,0,0,1,.427,16.132,6.385,6.385,0,0,1-2.036,2.391A4.93,4.93,0,0,0,274.175,441.064Z" transform="translate(-250.001 -351.481)" fill="#f9a454"/>
        <path id="Pfad_1693" data-name="Pfad 1693" d="M269.274,431.7a23.415,23.415,0,0,1-9.224-13.924c-1.61-6.592-.888-13.356-.25-19.323l1.557-14.57-3.555-.421-1.621,15.173c-.638,5.967-1.361,12.73.25,19.323a23.409,23.409,0,0,0,9.224,13.924,17.5,17.5,0,0,0,4.5,2.2,13.307,13.307,0,0,0,6.719.443,14.805,14.805,0,0,1-3.1-.625A17.532,17.532,0,0,1,269.274,431.7Z" transform="translate(-255.453 -337.3)" fill="#f9a454"/>
        <path id="Pfad_1694" data-name="Pfad 1694" d="M283.414,444.98a23.5,23.5,0,0,0-.627-23.619,44.37,44.37,0,0,0-2.646-3.678c-1.488-1.924-2.892-3.741-3.373-5.62-1.155-4.512,2.764-9.285,6.556-13.9.459-.561.914-1.115,1.357-1.664a60.913,60.913,0,0,0,11.711-23.431c.819-3.323,1.632-8.237-.731-12.54-2.287-4.163-6.707-6.193-11.186-6.448a15.821,15.821,0,0,0-2.987.764c-5.607,2.069-9.656,6.555-12.908,10.16l3.65,3.268c2.43-2.6,5.142-5.161,8.3-6.325a9.291,9.291,0,0,1,4.471-.44c2.906-.731,6.484-.055,7.786,2.313.848,1.544.856,3.841.024,7.224a53.6,53.6,0,0,1-10.319,20.614c-.427.531-.869,1.068-1.315,1.612-4.476,5.45-10.047,12.235-7.972,20.345.863,3.373,2.9,6.011,4.7,8.338.817,1.056,1.588,2.053,2.214,3.057a16.264,16.264,0,0,1,.427,16.13,5.984,5.984,0,0,1-2.236,2.523,4.93,4.93,0,0,1-3.42.052c-.068.039-.134.1-.2.13a5.091,5.091,0,0,1-3.683-.013c-3.989-1.262-7.4-5.486-8.69-10.749-1.3-5.34-.682-11.162-.08-16.795l1.62-15.175-3.818-.451-1.557,14.57c-.638,5.967-1.361,12.73.25,19.323a23.415,23.415,0,0,0,9.224,13.924,17.531,17.531,0,0,0,4.5,2.2,14.8,14.8,0,0,0,3.1.625,10.272,10.272,0,0,0,2.548-.866A12.755,12.755,0,0,0,283.414,444.98Z" transform="translate(-254.137 -354.079)" fill="#ffca93"/>
      </g>
      <g id="Gruppe_619" data-name="Gruppe 619" transform="translate(108.143 7.797)">
        <path id="Pfad_1695" data-name="Pfad 1695" d="M309.309,393c11.89-16.083,5.75-47.417,5.75-47.417s-31.756,3.317-43.646,19.4-13.046,35.391-2.581,43.127S297.417,409.082,309.309,393Z" transform="translate(-261.68 -345.584)" fill="#80b32e"/>
        <path id="Pfad_1696" data-name="Pfad 1696" d="M312.459,345.584l-46.227,62.527c10.463,7.738,28.586.971,40.477-15.111S312.459,345.584,312.459,345.584Z" transform="translate(-259.081 -345.584)" fill="#668a21"/>
      </g>
      <g id="Gruppe_620" data-name="Gruppe 620" transform="translate(0 43.057)">
        <path id="Pfad_1697" data-name="Pfad 1697" d="M242.939,369.785c-18.259-8.163-47.547,4.555-47.547,4.555s10.052,30.306,28.311,38.469,37.366,5.148,42.678-6.732S261.2,377.948,242.939,369.785Z" transform="translate(-195.392 -367.051)" fill="#80b32e"/>
        <path id="Pfad_1698" data-name="Pfad 1698" d="M195.392,374.339l70.989,31.737c5.312-11.88-5.185-28.128-23.442-36.292S195.392,374.339,195.392,374.339Z" transform="translate(-195.392 -367.051)" fill="#668a21"/>
      </g>
      <g id="Gruppe_621" data-name="Gruppe 621" transform="translate(95.316 42.653)">
        <path id="Pfad_1699" data-name="Pfad 1699" d="M295.648,369.092c5.656,9.255,6.4,25.037,1.159,36.765-6.938,15.535-21.729,18.069-33.3,12.9a24.873,24.873,0,0,1-7.419-5.148,25.09,25.09,0,0,0,10.789,9.3c11.572,5.169,26.366,2.633,33.3-12.9C306.318,396.254,304.238,376.928,295.648,369.092Z" transform="translate(-252.048 -365.353)" fill="#e9ebe9"/>
        <path id="Pfad_1700" data-name="Pfad 1700" d="M298.275,407.216c5.238-11.728,4.5-27.509-1.159-36.765a13.794,13.794,0,0,0-3.653-2.437c-11.573-5.169-30.348,5.687-37.286,21.22-4.327,9.69-3.024,18.913,1.376,25.734a24.873,24.873,0,0,0,7.419,5.148C276.545,425.285,291.337,422.751,298.275,407.216Z" transform="translate(-253.516 -366.712)" fill="#f6faf7"/>
        <circle id="Ellipse_49" data-name="Ellipse 49" cx="14.767" cy="14.767" r="14.767" transform="translate(11.923 15.921)" fill="#fad437"/>
        <path id="Pfad_1701" data-name="Pfad 1701" d="M285.316,379.41a14.748,14.748,0,0,1-23.03,17.874,14.755,14.755,0,1,0,23.03-17.874Z" transform="translate(-248.507 -359.46)" fill="#f0b930"/>
        <path id="Pfad_1702" data-name="Pfad 1702" d="M286.562,394.032a14.726,14.726,0,0,0-.572-13.156,14.751,14.751,0,0,0-23.03,17.874,14.736,14.736,0,0,0,23.6-4.718Z" transform="translate(-249.181 -360.926)" fill="#fad437"/>
        <path id="Pfad_1703" data-name="Pfad 1703" d="M283.334,391.625a10.422,10.422,0,1,1-5.266-13.766A10.422,10.422,0,0,1,283.334,391.625Z" transform="translate(-247.874 -360.865)" fill="#ffe16e"/>
      </g>
      <g id="Gruppe_622" data-name="Gruppe 622" transform="translate(33.325 37.231)">
        <path id="Pfad_1704" data-name="Pfad 1704" d="M227.108,363.429c10.589,2.353,22.463,12.777,27.267,24.689,6.366,15.777-2.079,28.183-13.833,32.927a24.836,24.836,0,0,1-8.856,1.764A25.086,25.086,0,0,0,245.87,421.5c11.755-4.743,20.2-17.148,13.835-32.927C254.068,374.606,238.713,362.687,227.108,363.429Z" transform="translate(-209.472 -363.396)" fill="#e9ebe9"/>
        <path id="Pfad_1705" data-name="Pfad 1705" d="M260.786,388.106c-4.8-11.912-16.678-22.336-27.267-24.689a13.784,13.784,0,0,0-4.287.938c-11.755,4.742-16.975,25.792-10.611,41.569,3.97,9.843,11.511,15.305,19.477,16.873a24.836,24.836,0,0,0,8.856-1.764C258.708,416.29,267.152,403.883,260.786,388.106Z" transform="translate(-215.882 -363.384)" fill="#f6faf7"/>
        <path id="Pfad_1706" data-name="Pfad 1706" d="M251.049,382.917a14.767,14.767,0,1,1-19.22-8.171A14.767,14.767,0,0,1,251.049,382.917Z" transform="translate(-212.057 -357.529)" fill="#fad437"/>
        <path id="Pfad_1707" data-name="Pfad 1707" d="M232.668,373.7a14.747,14.747,0,0,1-3.12,28.985,14.755,14.755,0,1,0,3.12-28.985Z" transform="translate(-208.078 -357.523)" fill="#f0b930"/>
        <path id="Pfad_1708" data-name="Pfad 1708" d="M246.514,382.412a14.726,14.726,0,0,0-9.868-8.721,14.75,14.75,0,0,0-3.12,28.985,14.735,14.735,0,0,0,12.988-20.264Z" transform="translate(-212.057 -357.517)" fill="#fad437"/>
        <path id="Pfad_1709" data-name="Pfad 1709" d="M243.194,381.458a10.422,10.422,0,1,1-13.565-5.766A10.424,10.424,0,0,1,243.194,381.458Z" transform="translate(-211.758 -356.808)" fill="#ffe16e"/>
      </g>
    </g>
  </g>
</svg>
