<svg xmlns="http://www.w3.org/2000/svg" width="16.836" height="16.836" viewBox="0 0 16.836 16.836">
  <g id="Gruppe_904" data-name="Gruppe 904" transform="translate(-231.59 -126.552)">
    <path id="Pfad_2384" data-name="Pfad 2384" d="M250.865,145.3a.119.119,0,0,0-.167,0l-.765.74-.22-.1a6.789,6.789,0,0,1-1.863-1.369,6.923,6.923,0,0,1-1.377-1.869l-.1-.223.739-.749a.119.119,0,0,0,0-.168l-1.268-1.275a.119.119,0,0,0-.169,0l-.609.6a.8.8,0,0,0-.156.908,12.831,12.831,0,0,0,5.755,5.755.8.8,0,0,0,.909-.156l.608-.61a.12.12,0,0,0,0-.169Z" transform="translate(-8.599 -8.898)" fill="#e76a0b"/>
    <path id="Pfad_2385" data-name="Pfad 2385" d="M240.008,126.552h0a8.418,8.418,0,1,0,0,16.836h0a8.418,8.418,0,0,0,0-16.836Zm4.357,11.575-.881.884a1.516,1.516,0,0,1-1.072.445,1.5,1.5,0,0,1-.655-.15,13.547,13.547,0,0,1-6.086-6.086,1.511,1.511,0,0,1,.294-1.727l.884-.878a.448.448,0,0,1,.633,0l1.811,1.821a.448.448,0,0,1,0,.63l-.655.663a6.926,6.926,0,0,0,1.119,1.443,6.828,6.828,0,0,0,1.437,1.112l.681-.66a.447.447,0,0,1,.628.005l1.861,1.864A.447.447,0,0,1,244.365,138.127Z" fill="#e76a0b"/>
  </g>
</svg>
