<svg xmlns="http://www.w3.org/2000/svg" width="148.188" height="135.641" viewBox="0 0 148.188 135.641">
  <g id="Gruppe_335" data-name="Gruppe 335" transform="matrix(0.53, -0.848, 0.848, 0.53, -8.115, 79.308)">
    <g id="Gruppe_332" data-name="Gruppe 332" transform="translate(0 58.276)">
      <path id="Pfad_899" data-name="Pfad 899" d="M116.672,395.995c-.948,3.891,2.52,9.961-.948,3.891s-9.221-9.27-10.984-7.461,3.25,6.051,1.756,7.792-2.3-2.856-4.012-1.707,13.87,15.468,11.782,15.71-9.611-4.012-12.034-9.915-4.992-8.121-4.324-4.063-5.763-1.836-7.56-.164,2.148,3.681,2.148,3.681-2.392-.4-2.3.227,11.959,6.786,10.53,7.647-12.443-5.016-14.4-7.1-.6,2.157.566,3.652-7.028-.138-7.683,2.1l-.082-.014c-.377,2.3,7.879,4.073,6.181,4.919s-4.747,4.092-2.082,3.054,15.137-1.606,16.056-.213-12.452,1.85-12.8,2.375,1.983,1.195,1.983,1.195-4.426.119-3.524,2.4,9.246-.268,6.9,3.105.921,2.479,5.649-1.807,13.35-4.892,15.13-3.778-18.445,7.34-17.393,9.115,3.756-2.026,4.356.186-5.751,3.889-4.936,6.278,7.381,1.976,13.125-2.012,0,0-.817,3.923,4.041-5.306,9.458-11.729c3.156-3.739,12.675-3.345,18.1-2.81a1.8,1.8,0,0,0,1.94-1.4h0a1.805,1.805,0,0,0-1.151-2.1c-5.132-1.853-13.894-5.591-15.132-10.327C118.039,402.524,117.62,392.1,116.672,395.995Z" transform="translate(-79.107 -391.922)" fill="#668921"/>
      <path id="Pfad_900" data-name="Pfad 900" d="M96.7,413.566a24.555,24.555,0,0,1,2.22-2.938,10.965,10.965,0,0,1,2.921-1.8l5.618-2.694a.816.816,0,0,0-.532-1.531,33.455,33.455,0,0,0-7.724,3.013l-8.6,4.237a1.031,1.031,0,0,0-.518,1.357c.5.994,2.268-.073,2.568,1.057-.326.53-.878.561-2,1.3-4.885,1.463-2.14,2.643-.861,2.8a2.779,2.779,0,0,0,2.2-.834A21.56,21.56,0,0,0,96.7,413.566Z" transform="translate(-66.694 -373.96)" fill="#5e7c1e"/>
      <path id="Pfad_901" data-name="Pfad 901" d="M101.06,403.553c.375-.128.844-.418.709-.791a4.8,4.8,0,0,0-3.2.356,36.58,36.58,0,0,1-10.317,1.9,3.9,3.9,0,0,0-1.408.22,1.232,1.232,0,0,0-.8,1.086.75.75,0,0,0,.987.687,23.442,23.442,0,0,0-3.7,1.255c.249.559.97.689,1.579.709a15.177,15.177,0,0,0,3.882-.38,2.86,2.86,0,0,1,1.408-.106.867.867,0,0,1,.256.123,1.651,1.651,0,0,0,1.872-.041C95.113,406.6,97.681,404.708,101.06,403.553Z" transform="translate(-73.119 -376.781)" fill="#5e7c1e"/>
      <path id="Pfad_902" data-name="Pfad 902" d="M99.848,411.041q-3.983-4.694-7.961-9.393a2.025,2.025,0,0,1-.561-1c-.048-.385.223-.834.609-.822.239.01.44.181.67.239.665.169,1.19-.7,1.018-1.366a4.239,4.239,0,0,0-1.2-1.64,1.934,1.934,0,0,1-.646-1.843c.385-1.081,2.022-.885,2.953-.215,2.638,1.9,3.347,5.427,4.559,8.44,1.981,4.917,5.683,8.953,9.744,12.36-.293-.247-2.532-.024-3.081-.143a7.852,7.852,0,0,1-2.177-.728C102.211,414.064,100.982,412.379,99.848,411.041Z" transform="translate(-61.784 -388.328)" fill="#5e7c1e"/>
      <path id="Pfad_903" data-name="Pfad 903" d="M100.4,406.4c1,.051,2.273-.077,2.576-1.03a83.165,83.165,0,0,1-16.479-6.244,1.922,1.922,0,0,0,.237,2.322,29.141,29.141,0,0,0-6.053-.7,1.43,1.43,0,0,0,.474,1.618,4.182,4.182,0,0,0,1.64.733q1.9.541,3.8,1.076c-.271-.075-1.865,1.652-2.106,1.913,1.047.568,1.77.048,2.786-.118a17.673,17.673,0,0,1,3.836-.039Z" transform="translate(-77.023 -381.698)" fill="#5e7c1e"/>
      <path id="Pfad_904" data-name="Pfad 904" d="M106.59,411.772a3.111,3.111,0,0,1-2.747.384c-3.857-.832-7.113-3.369-10-6.056a70.794,70.794,0,0,0-7.541-6.656.468.468,0,0,1,.3-.849l1.272.073a25.721,25.721,0,0,1-2.181-1.891c.489-.554,1.495-.034,1.877.489a1.68,1.68,0,0,0,1.033.675,1.031,1.031,0,0,0,1.091-.418.785.785,0,0,1,1.318.157A28.187,28.187,0,0,0,106.59,411.772Z" transform="translate(-69.772 -385.372)" fill="#5e7c1e"/>
    </g>
    <g id="Gruppe_333" data-name="Gruppe 333" transform="translate(58.929 49.015)">
      <path id="Pfad_905" data-name="Pfad 905" d="M143.129,444.674c-2.007-4.474-9.918-7.732-2.007-4.474s15.872,2.031,16.218-1.038-7.686-3.407-7.548-6.21,4.365,1.035,5.158-1.364-25.021-4.532-23.185-6.334,12.3-3.337,19.079.544,10.919,4.1,7.226.68,6.948-2.554,7.429-5.519-4.842-1.944-4.842-1.944,2.609-1.412,2.06-1.949-16.653,2.423-15.92.518,15.79-4.5,19.248-3.957-1.042-2.534-3.291-3.105,6.895-5.144,5.848-7.8l.089-.046c-1.364-2.51-10.67,1.981-9.666-.114s1.514-7.516-.283-4.515-13.417,12.922-15.352,12.264,10.641-11.137,10.581-11.9-2.815.334-2.815.334,4.189-3.437,1.6-4.965-8.73,7.2-9,2.179-2.752-1.7-4.1,5.99-9.226,14.755-11.782,15.013,12.312-20.946,9.961-21.872-2.109,4.779-4.348,3.093,2.636-8.078.056-9.775-8.617,3.637-11.173,11.8,0,0-2.155-4.4.08,8.162-.331,18.435c-.239,5.986-9.734,12.752-15.381,16.315a2.207,2.207,0,0,0-.825,2.805h0a2.21,2.21,0,0,0,2.684,1.163c6.351-2.063,17.625-5.03,22.378-1.388C136.907,439.39,145.137,449.148,143.129,444.674Z" transform="translate(-103.474 -388.093)" fill="#668921"/>
      <path id="Pfad_906" data-name="Pfad 906" d="M114.749,401.081a29.2,29.2,0,0,1,.063,4.5,13.419,13.419,0,0,1-1.473,3.932l-3.405,6.822a1,1,0,0,0,1.664,1.081,41.111,41.111,0,0,0,5.2-8.714l5.132-10.556a1.265,1.265,0,0,0-.52-1.7c-1.229-.585-2.138,1.775-3.275.907-.085-.755.428-1.2.958-2.75,3.62-5.083.08-4.164-1.275-3.357-1.062.631-1.178,1.408-1.5,2.457A26.474,26.474,0,0,0,114.749,401.081Z" transform="translate(-94.474 -384.512)" fill="#5e7c1e"/>
      <path id="Pfad_907" data-name="Pfad 907" d="M116.851,409.989c-.266.406-.5,1.037-.092,1.294,1.289-.385,2.09-1.628,2.832-2.75a44.753,44.753,0,0,1,8.539-9.582,4.769,4.769,0,0,0,1.195-1.27,1.509,1.509,0,0,0-.041-1.649.916.916,0,0,0-1.468.077,28.914,28.914,0,0,0,2.629-3.99c-.658-.353-1.456.063-2.058.5a18.481,18.481,0,0,0-3.463,3.282,3.508,3.508,0,0,1-1.284,1.161,1.049,1.049,0,0,1-.336.073,2.02,2.02,0,0,0-1.78,1.446C120.3,402.572,119.248,406.335,116.851,409.989Z" transform="translate(-84.942 -382.569)" fill="#5e7c1e"/>
      <path id="Pfad_908" data-name="Pfad 908" d="M121.185,404.723l14.747,3.1a2.464,2.464,0,0,1,1.289.544.856.856,0,0,1,.029,1.248c-.237.172-.561.155-.827.273-.769.339-.622,1.574.044,2.085a5.167,5.167,0,0,0,2.392.682,2.366,2.366,0,0,1,2.007,1.3c.44,1.335-1.287,2.375-2.692,2.426-3.973.145-7.308-2.73-10.745-4.733-5.6-3.262-12.213-4.38-18.694-4.624.467.017,2.464-1.877,3.083-2.179a9.836,9.836,0,0,1,2.648-.931C116.631,403.579,119.083,404.283,121.185,404.723Z" transform="translate(-96.011 -365.781)" fill="#5e7c1e"/>
      <path id="Pfad_909" data-name="Pfad 909" d="M120.193,405.664c-1,.7-2.138,1.785-1.715,2.931a101.913,101.913,0,0,1,20.612-6.341,2.351,2.351,0,0,0-1.973-2.065,35.791,35.791,0,0,0,6.38-3.867,1.754,1.754,0,0,0-1.674-1.207,5.119,5.119,0,0,0-2.135.522l-4.479,1.814c.319-.131.561-2.994.6-3.429-1.439.237-1.746,1.282-2.6,2.206a21.5,21.5,0,0,1-3.676,2.919Q124.863,402.408,120.193,405.664Z" transform="translate(-82.32 -379.682)" fill="#5e7c1e"/>
      <path id="Pfad_910" data-name="Pfad 910" d="M113.236,404.872a3.8,3.8,0,0,1,2.365-2.435c4.353-2.1,9.4-2.087,14.213-1.661,4.09.36,8.206.992,12.285.767a.572.572,0,0,1,.351,1.042l-1.284.888a31.751,31.751,0,0,1,3.526.189c-.056.9-1.42,1.156-2.179.938a2.045,2.045,0,0,0-1.507.123,1.26,1.26,0,0,0-.738,1.224.96.96,0,0,1-1.391.837A34.5,34.5,0,0,0,113.236,404.872Z" transform="translate(-89.626 -370.423)" fill="#5e7c1e"/>
    </g>
    <g id="Gruppe_334" data-name="Gruppe 334" transform="translate(15.314)">
      <path id="Pfad_911" data-name="Pfad 911" d="M143.074,400.839c-4.772,1.129-9.461,8.283-4.772,1.129s4.984-15.2,2.034-16.124-4.793,6.907-7.521,6.244,1.838-4.092-.368-5.323-9.161,23.717-10.585,21.577-.963-12.709,4.128-18.634,6.08-9.954,2.027-6.97-1.2-7.306-4.022-8.336-2.82,4.389-2.82,4.389-.9-2.83-1.528-2.389-.755,16.808-2.489,15.729-1.444-16.353-.261-19.645-2.687.544-3.669,2.646-3.753-7.741-6.559-7.212l-.027-.1c-2.721.868-.063,10.851-1.932,9.473s-7.1-2.9-4.486-.573,10.162,15.611,9.154,17.386-8.936-12.547-9.7-12.631-.2,2.827-.2,2.827S96.89,379.545,94.9,381.8s5.429,9.93.445,9.243-2.191,2.382,5.11,5.156,12.752,11.841,12.525,14.4-18.252-16.039-19.6-13.9,4.3,2.97,2.218,4.854-7.437-4.111-9.589-1.9,1.949,9.149,9.485,13.195,0,0-4.73,1.287,9.85-2.409,18.044,3.8c14.694,11.13,17.132,48.537,19.565,54.755a2.212,2.212,0,0,0,2.6,1.34h0a2.208,2.208,0,0,0,1.647-2.418c-.829-6.624-11.669-33.988-3.589-58.818C132.216,403.015,147.846,399.712,143.074,400.839Z" transform="translate(-85.439 -367.825)" fill="#668921"/>
      <path id="Pfad_912" data-name="Pfad 912" d="M97,390.849a29.141,29.141,0,0,1,4.435.786,13.452,13.452,0,0,1,3.587,2.186l6.058,4.629a1,1,0,0,0,1.374-1.429,41.062,41.062,0,0,0-7.577-6.747l-9.4-7.028a1.268,1.268,0,0,0-1.768.189c-.805,1.1,1.34,2.435.273,3.388-.757-.06-1.1-.646-2.522-1.458-4.31-4.513-4.073-.864-3.536.619.421,1.161,1.161,1.422,2.133,1.935A26.455,26.455,0,0,0,97,390.849Z" transform="translate(-82.317 -346.336)" fill="#5e7c1e"/>
      <path id="Pfad_913" data-name="Pfad 913" d="M105.767,392.155c.348.339.924.689,1.255.334-.135-1.337-1.2-2.358-2.167-3.3A44.826,44.826,0,0,1,97.051,379a4.726,4.726,0,0,0-1.021-1.412,1.509,1.509,0,0,0-1.628-.271.917.917,0,0,0-.2,1.458,28.971,28.971,0,0,0-3.424-3.335,2.06,2.06,0,0,0,.1,2.116,18.528,18.528,0,0,0,2.571,4.019,3.49,3.49,0,0,1,.9,1.48,1.027,1.027,0,0,1,.01.343,2.012,2.012,0,0,0,1.086,2.019C99.134,387.367,102.631,389.113,105.767,392.155Z" transform="translate(-78.231 -357.025)" fill="#5e7c1e"/>
      <path id="Pfad_914" data-name="Pfad 914" d="M102.193,396.307q2.909-6.947,5.819-13.9a2.47,2.47,0,0,1,.776-1.166.86.86,0,0,1,1.233.208,4.244,4.244,0,0,1,.111.866c.186.817,1.429.9,2.058.348a5.177,5.177,0,0,0,1.117-2.22c.29-.788.82-1.62,1.652-1.729,1.393-.181,2.089,1.712,1.874,3.1-.6,3.93-4.056,6.66-6.67,9.659-4.261,4.89-6.6,11.171-8.063,17.49.1-.455-1.378-2.771-1.557-3.439a9.736,9.736,0,0,1-.416-2.776C100.21,400.566,101.364,398.288,102.193,396.307Z" transform="translate(-64.609 -352.394)" fill="#5e7c1e"/>
      <path id="Pfad_915" data-name="Pfad 915" d="M101.689,394.272c.5,1.117,1.349,2.438,2.556,2.235a101.737,101.737,0,0,1-2.348-21.434,2.346,2.346,0,0,0-2.4,1.548,35.857,35.857,0,0,0-2.6-6.994,1.758,1.758,0,0,0-1.5,1.417,5.12,5.12,0,0,0,.114,2.2q.468,2.369.936,4.74c-.065-.339-2.834-1.117-3.255-1.233-.039,1.458.931,1.957,1.678,2.972a21.627,21.627,0,0,1,2.174,4.157Z" transform="translate(-74.441 -365.27)" fill="#5e7c1e"/>
      <path id="Pfad_916" data-name="Pfad 916" d="M100.511,404.523a3.806,3.806,0,0,1-1.947-2.784c-1.238-4.668-.278-9.625,1.045-14.271,1.125-3.947,2.52-7.869,3.067-11.92a.573.573,0,0,1,1.091-.148l.629,1.429a31.559,31.559,0,0,1,.851-3.429c.875.225.866,1.611.51,2.317a2.045,2.045,0,0,0-.164,1.5,1.259,1.259,0,0,0,1.064.955.961.961,0,0,1,.561,1.524A34.49,34.49,0,0,0,100.511,404.523Z" transform="translate(-67.635 -359.917)" fill="#5e7c1e"/>
    </g>
  </g>
</svg>
