<svg xmlns="http://www.w3.org/2000/svg" width="78.001" height="155.798" viewBox="0 0 78.001 155.798">
  <g id="Gruppe_898" data-name="Gruppe 898" transform="translate(72.649 -0.039) rotate(88)">
    <path id="Pfad_1339" data-name="Pfad 1339" d="M9.779,22.156c5.19,1.512,10.736.8,16.124,1.242,9.4.777,78.082,46.973,87.066,49.845,1.945.621,4.308,1.1,5.838-.253,2.056-1.818,1.034-5.324-.661-7.483C89.356,28.834,44.927,9.478,35.927,6.272,31.664,4.755,27.2,3.89,22.855,2.625a60.275,60.275,0,0,0-9.781-2.5C9.726-.266,6.117.222,3.462,2.3-4.212,8.307,2.2,19.952,9.779,22.156Z" transform="translate(33.401 0)" fill="#9e0103"/>
    <path id="Pfad_1340" data-name="Pfad 1340" d="M8.275,11.584c3.637.787,7.409.468,11.121.7,10.062.638,19.366,5.288,28.412,9.736,1.465.721,61.17,41.539,62.794,41.366,9.142-.973-62.962-46.694-66.119-48.5-2.357-1.348-4.8-2.537-7.245-3.726L25.9,5.648A76.537,76.537,0,0,0,18.1,2.2,38.3,38.3,0,0,0,6.325.009,8.586,8.586,0,0,0,2.909.432a4.312,4.312,0,0,0-2.3,6.225A11.776,11.776,0,0,0,8.275,11.584Z" transform="translate(35.588 6.017)" fill="#af060f"/>
    <path id="Pfad_1341" data-name="Pfad 1341" d="M3.023,4.569c1.1.064,2.191-.141,3.288-.134a22.717,22.717,0,0,1,5.123.969,33.309,33.309,0,0,0,6.147.892c.616.031,1.426-.107,1.515-.716a1.2,1.2,0,0,0-.4-.908c-1.735-1.946-4.319-2.89-6.849-3.519A41.181,41.181,0,0,0,4.955.048,6.854,6.854,0,0,0,1.574.417C-1.511,1.842.461,4.415,3.023,4.569Z" transform="translate(37.739 7.97)" fill="#f2bfc6"/>
    <path id="Pfad_1342" data-name="Pfad 1342" d="M17.078,10.589c.739.525,1.807,1.051,2.46.42a18.346,18.346,0,0,0-6.684-5.017c-.906-.4-1.842-.72-2.751-1.108C7.246,3.663,4.7,1.817,1.956.365.139-.6-.972.524,1.182,1.578c1.863.91,3.764,1.727,5.6,2.691A88.979,88.979,0,0,1,17.078,10.589Z" transform="translate(67.347 16.85)" fill="#f2bfc6"/>
    <path id="Pfad_1343" data-name="Pfad 1343" d="M44.84,32.227c.687.592,1.7,1.215,2.409.647a18.339,18.339,0,0,0-6.189-5.616c-.865-.479-1.768-.887-2.636-1.359C35.692,24.418,4.557,2.188,1.956.487.236-.638-.973.373,1.074,1.622c1.769,1.08,32.362,22.225,34.1,23.355A89.274,89.274,0,0,1,44.84,32.227Z" transform="translate(89.316 28.641)" fill="#f2bfc6"/>
    <path id="Pfad_1344" data-name="Pfad 1344" d="M2.983,2.874a19.521,19.521,0,0,0,3.823-.036c7.937-.439,61.333,28.716,79.01,43.285,6.135,5.056,12.8,9.424,18.379,15.086a4.917,4.917,0,0,1,1.352,1.913c.291.967.167,2.331,1.126,2.646a1.329,1.329,0,0,0,1.542-1.152,3.593,3.593,0,0,0-.5-2.092A27.532,27.532,0,0,0,97.243,50.555c-1.578-.929-3.266-1.657-4.882-2.519-1.766-.943-16.005-14.976-17.575-16.22C52.611,14.247,12.816.974,3.211.032,2.464-.042.03-.092,0,1.116-.027,2.227,2.2,2.763,2.983,2.874Z" transform="translate(39.581 0.882)" fill="#810203"/>
    <path id="Pfad_1345" data-name="Pfad 1345" d="M13.688,5.385c2.149.089,4.3.178,6.433.469a68.415,68.415,0,0,1,8.42,1.879c1.653.442,3.548,1.1,4.08,2.73a10.454,10.454,0,0,0,.484,1.87c.312.566,1.223.872,1.576.33A8.4,8.4,0,0,1,36.811,1.676c.58-.412,1.268-1.242.7-1.676-2.461,2.433-5.192,5-8.629,5.4a17.247,17.247,0,0,1-5.051-.468A88.566,88.566,0,0,0,1.32,3.715a1.713,1.713,0,0,0-1.043.316c-1.111,1,1.452.861,1.821.876,1.346.051,2.693.111,4.039.167Z" transform="translate(0 1.111)" fill="#618f42"/>
  </g>
</svg>
