<svg xmlns="http://www.w3.org/2000/svg" width="262.694" height="321.123" viewBox="0 0 262.694 321.123">
  <g transform="translate(39.409 322.327) rotate(-104)">
    <path id="Pfad_2363" data-name="Pfad 2363" d="M590.876,475.879c-23.43,3.912-46.724-5.835-70.235-9.231-4.234-.611-8.652-1-12.707.361-5.215,1.753-9.1,6.175-11.934,10.893a50.324,50.324,0,0,0-.014,50.647c-8.973-8.766-11.176-8.8-14.73-33.152-1.2-8.211-2.373-18.139-.378-26.193,2.864-11.563,14.9-18.966,26.739-20.265s23.622,2.207,35.038,5.608,23.262,6.775,35.071,5.212" transform="translate(-360.406 -294.325)" fill="#681" stroke="#566c11" stroke-miterlimit="10" stroke-width="0.75"/>
    <path id="Pfad_2364" data-name="Pfad 2364" d="M606.736,449.978q-18.676-1.755-37.455-2.009c-10.736-.144-21.682.115-31.852,3.558a53.84,53.84,0,0,0-35,40.662c.684-15.46,1.97-32.395,12.706-43.54,9.855-10.231,25.143-12.793,39.334-13.426A221.351,221.351,0,0,1,598.74,437.7" transform="translate(-398.896 -294.325)" fill="#681" stroke="#566c11" stroke-miterlimit="10" stroke-width="0.75"/>
    <path id="Pfad_2365" data-name="Pfad 2365" d="M621.153,436.255l-21.8-6.869c-11.571-3.647-23.424-7.333-35.548-6.877-22.489.847-43.47,17.6-49.278,39.339-.125-8.543-.094-17.2,2.035-25.469s6.59-16.247,13.7-20.979c6.951-4.624,15.643-5.716,23.99-5.9a134.06,134.06,0,0,1,56.161,11.047" transform="translate(-425.369 -294.325)" fill="#681" stroke="#566c11" stroke-miterlimit="10" stroke-width="0.75"/>
    <path id="Pfad_2366" data-name="Pfad 2366" d="M628.167,406.786c-23.041-4.877-48.14-8.5-69.263,1.919-4.434,2.187-2.392,5.1-5.329,9.081-3.172,4.3-6.326,24.9-11.2,27.074,2.484-10.521.5-36.807,9.142-43.3a38.213,38.213,0,0,1,12-5.558,103.84,103.84,0,0,1,48.743-2.814" transform="translate(-460.266 -294.325)" fill="#681" stroke="#566c11" stroke-miterlimit="10" stroke-width="0.75"/>
    <path id="Pfad_2367" data-name="Pfad 2367" d="M637.072,385.8c-5.078-.369-10.094-1.473-15.184-1.582-12.395-.267-28.516,2.874-38.033,10.82s-12.777,20.612-20.108,30.611c3.012-7.566,3.377-20,5.983-27.711,3.3-9.785,10.578-13.6,19.886-18.07s19.779-6.012,30.1-6.265" transform="translate(-490.546 -294.325)" fill="#681" stroke="#566c11" stroke-miterlimit="10" stroke-width="0.75"/>
    <path id="Pfad_2368" data-name="Pfad 2368" d="M650.546,367.653c-13.4-.97-27.434,1.306-38.521,8.886s-18.609,21.1-16.721,34.392q-1.334-7.418-1.971-14.937c-.4-4.656-.556-9.514,1.267-13.815s5.415-7.554,9.169-10.307a72.519,72.519,0,0,1,34.085-13.451,1.271,1.271,0,0,0-.531-1.647" transform="translate(-533.352 -294.325)" fill="#681" stroke="#566c11" stroke-miterlimit="10" stroke-width="0.75"/>
    <path id="Pfad_2369" data-name="Pfad 2369" d="M669.9,352.844c-8.706.366-17.473.739-25.96,2.717s-16.772,5.678-22.908,11.865c-3.036,3.062-5.553,6.822-6.3,11.067-.376,2.12-.3,4.3-.669,6.419-.343-5.373-.67-10.886.912-16.033,2.414-7.85,9.056-13.836,16.472-17.366s15.632-4.941,23.729-6.316" transform="translate(-573.393 -294.325)" fill="#681" stroke="#566c11" stroke-miterlimit="10" stroke-width="0.75"/>
    <path id="Pfad_2370" data-name="Pfad 2370" d="M689.671,343.514c-14.131,1.763-29.264-2.962-42.309,2.749a28.4,28.4,0,0,0-7.6,4.9c-5.627,5.067-9.13,13.057-7.13,20.36-3.6-9.341-.643-20.479,6.152-27.831s16.886-11.132,26.887-11.584a12.68,12.68,0,0,0,3.894-.533" transform="translate(-610.487 -294.325)" fill="#681" stroke="#566c11" stroke-miterlimit="10" stroke-width="0.75"/>
    <path id="Pfad_2371" data-name="Pfad 2371" d="M706.5,331.413a57.475,57.475,0,0,1-19.691.435c-4.882-.741-9.758-2.117-14.674-1.653a20.184,20.184,0,0,0-15.725,10.6,43.3,43.3,0,0,1,21.429-17.005c4.037-1.459,8.442-2.307,12.63-1.363" transform="translate(-652.645 -294.325)" fill="#681" stroke="#566c11" stroke-miterlimit="10" stroke-width="0.75"/>
    <path id="Pfad_2372" data-name="Pfad 2372" d="M710.231,321.066,696.07,316.49c-7.369-2.381-16.049-4.588-22.344-.077a19.224,19.224,0,0,1,13.563-5.8,30.593,30.593,0,0,1,14.551,3.619c3.725,1.88,7.436,4.658,8.433,8.71" transform="translate(-673.726 -294.325)" fill="#681" stroke="#566c11" stroke-miterlimit="10" stroke-width="0.75"/>
    <path id="Pfad_2373" data-name="Pfad 2373" d="M438.039,473.444c4.441-4.633,9.06-9.584,10.514-15.835,1.506-6.472-.643-13.342.658-19.858,1.808-9.053,10.438-15.835,19.6-16.965s18.466,2.708,25.394,8.81c-5.739-6.925-15.652-8.735-24.637-8.363-11.139.461-22.364,3.694-31.211,10.477s-15.058,17.353-15.267,28.5" transform="translate(-207.024 -294.325)" fill="#681" stroke="#566c11" stroke-miterlimit="10" stroke-width="0.75"/>
    <path id="Pfad_2374" data-name="Pfad 2374" d="M458.814,451.467c-8.7-14.274-3.919-34.146,8.249-45.6s29.976-15.384,46.628-13.937a28.569,28.569,0,0,0-16.545-3.563,49.156,49.156,0,0,0-13.436,3.693c-10.287,4.06-20.35,9.162-28.43,16.712s-14.055,17.81-14.692,28.85l.615-3.341" transform="translate(-244.006 -294.325)" fill="#681" stroke="#566c11" stroke-miterlimit="10" stroke-width="0.75"/>
    <path id="Pfad_2375" data-name="Pfad 2375" d="M505.371,430.889a65.712,65.712,0,0,1,1.728-30.371,21.953,21.953,0,0,1,3.916-8.066,8.64,8.64,0,0,1,14.9,1.323,23.184,23.184,0,0,1,2.547,8.483,28.829,28.829,0,0,0-6.009-19.783,13.452,13.452,0,0,0-6.147-4.788c-4.095-1.323-8.573.539-12.015,3.122A30.141,30.141,0,0,0,493.2,397.627c-1.808,7.42-.715,15.206.5,22.745.738-.3,2.821,2.461,2.334,1.832" transform="translate(-310.514 -294.325)" fill="#681" stroke="#566c11" stroke-miterlimit="10" stroke-width="0.75"/>
    <path id="Pfad_2376" data-name="Pfad 2376" d="M513.624,412.274a187.713,187.713,0,0,1,.75-32.459c.574-5.208,2.125-10.23,5.664-14.094a25.651,25.651,0,0,1,7.441-5.84c6.363-3.189,19.958-3.618,20.332-4.753,0,0-14.285-1.85-22.374,1.135-4.186,1.544-7.25,2.351-10.5,5.407-4.914,4.616-10.8,16.853-11.969,23.494-1.361,7.748-2.695,13.517-.183,19.775l-.011-3.995" transform="translate(-338.907 -294.325)" fill="#681" stroke="#566c11" stroke-miterlimit="10" stroke-width="0.75"/>
    <path id="Pfad_2377" data-name="Pfad 2377" d="M540.042,387.592c-3.943-14,1.976-30.2,14.011-38.364,6.39-4.333,14.048-6.432,21.69-7.53-7.978,1.3-15.754.684-23.33,3.5s-15.015,9.192-19.782,15.719c-4.4,6.032-6.49,13.418-8.126,20.705l-.024-2.677" transform="translate(-389.951 -294.325)" fill="#681" stroke="#566c11" stroke-miterlimit="10" stroke-width="0.75"/>
    <path id="Pfad_2378" data-name="Pfad 2378" d="M568.328,371.88a30.89,30.89,0,0,1-4.984-20.255c1.307-12.223,6.639-18.373,17.561-24.014,4.619-2.386,18.464-6.5,18.464-6.5-17.964-2.019-27.956,4.7-39.341,13.168a25.493,25.493,0,0,0-4.119,3.6c-5.693,6.534-4.359,16.4-2.691,24.909" transform="translate(-440.875 -294.325)" fill="#681" stroke="#566c11" stroke-miterlimit="10" stroke-width="0.75"/>
    <path id="Pfad_2379" data-name="Pfad 2379" d="M600.233,356.263a34.205,34.205,0,0,1,10.593-46.418,14.546,14.546,0,0,1,7.788-2.777c3.55.014,6.735,2.047,9.693,4.008-10.955-11.632-24.91-5.208-34.6,2.431s-14.55,20.5-13.841,32.82" transform="translate(-497.827 -294.325)" fill="#681" stroke="#566c11" stroke-miterlimit="10" stroke-width="0.75"/>
    <path id="Pfad_2380" data-name="Pfad 2380" d="M635.118,341.337c-5.249-9.008-7.82-20.08-4.638-30.009s13.105-17.957,23.472-16.85a44.237,44.237,0,0,0-33.539,11.607,18.944,18.944,0,0,0-4.83,6.419,17.835,17.835,0,0,0-1.144,6.228,34.111,34.111,0,0,0,3.28,15.65" transform="translate(-558.102 -294.325)" fill="#681" stroke="#566c11" stroke-miterlimit="10" stroke-width="0.75"/>
    <path id="Pfad_2381" data-name="Pfad 2381" d="M668.993,329.913c-3.107-4.938-10.579-10.2-9.675-15.969.492-3.138,3.846-5.822,6.667-9.238a86.434,86.434,0,0,0,7.292-9.372l-14.583,7.525a15.358,15.358,0,0,0-4.137,2.738c-2.262,2.338-2.806,5.841-2.771,9.094a34.3,34.3,0,0,0,1.13,8.365" transform="translate(-614.788 -294.325)" fill="#681" stroke="#566c11" stroke-miterlimit="10" stroke-width="0.75"/>
    <path id="Pfad_2382" data-name="Pfad 2382" d="M677.185,532.133c-50.118-94.435-134.1-170.441-233.047-210.922" transform="translate(-411.05 -294.325)" fill="none" stroke="#566c11" stroke-miterlimit="10" stroke-width="2"/>
  </g>
</svg>
