<svg xmlns="http://www.w3.org/2000/svg" width="96.649" height="97.283" viewBox="0 0 96.649 97.283">
  <g id="Gruppe_284" data-name="Gruppe 284" transform="translate(78.631 -14.124) rotate(76)">
    <g id="Gruppe_276" data-name="Gruppe 276" transform="translate(35.702)">
      <g id="Gruppe_273" data-name="Gruppe 273" transform="translate(2.818 14.061)">
        <path id="Pfad_749" data-name="Pfad 749" d="M172.692,30.542q-3.805,2.3-7.541,4.707a11.4,11.4,0,0,1-2.558,3.427q-20.805,19.878-42.7,38.57c1.049,1.8,2.182,3.492,2.39,3.316q24.656-20.814,48-43.118C172.221,35.595,174.275,32.7,172.692,30.542Z" transform="translate(-118.009 -30.542)" fill="#668e50"/>
        <path id="Pfad_750" data-name="Pfad 750" d="M165.792,33.648Q152.473,42.2,140.031,52.039q-7.868,6.224-15.337,12.93c-1.888,1.7-5.9,4.183-6.044,6.706a15.888,15.888,0,0,0,1.884,3.969q21.865-18.707,42.7-38.57A11.4,11.4,0,0,0,165.792,33.648Z" transform="translate(-118.65 -28.941)" fill="#71a15a"/>
      </g>
      <g id="Gruppe_274" data-name="Gruppe 274" transform="translate(0 32.414)">
        <path id="Pfad_751" data-name="Pfad 751" d="M176.4,42.652q-4.085,1.75-8.119,3.622a11.377,11.377,0,0,1-3.005,3.04q-23.349,16.82-47.612,32.316c.79,1.932,1.681,3.759,1.91,3.613q27.293-17.216,53.492-36.088C175.237,47.593,177.671,45.006,176.4,42.652Z" transform="translate(-116.339 -42.652)" fill="#668e50"/>
        <path id="Pfad_752" data-name="Pfad 752" d="M168.733,45.042q-14.372,6.64-28.051,14.663-8.65,5.081-16.974,10.694c-2.1,1.419-6.415,3.328-6.911,5.808a15.923,15.923,0,0,0,1.319,4.192q24.236-15.513,47.612-32.316A11.377,11.377,0,0,0,168.733,45.042Z" transform="translate(-116.79 -41.42)" fill="#71a15a"/>
      </g>
      <g id="Gruppe_275" data-name="Gruppe 275" transform="translate(5.651)">
        <path id="Pfad_753" data-name="Pfad 753" d="M152.585,21.264q-2.321,2.542-4.589,5.179a12.183,12.183,0,0,1-1.411,3.472q-12.112,20.753-25.035,40.5c.835,1.587,1.717,3.055,1.84,2.87q14.574-22.019,28.165-45.305C152.68,26.055,153.8,23.128,152.585,21.264Z" transform="translate(-119.987 -21.264)" fill="#668e50"/>
        <path id="Pfad_754" data-name="Pfad 754" d="M148.528,24.681q-8.088,9.375-15.495,19.856-4.683,6.633-9.067,13.681c-1.108,1.782-3.548,4.519-3.443,6.9a17.356,17.356,0,0,0,1.559,3.536q12.9-19.759,25.035-40.5A12.183,12.183,0,0,0,148.528,24.681Z" transform="translate(-120.519 -19.502)" fill="#71a15a"/>
      </g>
    </g>
    <g id="Gruppe_283" data-name="Gruppe 283" transform="translate(0 12.1)">
      <circle id="Ellipse_23" data-name="Ellipse 23" cx="34.949" cy="34.949" r="34.949" transform="matrix(0.165, -0.986, 0.986, 0.165, 0, 68.938)" fill="#a7b02c"/>
      <g id="Gruppe_282" data-name="Gruppe 282" transform="translate(2.574 2.574)">
        <circle id="Ellipse_24" data-name="Ellipse 24" cx="31.119" cy="31.119" r="31.119" transform="translate(0 60.427) rotate(-76.146)" fill="#e6ee61"/>
        <g id="Gruppe_281" data-name="Gruppe 281" transform="translate(9.813 9.812)">
          <g id="Gruppe_277" data-name="Gruppe 277">
            <path id="Pfad_755" data-name="Pfad 755" d="M139.123,45.978a28.22,28.22,0,0,0-4.521-4.521,2.385,2.385,0,0,0-3.565.643l-5.745,9.951a2.37,2.37,0,0,0,3.237,3.237l9.951-5.745A2.385,2.385,0,0,0,139.123,45.978Z" transform="translate(-89.262 -35.614)" fill="#c6d63c"/>
            <path id="Pfad_756" data-name="Pfad 756" d="M125.293,64.545l5.745,9.952a2.384,2.384,0,0,0,3.565.641,28.221,28.221,0,0,0,4.521-4.521,2.385,2.385,0,0,0-.643-3.565l-9.951-5.745A2.37,2.37,0,0,0,125.293,64.545Z" transform="translate(-89.262 -25.277)" fill="#c6d63c"/>
            <path id="Pfad_757" data-name="Pfad 757" d="M119.788,37.444a27.839,27.839,0,0,0-6.3,1.676,2.384,2.384,0,0,0-1.218,3.405l5.748,9.957a2.37,2.37,0,0,0,4.422-1.185V39.8A2.356,2.356,0,0,0,119.788,37.444Z" transform="translate(-95.966 -37.42)" fill="#c6d63c"/>
            <path id="Pfad_758" data-name="Pfad 758" d="M125.112,52.483l5.748-9.957a2.383,2.383,0,0,0-1.217-3.405,27.86,27.86,0,0,0-6.3-1.676,2.355,2.355,0,0,0-2.655,2.354V51.3A2.369,2.369,0,0,0,125.112,52.483Z" transform="translate(-91.463 -37.42)" fill="#c6d63c"/>
            <path id="Pfad_759" data-name="Pfad 759" d="M105.443,70.617a28.22,28.22,0,0,0,4.521,4.521,2.384,2.384,0,0,0,3.565-.641l5.745-9.952a2.37,2.37,0,0,0-3.237-3.237l-9.951,5.745A2.384,2.384,0,0,0,105.443,70.617Z" transform="translate(-99.6 -25.277)" fill="#c6d63c"/>
            <path id="Pfad_760" data-name="Pfad 760" d="M119.274,52.051,113.528,42.1a2.385,2.385,0,0,0-3.565-.643,28.22,28.22,0,0,0-4.521,4.521,2.384,2.384,0,0,0,.643,3.565l9.951,5.745A2.37,2.37,0,0,0,119.274,52.051Z" transform="translate(-99.6 -35.614)" fill="#c6d63c"/>
            <path id="Pfad_761" data-name="Pfad 761" d="M118.021,64.644,112.273,74.6a2.384,2.384,0,0,0,1.218,3.405,27.918,27.918,0,0,0,6.3,1.676,2.357,2.357,0,0,0,2.655-2.354v-11.5A2.37,2.37,0,0,0,118.021,64.644Z" transform="translate(-95.966 -23.999)" fill="#c6d63c"/>
            <path id="Pfad_762" data-name="Pfad 762" d="M128.627,61.128l9.957,5.748a2.383,2.383,0,0,0,3.405-1.217,27.88,27.88,0,0,0,1.676-6.3,2.356,2.356,0,0,0-2.354-2.657h-11.5A2.37,2.37,0,0,0,128.627,61.128Z" transform="translate(-87.985 -27.478)" fill="#c6d63c"/>
            <path id="Pfad_763" data-name="Pfad 763" d="M116.468,54.037l-9.957-5.748a2.384,2.384,0,0,0-3.407,1.217,27.937,27.937,0,0,0-1.675,6.3,2.354,2.354,0,0,0,2.352,2.655h11.5A2.369,2.369,0,0,0,116.468,54.037Z" transform="translate(-101.405 -31.981)" fill="#c6d63c"/>
            <path id="Pfad_764" data-name="Pfad 764" d="M129.812,58.458h11.5a2.355,2.355,0,0,0,2.354-2.655,27.859,27.859,0,0,0-1.676-6.3,2.383,2.383,0,0,0-3.405-1.217l-9.957,5.748A2.369,2.369,0,0,0,129.812,58.458Z" transform="translate(-87.985 -31.981)" fill="#c6d63c"/>
            <path id="Pfad_765" data-name="Pfad 765" d="M115.282,56.706h-11.5a2.355,2.355,0,0,0-2.352,2.657,27.958,27.958,0,0,0,1.675,6.3,2.385,2.385,0,0,0,3.407,1.217l9.957-5.748A2.37,2.37,0,0,0,115.282,56.706Z" transform="translate(-101.405 -27.478)" fill="#c6d63c"/>
            <path id="Pfad_766" data-name="Pfad 766" d="M120.691,65.827v11.5a2.356,2.356,0,0,0,2.655,2.354,27.94,27.94,0,0,0,6.3-1.676A2.383,2.383,0,0,0,130.86,74.6l-5.748-9.957A2.369,2.369,0,0,0,120.691,65.827Z" transform="translate(-91.463 -23.999)" fill="#c6d63c"/>
          </g>
          <g id="Gruppe_280" data-name="Gruppe 280" transform="translate(1.256 0.213)">
            <g id="Gruppe_278" data-name="Gruppe 278">
              <path id="Pfad_767" data-name="Pfad 767" d="M109.249,47.207c-.9-.974-1.869-3.1-1.509-3.6.512-.3,1.587,1.831,2.379,2.745.177.2.521.408.673.183a.453.453,0,0,0-.017-.4c-.109-.3-.5-.638-.327-.9.315-.018.5.338.633.623s.385.837.653.671c.306.047-.227-.988-.052-1.109.17-.538,3.481,3.9,4.644,6.22a.47.47,0,0,1,.059.424c-.086.155-.3.162-.477.138a6.513,6.513,0,0,1-2.323-.987c-1.315-.787-2.561-1.7-3.889-2.461-.85-.488-1.646-.843-1.919-1.887C108.086,46.437,108.762,47.091,109.249,47.207Z" transform="translate(-99.436 -34.459)" fill="#dae239"/>
              <path id="Pfad_768" data-name="Pfad 768" d="M121.133,50.616a2.259,2.259,0,0,0,0,1.176.9.9,0,0,0,.959.6,1.271,1.271,0,0,0,.735-.68,41.914,41.914,0,0,0,4.451-10.392c.224-.815.368-1.816-.3-2.381a.56.56,0,0,0-.382-.156c-.261.015-.4.282-.5.512q-.627,1.562-1.253,3.125c-.129.317-.464.7-.759.509-.52-.343,1.737-4.413,1.011-5.371-1.506.982-1.835,4.03-2.279,5.636Q121.809,46.871,121.133,50.616Z" transform="translate(-92.532 -37.561)" fill="#dae239"/>
              <path id="Pfad_769" data-name="Pfad 769" d="M114.292,74.545c-.279.688-.414,1.679.341,1.95a2.313,2.313,0,0,1,.971-1.055l.427,2.3a.519.519,0,0,0,.241.421c.32.142.58-.273.644-.59l1.334-6.606c.9,1.1-.208,3.013.964,3.884a33.952,33.952,0,0,0,1.093-9.887c-.086-2.288-2.425,1.537-2.611,1.947C116.538,69.451,115.335,71.964,114.292,74.545Z" transform="translate(-96.132 -23.808)" fill="#dae239"/>
              <path id="Pfad_770" data-name="Pfad 770" d="M122.962,77.013a2.163,2.163,0,0,0,.4.981.759.759,0,0,0,.955.2c1.147-.289-1.29-7.043-.02-6.5.232,1,.849,2.755,1.409,2.693.676.45.311-1.7-.012-2.493.229-.608,2.029,2.078,2.241,1.143.317-.637-2.582-4.777-2.852-5.4-.364-.849-.741-1.731-1.161-2.59a1.343,1.343,0,0,0-2.546.4C120.959,69.211,122.327,74.118,122.962,77.013Z" transform="translate(-92.407 -23.788)" fill="#dae239"/>
              <path id="Pfad_771" data-name="Pfad 771" d="M113.817,39.411c.432-.477.6.874.9,1.312a3.942,3.942,0,0,1,.409-1.481c.438-.35.727,2.554,1.423,3.722.458-1.472-.617-3.146.182-4.509.576-.283.4,2.073.887,3.033.22-.523.258-1.476.659-1.566.443-.189.4,1.008.608,1.512l.618-1.269c1.1-.953,1.523,11.071.815,11.138a2.04,2.04,0,0,1-1.682-.535,4.531,4.531,0,0,1-.935-1.376q-1.419-2.794-2.84-5.586c-.332-.652-.72-1.3-.99-1.97C113.5,40.9,113.353,39.614,113.817,39.411Z" transform="translate(-96.413 -37.112)" fill="#dae239"/>
              <path id="Pfad_772" data-name="Pfad 772" d="M137.124,65.29a2.829,2.829,0,0,0,1.517.312c.515-.091.994-.6.846-1.1s-.764-.668-1.27-.809a6.884,6.884,0,0,1-2.531-1.312c-.226-.185-.459-.48-.32-.735.115-.211.4-.233.644-.226a21.654,21.654,0,0,1,3.521.4c.426.085,1.02.082,1.117-.341.1-.45-.508-.7-.97-.721s-1.076-.133-1.112-.594q.787-.3,1.573-.588a.278.278,0,0,0,.17-.118c.052-.111-.053-.227-.155-.292a4.332,4.332,0,0,0-2.147-.349c-1.82-.1-8.743-3.856-8.923.106C128.94,62.044,134.872,64.369,137.124,65.29Z" transform="translate(-88.395 -27.482)" fill="#dae239"/>
              <path id="Pfad_773" data-name="Pfad 773" d="M126.288,50.762a1.18,1.18,0,0,0-.312.926.875.875,0,0,0,.7.559,3.078,3.078,0,0,0,1.973-.477,45.807,45.807,0,0,0,8.46-5.562c.406-.336.835-.924.49-1.323-.33-.382-.946-.091-1.352.208a44.8,44.8,0,0,1-6.449,3.94c-.288-.553.247-1.164.73-1.559l2.658-2.17a1.406,1.406,0,0,0,.621-.867c.229-2.532-3.372,1.114-3.549,1.315A61.3,61.3,0,0,0,126.288,50.762Z" transform="translate(-90.005 -34.476)" fill="#dae239"/>
              <path id="Pfad_774" data-name="Pfad 774" d="M129.527,53.7a3.075,3.075,0,0,0-1.1.817,1.076,1.076,0,0,0-.056,1.281,1.551,1.551,0,0,0,1,.423,36.619,36.619,0,0,0,10.36.145c.6-.077,1.322-.283,1.443-.873l-3.643-.773,3.377-1.265a2.423,2.423,0,0,0,1.267-.815.4.4,0,0,0,.052-.432.47.47,0,0,0-.356-.149,9.317,9.317,0,0,0-3.343.279,4.28,4.28,0,0,1-2.475.277c.63-.924,1.855-1.167,2.876-1.625.794-.356.033-1.087-.5-1.226-.73-.191-2.105.712-2.742.988Q132.547,52.1,129.527,53.7Z" transform="translate(-88.856 -31.286)" fill="#dae239"/>
              <path id="Pfad_775" data-name="Pfad 775" d="M104.249,52.924c-.035.206-.27.3-.47.361a2.917,2.917,0,0,0-1.129.549,1.108,1.108,0,0,0-.371,1.135c.191.561.882.741,1.467.826a52.207,52.207,0,0,0,9.417.517c.627-.023,1.414-.186,1.543-.8.1-.468-.274-.9-.629-1.218a33.916,33.916,0,0,0-5.9-4.145c-1.341-.784-2.714-1.265-3.892-.088a5.083,5.083,0,0,0-1.044,1.908C103.319,52.43,104.328,52.466,104.249,52.924Z" transform="translate(-102.234 -31.482)" fill="#dae239"/>
              <path id="Pfad_776" data-name="Pfad 776" d="M106.527,68.043a2.169,2.169,0,0,0-.624,1.031.8.8,0,0,0,.556.943c.593.091,1.234-.7,1.681-.3.249.221.161.615.139.947a1.854,1.854,0,0,0,.2.949c.05.1.123.2.232.211a.361.361,0,0,0,.255-.115q1.589-1.309,3.148-2.658c-.052.3-.1.606-.156.908a1.775,1.775,0,0,0,1.523-.72,17.5,17.5,0,0,0,3.31-4.751c1.764-3.73-3.043-1.614-4.462-.873A21.3,21.3,0,0,0,106.527,68.043Z" transform="translate(-100.35 -24.787)" fill="#dae239"/>
              <path id="Pfad_777" data-name="Pfad 777" d="M103.626,64.2a1.235,1.235,0,0,1-.635-.006c-.518-.191-.536-.99-.155-1.391a2.555,2.555,0,0,1,1.517-.588,2.847,2.847,0,0,1-1.029-.7,1.08,1.08,0,0,1-.189-1.165,1.756,1.756,0,0,0,1.569-.837,5.1,5.1,0,0,1,.439-.787,2.017,2.017,0,0,1,1.193-.529c1.478-.285,9.549-1.361,7.666,1.834C112.416,62.721,106.4,63.72,103.626,64.2Z" transform="translate(-102.06 -27.131)" fill="#dae239"/>
              <path id="Pfad_778" data-name="Pfad 778" d="M131.125,72.215c.214.27.52.564.847.464.509-.156.373-1,.8-1.319.339-.258.821-.044,1.188.174.715,0,.194-1.153.7-1.426a2.587,2.587,0,0,1,1.675-.179c.42-.441-.033-1.146-.48-1.559-1.238-1.143-7.261-6.591-8.955-5.277C125.1,64.487,130.169,71.012,131.125,72.215Z" transform="translate(-89.719 -24.503)" fill="#dae239"/>
            </g>
            <g id="Gruppe_279" data-name="Gruppe 279" transform="translate(2.688 3.834)">
              <path id="Pfad_779" data-name="Pfad 779" d="M129.253,67.144a.722.722,0,0,0,.3.2.257.257,0,0,0,.3-.135.38.38,0,0,0,.009-.161c-.017-.209-.035-.42-.053-.629.823.026,1.44.867,2.261.923a2.074,2.074,0,0,0-1.032-1.5,10.87,10.87,0,0,0-3.84-2.046C126.848,64.722,128.623,66.556,129.253,67.144Z" transform="translate(-92.073 -27.875)" fill="#e5e54d"/>
              <path id="Pfad_780" data-name="Pfad 780" d="M108.926,65.376a1.885,1.885,0,0,0-.784,1.412.7.7,0,0,0,.535-.174c.547-.376,3.166-2.026,3.116-2.742C111.714,62.739,109.252,65.075,108.926,65.376Z" transform="translate(-101.879 -27.99)" fill="#e5e54d"/>
              <path id="Pfad_781" data-name="Pfad 781" d="M115.532,73.564c.023.144.129.335.261.271a.236.236,0,0,0,.1-.142c.126-.33.217-.674.309-1.017.43-1.619.862-3.24,1.165-4.888a.5.5,0,0,0-.006-.3.335.335,0,0,0-.379-.161.769.769,0,0,0-.368.239C115.341,68.905,115.267,71.872,115.532,73.564Z" transform="translate(-98.131 -26.052)" fill="#e5e54d"/>
              <path id="Pfad_782" data-name="Pfad 782" d="M109.86,68.012a.376.376,0,0,0,.421.1,1.079,1.079,0,0,0,.373-.268,30.237,30.237,0,0,0,2.716-3.01,6.542,6.542,0,0,0,.906-1.408.4.4,0,0,0,.045-.279c-.259-.824-2.42,1.45-2.657,1.761C111.276,65.42,109.474,67.477,109.86,68.012Z" transform="translate(-101.019 -28.297)" fill="#e5e54d"/>
              <path id="Pfad_783" data-name="Pfad 783" d="M118.121,48.354a.369.369,0,0,0,.173.147c.2.058.323-.2.355-.4a13.752,13.752,0,0,0-.341-4.678,4.292,4.292,0,0,0-.861-2.194.62.62,0,0,0-.58-.25c-.3.086-.346.485-.326.8a15.738,15.738,0,0,0,.291,2.129c-.562.05-.758-1-1.191-1.249C114.739,43.746,117.42,47.44,118.121,48.354Z" transform="translate(-98.106 -39.642)" fill="#e5e54d"/>
              <path id="Pfad_784" data-name="Pfad 784" d="M129.24,53.564c-.191.159-.389.414-.264.627a.555.555,0,0,0,.433.2,27.231,27.231,0,0,0,6.165.068,1.316,1.316,0,0,0,.556-.144.471.471,0,0,0,.242-.483,4.841,4.841,0,0,0-1.949-.165c-.535.064-1.162.189-1.543-.191.647-.823,1.954-.577,2.907-1.009a.286.286,0,0,0,.2-.286c-.644-.327-1.276,0-1.96.021-.529.012-1.031-.209-1.546-.208A5.575,5.575,0,0,0,129.24,53.564Z" transform="translate(-91.156 -33.955)" fill="#e5e54d"/>
              <path id="Pfad_785" data-name="Pfad 785" d="M105.78,60.44a3.309,3.309,0,0,0-.893,1.672c-.587,1.7,2.907-.638,4.29-1.2a5.587,5.587,0,0,0,2.743-1.816.312.312,0,0,0,.07-.209c-.02-.135-.183-.185-.318-.2a12.89,12.89,0,0,0-2.67,0l-2.34.162c-.693.048-2.19.149-2.351,1.079C104.181,60.685,105.259,60.964,105.78,60.44Z" transform="translate(-103.857 -30.541)" fill="#e5e54d"/>
              <path id="Pfad_786" data-name="Pfad 786" d="M112.528,55.106c.314-.03.706-.15.729-.465.015-.224-.18-.4-.361-.535a20.67,20.67,0,0,0-7.744-3.586c-.361-.083-.853-.088-.973.262-.088.256.106.52.311.7,1.052.924,2.593,1.056,3.757,1.834a.4.4,0,0,1,.153.153c.091.2-.158.388-.373.43a3.648,3.648,0,0,1-2.04-.529,1.888,1.888,0,0,0-1.979.073C105.531,55.33,110.352,55.321,112.528,55.106Z" transform="translate(-104.008 -34.739)" fill="#e5e54d"/>
              <path id="Pfad_787" data-name="Pfad 787" d="M121.232,47.9a2.559,2.559,0,0,0,.676,1.881,13.276,13.276,0,0,0,.8-9.334c-.058-.2-.124-.327-.339-.356C120.613,41.081,121.13,46.208,121.232,47.9Z" transform="translate(-95.206 -40.091)" fill="#e5e54d"/>
              <path id="Pfad_788" data-name="Pfad 788" d="M126.983,49.231c.258.682,1.722-.947,2.42-1.644a32.766,32.766,0,0,0,3.081-3.54,1.96,1.96,0,0,0,.432-.832.7.7,0,0,0-.389-.779.942.942,0,0,0-.72.138,9.178,9.178,0,0,0-2.937,2.807C128.542,45.836,126.722,48.5,126.983,49.231Z" transform="translate(-92.177 -38.898)" fill="#e5e54d"/>
            </g>
          </g>
        </g>
      </g>
    </g>
  </g>
</svg>
