<svg xmlns="http://www.w3.org/2000/svg" width="65.395" height="60.23" viewBox="0 0 65.395 60.23">
  <g id="Gruppe_902" data-name="Gruppe 902" transform="matrix(-0.208, 0.978, -0.978, -0.208, 70.318, 6.756)">
    <path id="Pfad_1441" data-name="Pfad 1441" d="M226.431,150.9c-2.623-15.377,6.147-29.7,19.589-31.995s26.466,8.313,29.09,23.69-6.147,29.7-19.589,32S229.054,166.28,226.431,150.9Z" transform="translate(-220.1 -114.81)" fill="#a4030b"/>
    <ellipse id="Ellipse_43" data-name="Ellipse 43" cx="22.475" cy="28.246" rx="22.475" ry="28.246" transform="translate(0 7.56) rotate(-9.682)" fill="#c81018"/>
    <g id="Gruppe_547" data-name="Gruppe 547" transform="translate(13.684 9.327)">
      <path id="Pfad_1442" data-name="Pfad 1442" d="M249.555,125.625c-1.625-2.344-3.722-4.608-6.817-5.034-4.8-.664-10.209,3.584-12.366,8.281s-1.85,9.616-1.237,14.2c.779,5.842,2.039,11.7,5.416,16.217,1.66,2.221,4.154,4.174,7.335,3.788,2.977-.36,5.687-2.664,7.749-5.06C259.939,146.042,256.3,135.35,249.555,125.625Z" transform="translate(-228.684 -120.522)" fill="none" stroke="#ff6540" stroke-miterlimit="10" stroke-width="1.433"/>
      <g id="Gruppe_536" data-name="Gruppe 536" transform="translate(17.776 16.985)">
        <path id="Pfad_1443" data-name="Pfad 1443" d="M234.864,128.642a8.1,8.1,0,0,0,2.123.187c.805-.034,1.795-.38,1.867-1.185a1.243,1.243,0,0,0-1.211-1.214,2.645,2.645,0,0,0-1.737.693c-.616.495-.65.834-1.041,1.519" transform="translate(-234.864 -126.427)" fill="#ff7957"/>
        <path id="Pfad_1444" data-name="Pfad 1444" d="M235.852,127.057a1.8,1.8,0,0,1,1.093-.42.71.71,0,0,1,.624.291.643.643,0,0,1-.227.8,1.668,1.668,0,0,1-.863.259,4.572,4.572,0,0,1-1.315-.009C235.122,127.627,235.585,127.264,235.852,127.057Z" transform="translate(-234.305 -126.033)" fill="#ff9280"/>
        <path id="Pfad_1445" data-name="Pfad 1445" d="M235.526,127.054a.163.163,0,0,0,.049.086.553.553,0,0,0,.3.121l.452.081c.535.095.67-.526.2-.679C236.317,126.6,235.491,126.8,235.526,127.054Z" transform="translate(-233.624 -126.007)" fill="#f9aea1"/>
      </g>
      <g id="Gruppe_537" data-name="Gruppe 537" transform="translate(17.935 25.951)">
        <path id="Pfad_1446" data-name="Pfad 1446" d="M234.921,129.544a8.091,8.091,0,0,0,.242,2.12c.2.782.733,1.68,1.533,1.594a1.248,1.248,0,0,0,.949-1.432,2.63,2.63,0,0,0-1.03-1.565,3.954,3.954,0,0,0-1.694-.716" transform="translate(-234.919 -129.544)" fill="#ff7957"/>
        <path id="Pfad_1447" data-name="Pfad 1447" d="M236.11,130.322a1.8,1.8,0,0,1,.633.987.718.718,0,0,1-.161.67.641.641,0,0,1-.828-.063,1.682,1.682,0,0,1-.426-.794,4.535,4.535,0,0,1-.256-1.289C235.406,129.718,235.854,130.1,236.11,130.322Z" transform="translate(-234.633 -129.042)" fill="#ff9280"/>
        <path id="Pfad_1448" data-name="Pfad 1448" d="M235.537,130.115a.178.178,0,0,0-.075.063.549.549,0,0,0-.058.319l.011.46c.014.541.65.549.7.055C236.144,130.8,235.779,130.032,235.537,130.115Z" transform="translate(-234.011 -128.484)" fill="#f9aea1"/>
      </g>
      <g id="Gruppe_538" data-name="Gruppe 538" transform="translate(4.941 15.005)">
        <path id="Pfad_1449" data-name="Pfad 1449" d="M234.236,128.162a8.094,8.094,0,0,0-1.326-1.671c-.578-.561-1.507-1.041-2.143-.544a1.246,1.246,0,0,0-.049,1.714,2.638,2.638,0,0,0,1.7.788,3.97,3.97,0,0,0,1.821-.288" transform="translate(-230.402 -125.739)" fill="#ff7957"/>
        <path id="Pfad_1450" data-name="Pfad 1450" d="M231.908,127.491a1.819,1.819,0,0,1-1.059-.509.705.705,0,0,1-.216-.65.643.643,0,0,1,.736-.388,1.69,1.69,0,0,1,.779.452,4.5,4.5,0,0,1,.9.961C232.825,127.629,232.241,127.54,231.908,127.491Z" transform="translate(-230.003 -125.373)" fill="#ff9280"/>
        <path id="Pfad_1451" data-name="Pfad 1451" d="M231.649,127.028a.152.152,0,0,0,.029-.092.549.549,0,0,0-.118-.3l-.253-.383c-.3-.454-.84-.127-.627.322C230.774,126.769,231.488,127.229,231.649,127.028Z" transform="translate(-229.972 -125.186)" fill="#f9aea1"/>
      </g>
      <g id="Gruppe_539" data-name="Gruppe 539" transform="translate(10.631 5.379)">
        <path id="Pfad_1452" data-name="Pfad 1452" d="M232.921,126.4a8.06,8.06,0,0,0,1.467-1.55c.475-.653.817-1.64.233-2.2a1.241,1.241,0,0,0-1.7.2,2.621,2.621,0,0,0-.538,1.792,3.94,3.94,0,0,0,.541,1.76" transform="translate(-232.38 -122.392)" fill="#ff7957"/>
        <path id="Pfad_1453" data-name="Pfad 1453" d="M232.578,124.039a1.81,1.81,0,0,1,.354-1.122.717.717,0,0,1,.613-.3.643.643,0,0,1,.489.673,1.69,1.69,0,0,1-.337.837,4.525,4.525,0,0,1-.826,1.024C232.572,124.966,232.578,124.376,232.578,124.039Z" transform="translate(-232.008 -121.986)" fill="#ff9280"/>
        <path id="Pfad_1454" data-name="Pfad 1454" d="M232.708,123.735a.135.135,0,0,0,.095.014.526.526,0,0,0,.279-.158l.345-.3c.408-.357.006-.851-.408-.575C232.838,122.831,232.487,123.6,232.708,123.735Z" transform="translate(-231.897 -121.945)" fill="#f9aea1"/>
      </g>
      <g id="Gruppe_540" data-name="Gruppe 540" transform="translate(3.488 20.222)">
        <path id="Pfad_1455" data-name="Pfad 1455" d="M234.063,128.334a8.086,8.086,0,0,0-2.011-.71c-.791-.167-1.832-.078-2.1.682a1.242,1.242,0,0,0,.872,1.478,2.64,2.64,0,0,0,1.855-.239c.719-.325.837-.647,1.386-1.211" transform="translate(-229.897 -127.552)" fill="#ff7957"/>
        <path id="Pfad_1456" data-name="Pfad 1456" d="M231.84,128.809a1.818,1.818,0,0,1-1.165.135.716.716,0,0,1-.532-.437.645.645,0,0,1,.42-.719,1.673,1.673,0,0,1,.9-.035,4.488,4.488,0,0,1,1.271.337C232.689,128.437,232.148,128.673,231.84,128.809Z" transform="translate(-229.469 -127.259)" fill="#ff9280"/>
        <path id="Pfad_1457" data-name="Pfad 1457" d="M231.428,128.4a.184.184,0,0,0-.023-.095.568.568,0,0,0-.262-.19l-.417-.19c-.492-.227-.779.342-.36.607C230.55,128.646,231.4,128.652,231.428,128.4Z" transform="translate(-229.396 -126.958)" fill="#f9aea1"/>
      </g>
      <g id="Gruppe_541" data-name="Gruppe 541" transform="translate(7.326 26.985)">
        <path id="Pfad_1458" data-name="Pfad 1458" d="M235.134,129.986a8.134,8.134,0,0,0-2.131-.023c-.8.1-1.76.515-1.772,1.323a1.247,1.247,0,0,0,1.3,1.119,2.634,2.634,0,0,0,1.68-.826,3.893,3.893,0,0,0,.923-1.594" transform="translate(-231.231 -129.903)" fill="#ff7957"/>
        <path id="Pfad_1459" data-name="Pfad 1459" d="M233.25,131.031a1.793,1.793,0,0,1-1.058.5.717.717,0,0,1-.644-.242.648.648,0,0,1,.164-.817,1.708,1.708,0,0,1,.843-.322,4.484,4.484,0,0,1,1.312-.092C233.935,130.407,233.5,130.8,233.25,131.031Z" transform="translate(-230.799 -129.643)" fill="#ff9280"/>
        <path id="Pfad_1460" data-name="Pfad 1460" d="M232.8,130.538a.164.164,0,0,0-.055-.083.521.521,0,0,0-.308-.095l-.457-.049c-.541-.055-.63.575-.144.693C232.043,131.056,232.848,130.789,232.8,130.538Z" transform="translate(-230.699 -129.145)" fill="#f9aea1"/>
      </g>
      <g id="Gruppe_542" data-name="Gruppe 542" transform="translate(10.694 31.393)">
        <path id="Pfad_1461" data-name="Pfad 1461" d="M234.775,131.436a8.008,8.008,0,0,0-1.648,1.352c-.552.59-1.015,1.527-.5,2.154a1.241,1.241,0,0,0,1.714.017,2.633,2.633,0,0,0,.757-1.711,3.912,3.912,0,0,0-.319-1.812" transform="translate(-232.402 -131.436)" fill="#ff7957"/>
        <path id="Pfad_1462" data-name="Pfad 1462" d="M234.138,132.849a1.807,1.807,0,0,1-.486,1.067.717.717,0,0,1-.647.23.645.645,0,0,1-.4-.731,1.641,1.641,0,0,1,.437-.788,4.512,4.512,0,0,1,.943-.915C234.261,131.932,234.184,132.516,234.138,132.849Z" transform="translate(-232.038 -130.916)" fill="#ff9280"/>
        <path id="Pfad_1463" data-name="Pfad 1463" d="M233.681,132.208a.167.167,0,0,0-.095-.029.572.572,0,0,0-.3.124l-.38.259c-.446.3-.109.846.337.621C233.436,133.088,233.882,132.363,233.681,132.208Z" transform="translate(-231.848 -130.042)" fill="#f9aea1"/>
      </g>
      <g id="Gruppe_543" data-name="Gruppe 543" transform="translate(15.006 29.972)">
        <path id="Pfad_1464" data-name="Pfad 1464" d="M234.059,130.942a8.135,8.135,0,0,0-.141,2.129c.055.805.42,1.786,1.225,1.841a1.245,1.245,0,0,0,1.188-1.237,2.633,2.633,0,0,0-.731-1.723c-.506-.6-.849-.63-1.542-1.01" transform="translate(-233.901 -130.942)" fill="#ff7957"/>
        <path id="Pfad_1465" data-name="Pfad 1465" d="M235.019,131.909a1.8,1.8,0,0,1,.443,1.087.7.7,0,0,1-.276.627.642.642,0,0,1-.805-.207,1.683,1.683,0,0,1-.276-.857,4.5,4.5,0,0,1-.02-1.317C234.432,131.192,234.806,131.647,235.019,131.909Z" transform="translate(-233.636 -130.387)" fill="#ff9280"/>
        <path id="Pfad_1466" data-name="Pfad 1466" d="M234.558,131.6a.162.162,0,0,0-.086.049.561.561,0,0,0-.112.3l-.072.455c-.083.535.541.659.682.181C235.033,132.375,234.811,131.556,234.558,131.6Z" transform="translate(-233.189 -129.718)" fill="#f9aea1"/>
      </g>
      <g id="Gruppe_544" data-name="Gruppe 544" transform="translate(18.046 22.414)">
        <path id="Pfad_1467" data-name="Pfad 1467" d="M234.958,128.9a8.053,8.053,0,0,0,1.588,1.427c.664.457,1.663.774,2.2.175a1.246,1.246,0,0,0-.239-1.7,2.628,2.628,0,0,0-1.806-.489,3.928,3.928,0,0,0-1.746.587" transform="translate(-234.958 -128.314)" fill="#ff7957"/>
        <path id="Pfad_1468" data-name="Pfad 1468" d="M236.359,128.512a1.8,1.8,0,0,1,1.128.322.709.709,0,0,1,.322.6.646.646,0,0,1-.662.506,1.708,1.708,0,0,1-.846-.314,4.666,4.666,0,0,1-1.047-.8C235.43,128.53,236.019,128.518,236.359,128.512Z" transform="translate(-234.403 -127.943)" fill="#ff9280"/>
        <path id="Pfad_1469" data-name="Pfad 1469" d="M235.74,128.64a.165.165,0,0,0-.012.1.533.533,0,0,0,.167.276l.314.337c.368.4.851-.017.564-.426C236.649,128.749,235.867,128.419,235.74,128.64Z" transform="translate(-233.517 -127.841)" fill="#f9aea1"/>
      </g>
      <g id="Gruppe_545" data-name="Gruppe 545" transform="translate(5.107 10.299)">
        <path id="Pfad_1470" data-name="Pfad 1470" d="M233.691,127.4a8.2,8.2,0,0,0-.69-2.016c-.36-.722-1.073-1.484-1.838-1.228a1.247,1.247,0,0,0-.621,1.6,2.638,2.638,0,0,0,1.34,1.306,3.872,3.872,0,0,0,1.809.337" transform="translate(-230.46 -124.102)" fill="#ff7957"/>
        <path id="Pfad_1471" data-name="Pfad 1471" d="M231.579,126.052a1.812,1.812,0,0,1-.828-.831.713.713,0,0,1,.014-.685.64.64,0,0,1,.823-.118,1.678,1.678,0,0,1,.587.685,4.522,4.522,0,0,1,.524,1.205C232.4,126.489,231.878,126.213,231.579,126.052Z" transform="translate(-230.065 -123.689)" fill="#ff9280"/>
        <path id="Pfad_1472" data-name="Pfad 1472" d="M231.443,125.581a.143.143,0,0,0,.058-.078.537.537,0,0,0-.012-.322l-.109-.446c-.127-.526-.751-.4-.7.095C230.7,125.046,231.225,125.717,231.443,125.581Z" transform="translate(-230.05 -123.552)" fill="#f9aea1"/>
      </g>
      <g id="Gruppe_546" data-name="Gruppe 546" transform="translate(17.233 10.521)">
        <path id="Pfad_1473" data-name="Pfad 1473" d="M234.841,127.84a8.189,8.189,0,0,0,1.812-1.125c.621-.515,1.205-1.384.78-2.071a1.246,1.246,0,0,0-1.7-.242,2.633,2.633,0,0,0-.972,1.6,3.949,3.949,0,0,0,.078,1.838" transform="translate(-234.675 -124.18)" fill="#ff7957"/>
        <path id="Pfad_1474" data-name="Pfad 1474" d="M235,125.563a1.81,1.81,0,0,1,.621-1,.717.717,0,0,1,.673-.141.642.642,0,0,1,.3.777,1.674,1.674,0,0,1-.535.725,4.571,4.571,0,0,1-1.056.782C234.758,126.458,234.91,125.888,235,125.563Z" transform="translate(-234.31 -123.784)" fill="#ff9280"/>
        <path id="Pfad_1475" data-name="Pfad 1475" d="M235.041,125.343a.135.135,0,0,0,.089.04.537.537,0,0,0,.314-.083l.408-.207c.486-.244.221-.823-.25-.662C235.4,124.5,234.863,125.162,235.041,125.343Z" transform="translate(-234.056 -123.76)" fill="#f9aea1"/>
      </g>
      <path id="Pfad_1476" data-name="Pfad 1476" d="M232.6,139.032c.883.4,2.045-.219,2.845.334a4.773,4.773,0,0,1,.846,1.084c1.844,2.318,5.373-.791,5.736-2.842a2.98,2.98,0,0,0-1.254-2.776,3.467,3.467,0,0,0-1.5-2.031,1.977,1.977,0,0,0-.219-.078c.236-.233.472-.466.687-.7a5.305,5.305,0,0,0,.765-5.983c-1.09-1.907-3.846-2.721-5.416-1.363a3.626,3.626,0,0,1-1.211.935c-.273.081-.572.055-.854.118-1.289.293-1.418,2.218-.78,3.466s1.746,2.258,2.126,3.6a4.878,4.878,0,0,1,.15.923c-.411.158-.874.259-1.274.426a3.039,3.039,0,0,0-1.47,4.033A1.816,1.816,0,0,0,232.6,139.032Z" transform="translate(-223.426 -113.998)" fill="#ff6540"/>
    </g>
  </g>
</svg>
