<svg xmlns="http://www.w3.org/2000/svg" xmlns:xlink="http://www.w3.org/1999/xlink" width="458.05" height="715.453" viewBox="0 0 458.05 715.453">
  <defs>
    <clipPath id="clip-path">
      <rect id="Rechteck_10" data-name="Rechteck 10" width="458.05" height="715.453" fill="none"/>
    </clipPath>
  </defs>
  <g id="Gruppe_905" data-name="Gruppe 905" transform="translate(-730.95 -181.818)">
    <g id="Gruppe_738" data-name="Gruppe 738" transform="translate(713.304 62.611)">
      <rect id="Rechteck_9" data-name="Rechteck 9" width="458.05" height="715.453" transform="translate(17.646 119.207)" fill="#f2b13e"/>
      <g id="Gruppe_724" data-name="Gruppe 724" transform="translate(17.646 119.207)" opacity="0.7">
        <g id="Gruppe_723" data-name="Gruppe 723" clip-path="url(#clip-path)">
          <g id="Gruppe_9" data-name="Gruppe 9" transform="translate(51.076 180.308)" opacity="0.25">
            <path id="Pfad_1" data-name="Pfad 1" d="M324.541,478.117a126.281,126.281,0,0,0,32.725,9.857s-21.425,21.83-47.556,16.2a80.093,80.093,0,0,1-14.133-4.47,80.057,80.057,0,0,1,4.491,14.086c5.648,26.051-16.25,47.405-16.25,47.405a125.25,125.25,0,0,0-9.89-32.617s4.951,48.6-37.672,89.415c-42.619-40.836-37.687-89.415-37.687-89.415a125.455,125.455,0,0,0-9.883,32.617s-21.891-21.354-16.24-47.405a80.162,80.162,0,0,1,4.466-14.048,79.714,79.714,0,0,1-14.029,4.428c-26.134,5.636-47.559-16.2-47.559-16.2a126.321,126.321,0,0,0,32.725-9.855s-48.74,4.927-89.7-37.551c40.963-42.474,89.7-37.544,89.7-37.544a126.331,126.331,0,0,0-32.725-9.858s21.425-21.823,47.556-16.193a80.427,80.427,0,0,1,14.011,4.415,79.967,79.967,0,0,1-4.466-14.039c-5.648-26.048,16.254-47.4,16.254-47.4v.089l.085-.089a125.257,125.257,0,0,0,9.77,32.348c-.291-3.736-3.167-49.982,37.707-89.139l.054.043.043-.043c40.861,39.157,38,85.4,37.683,89.139a125.254,125.254,0,0,0,9.768-32.348l.085.089v-.089s21.9,21.355,16.251,47.405a79.921,79.921,0,0,1-4.468,14.048,79.843,79.843,0,0,1,14.03-4.424c26.134-5.629,47.556,16.194,47.556,16.194a126.33,126.33,0,0,0-32.725,9.858s48.762-4.934,89.725,37.54C373.281,483.044,324.541,478.117,324.541,478.117ZM236.3,485.39a44.777,44.777,0,0,0,38.124-68.43A43.416,43.416,0,0,0,259.072,402c-.871-.518-1.779-1-2.675-1.453a44.813,44.813,0,1,0-20.1,84.842Zm0-152.752c-1.01.444-37.145,16.722-26.6,55.036.355-.189.743-.355,1.113-.535.25-.121.492-.253.752-.355.779-.355,1.555-.709,2.349-1.043.458-.184.932-.333,1.39-.507s.89-.355,1.339-.49c.612-.216,1.21-.472,1.828-.663h0c-1.355-9.067-2.167-30.744,17.795-42.776l.044.031.053-.031c19.931,12.035,19.126,33.7,17.77,42.768.622.2,1.21.444,1.816.66.473.163.95.354,1.423.518,1.242.475,2.491.976,3.691,1.536.248.11.5.241.75.354.356.174.744.355,1.107.529C273.434,349.352,237.306,333.082,236.3,332.638ZM183.221,467.145l-.036-.081c-.4-.784-.786-1.553-1.138-2.359s-.733-1.71-1.068-2.572-.622-1.646-.907-2.483c-.157-.458-.356-.894-.5-1.362-9.15,1.348-30.771,2.086-42.8-17.736,12.032-19.808,33.657-19.066,42.8-17.736.12-.355.277-.709.4-1.064.355-1.032.712-2.054,1.124-3.064.277-.692.551-1.387.855-2.071.405-.894.84-1.774,1.278-2.654-38.936-10.6-55.164,26.577-55.164,26.577S144.274,477.763,183.221,467.145ZM262.9,493.467c-.356.188-.744.354-1.114.532-.248.124-.5.251-.75.355-1.21.557-2.445,1.063-3.691,1.536-.473.18-.95.354-1.423.518-.63.223-1.242.489-1.894.692,1.355,9.081,2.135,30.708-17.795,42.741-19.931-12.04-19.126-33.7-17.77-42.766-.624-.2-1.211-.45-1.816-.667-.473-.164-.95-.334-1.423-.518-1.242-.473-2.491-.979-3.687-1.536-.26-.11-.5-.238-.752-.355-.4-.188-.793-.355-1.192-.568-10.72,38.885,26.643,55.089,26.643,55.089S273.6,532.327,262.9,493.467Zm81.643-52.9s-16.233-37.179-55.164-26.576l.035.081c.4.784.787,1.561,1.139,2.359.38.855.733,1.71,1.067,2.575s.63,1.646.915,2.483c.157.458.356.894.5,1.356,9.14-1.335,30.771-2.079,42.8,17.736-12.034,19.811-33.665,19.073-42.815,17.736a57.377,57.377,0,0,1-3.656,8.868C328.317,477.763,344.546,440.566,344.546,440.566Z" transform="translate(-58.346 -263.155)" fill="#fff"/>
            <path id="Pfad_2" data-name="Pfad 2" d="M203.761,391.055h-.1c-.609,0-1.2.04-1.779.093a17.726,17.726,0,0,0-3.412.709,13.91,13.91,0,0,0-1.63.575,17.626,17.626,0,0,0-5.552,3.731c-.4.394-.773.813-1.128,1.242a17.34,17.34,0,0,0-4,11.088h0a17.263,17.263,0,0,0,2.648,9.187c.188.313.388.607.59.906a18.956,18.956,0,0,0,1.884,2.245,18.655,18.655,0,0,0,2.253,1.876c.295.205.6.4.9.585a17.391,17.391,0,0,0,2.4,1.273c.52.22,1.067.408,1.6.578a17.749,17.749,0,0,0,5.207.792h.1a17.442,17.442,0,1,0,.513-34.88C204.094,391.054,203.927,391.054,203.761,391.055Z" transform="translate(-25.762 -231.079)" fill="#ffcf96"/>
          </g>
        </g>
      </g>
      <rect id="Rechteck_11" data-name="Rechteck 11" width="427.932" height="685.711" transform="translate(32.705 131.438)" fill="none" stroke="#ffe0bb" stroke-miterlimit="10" stroke-width="3"/>
      <path id="Pfad_1957" data-name="Pfad 1957" d="M0,0H410.363V667.61H0Z" transform="translate(41.49 139.533)" fill="none" stroke="#ffe0bb" stroke-width="1"/>
      <g id="Gruppe_737" data-name="Gruppe 737" transform="translate(47.378 144.575)">
        <g id="Gruppe_727" data-name="Gruppe 727" transform="translate(340.385 598.534)">
          <g id="Gruppe_725" data-name="Gruppe 725">
            <path id="Pfad_1949" data-name="Pfad 1949" d="M355.069,676.142h-12.9V665.266h-8.6v3.3h5.455v7.58h-7.441v-5.6h-3.472v5.6H312.576v-1.979h13.556v-5.6h5.458v-5.275h12.566v10.876h8.929V658.015h15.377v-8.24H357.879V636.918h5.291V631.81h5.291V617.8h1.983v15.984h-5.288v3.129h5.288v8.076H363.17v-6.1h-3.308v8.9h10.582v12.2H355.069Zm-21.495-1.979h3.472v-3.625h-3.472Zm31.58-31.147h3.306V638.9h-3.306Z" transform="translate(-312.576 -617.805)" fill="#ffe0bb"/>
          </g>
          <g id="Gruppe_726" data-name="Gruppe 726" transform="translate(34.887 35.1)">
            <path id="Pfad_1950" data-name="Pfad 1950" d="M363.356,669.1H350.788l.02-5.437H340.376V656.25h10.461l.041-10.383h7.19V656.25h5.288Zm-10.577-1.979h8.594v-8.9h-3.305v5.438h-5.276Zm.023-5.437h3.28v-3.46h-3.267Zm-1.985,0,.013-3.46h-8.471v3.46Zm2.005-5.438h3.26v-8.406h-3.228Z" transform="translate(-340.376 -645.867)" fill="#ffe0bb"/>
          </g>
        </g>
        <g id="Gruppe_730" data-name="Gruppe 730" transform="translate(340.051)">
          <g id="Gruppe_728" data-name="Gruppe 728">
            <path id="Pfad_1951" data-name="Pfad 1951" d="M370.845,196.959H368.86V183.447h-5.622v-5.438h-5.291V165.484H368.86v-8.9h-16.2V141.257h-8.267V151.8h-12.9v-5.272h-5.125v-5.275H312.31v-1.976h16.041v5.273h3.14v-5.273H339.6v7.251h-6.12v3.3H342.4V139.281h12.234v15.326h16.206v12.854H359.93v8.569h3.308v-5.437h7.607v7.415h-5.622v3.461h5.622Zm-5.622-20.928h3.637V172.57h-3.637Zm-31.747-31.476h4.135v-3.3h-4.135Z" transform="translate(-312.31 -139.281)" fill="#ffe0bb"/>
          </g>
          <g id="Gruppe_729" data-name="Gruppe 729" transform="translate(35.221)">
            <path id="Pfad_1952" data-name="Pfad 1952" d="M358.234,162.187h-7.442V151.759l-10.416-.04v-7.165h10.416v-5.273h12.9v12.528l-5.456-.022Zm-5.459-1.977h3.474V151.78l-3.474-.014Zm5.459-10.4,3.471.013v-8.565h-8.93v3.3h5.459Zm-5.459-.021,3.474.014v-3.271h-3.474Zm-10.416-.041,8.433.034v-3.25h-8.433Z" transform="translate(-340.376 -139.281)" fill="#ffe0bb"/>
          </g>
        </g>
        <g id="Gruppe_733" data-name="Gruppe 733" transform="translate(0.331)">
          <g id="Gruppe_731" data-name="Gruppe 731">
            <path id="Pfad_1953" data-name="Pfad 1953" d="M43.585,197.619H41.6V181.634h5.291V178.5H41.6v-8.075h7.274v6.1h3.308v-8.9H41.6v-12.2H56.979V139.281h12.9v10.876h8.6v-3.295H73.015v-7.581h7.443v5.6h3.47v-5.6H99.472v1.976H85.914v5.6H80.458v5.273H67.89V141.257H58.961v16.15H43.585v8.241H54.169V178.5H48.876v5.109H43.585Zm0-21.095h3.308v-4.119H43.585ZM75,144.883h3.474v-3.626H75Z" transform="translate(-41.602 -139.281)" fill="#ffe0bb"/>
          </g>
          <g id="Gruppe_732" data-name="Gruppe 732">
            <path id="Pfad_1954" data-name="Pfad 1954" d="M54.08,162.517H46.893V152.135H41.6V139.281H54.171l-.02,5.438H64.584v7.416H54.121Zm-5.2-1.976H52.1l.034-8.405H48.876Zm5.254-10.384H62.6V146.7H54.141Zm-5.254,0h3.269l.014-3.46H48.876Zm-5.291,0h3.308v-5.437h5.273l.013-3.462H43.585Z" transform="translate(-41.602 -139.281)" fill="#ffe0bb"/>
          </g>
        </g>
        <g id="Gruppe_736" data-name="Gruppe 736" transform="translate(0 599.191)">
          <g id="Gruppe_734" data-name="Gruppe 734">
            <path id="Pfad_1955" data-name="Pfad 1955" d="M99.871,676.01H83.833v-5.275H80.69v5.275h-8.1v-7.252h6.12v-3.293H69.779V676.01H57.54V660.683h-16.2V647.831H52.251V639.26H48.943v5.44h-7.6v-7.417H46.96v-3.461H41.338V618.33h1.983v13.515h5.622v5.437h5.293v12.525H43.321v8.9H59.527v15.325h8.265V663.486h12.9v5.272h5.125v5.273H99.871Zm-25.3-1.979h4.135v-3.3H74.572ZM43.321,642.721H46.96V639.26H43.321Z" transform="translate(-41.338 -618.33)" fill="#ffe0bb"/>
          </g>
          <g id="Gruppe_735" data-name="Gruppe 735" transform="translate(0 34.773)">
            <path id="Pfad_1956" data-name="Pfad 1956" d="M54.236,669.038h-12.9V656.509l5.456.021v-10.4h7.442V656.56l10.415.039v7.165H54.236Zm-10.915-1.979h8.93v-3.3H46.794v-5.255l-3.474-.014Zm10.915-5.273h8.431V658.57l-8.431-.034Zm-5.458,0h3.472v-3.257l-3.472-.013Zm0-5.248,3.472.015v-8.445H48.778Z" transform="translate(-41.338 -646.131)" fill="#ffe0bb"/>
          </g>
        </g>
      </g>
    </g>
    <text id="Menu" transform="translate(833 560)" fill="#fff" font-size="100" font-family="Caudex-Bold, Caudex" font-weight="700"><tspan x="0" y="0">Menu</tspan></text>
    <g id="Gruppe_739" data-name="Gruppe 739" transform="translate(27.365 -11.635)">
      <circle id="Ellipse_50" data-name="Ellipse 50" cx="23" cy="23" r="23" transform="translate(909.635 601.635)" fill="#fff"/>
      <line id="Linie_5" data-name="Linie 5" y2="29.207" transform="translate(933.046 609.986)" fill="none" stroke="#f2b13e" stroke-linecap="round" stroke-width="3"/>
      <line id="Linie_6" data-name="Linie 6" y2="29.207" transform="translate(947.649 624.589) rotate(90)" fill="none" stroke="#f2b13e" stroke-linecap="round" stroke-width="3"/>
    </g>
  </g>
</svg>
