<svg xmlns="http://www.w3.org/2000/svg" width="506.359" height="441.282" viewBox="0 0 506.359 441.282">
  <g id="Gruppe_660" data-name="Gruppe 660" transform="translate(0 1.861)">
    <g id="Gruppe_635" data-name="Gruppe 635" transform="translate(232.295 70.091)">
      <g id="Gruppe_634" data-name="Gruppe 634">
        <path id="Pfad_1711" data-name="Pfad 1711" d="M279.83,229.787a42.311,42.311,0,0,0-15.864,7.512c-16.69,12.059-27.346,31.749-29.427,52.235-2.533,24.941,6.381,54.405,29.12,67.351,6.14,3.5,13.3,4.7,19.811,7.436,6.534,2.743,12.471,7.045,19.387,8.6,7.547,1.692,15.432-.091,22.773-2.527,15.144-5.028,29.708-13.209,39.446-25.848,5.267-6.835,8.961-14.749,12.079-22.794,4.06-10.475,7.246-21.529,6.862-32.756s-4.765-22.724-13.577-29.691c-14.089-11.135-31.607-6.07-46.966-12.48C309,240.777,299.878,227.157,282.1,229.406Q280.955,229.551,279.83,229.787Z" transform="translate(-234.121 -219.704)" fill="#ffdf43"/>
        <path id="Pfad_1712" data-name="Pfad 1712" d="M307.438,235.621c8.624-3.336,18.734-1.225,27.135-5.09-2.286,8.194-7.112,15.936-14.386,20.347s-17.144,4.924-24.132.073c-3.534-2.454.114-6.224,2.114-8.63A22.852,22.852,0,0,1,307.438,235.621Z" transform="translate(-204.704 -219.036)" fill="#a3ce72"/>
        <path id="Pfad_1713" data-name="Pfad 1713" d="M297.34,231.524c-7.107-3.653-15.913-3.034-22.8-7.094-.752,2.611.048,5.4,1.017,7.941a38.974,38.974,0,0,0,9.563,14.949c4.39,4.045,10.235,6.709,16.2,6.5a3.344,3.344,0,0,0,1.61-.354,3.5,3.5,0,0,0,1.3-2.664C305.293,243.378,304.7,235.308,297.34,231.524Z" transform="translate(-214.596 -222.005)" fill="#a3ce72"/>
        <path id="Pfad_1714" data-name="Pfad 1714" d="M265.576,235.559a17.384,17.384,0,0,0-6.65,4.078c-1.194,1.28,1.22,2.768,2.361,1.719a50.311,50.311,0,0,1,5.133-4.558c.65-.455-.2-1.484-.844-1.238Z" transform="translate(-222.208 -216.608)" fill="#fff8d6" opacity="0.54"/>
        <path id="Pfad_1715" data-name="Pfad 1715" d="M260.413,242.66a17.441,17.441,0,0,0-4.033,3.7c-1.064,1.363,1.279,2.891,2.217,1.493a25.476,25.476,0,0,1,3.04-3.789c.659-.664-.476-1.915-1.223-1.4Z" transform="translate(-223.422 -213.192)" fill="#fff8d6" opacity="0.54"/>
        <path id="Pfad_1716" data-name="Pfad 1716" d="M254.6,239.6c-2.434.664-4.2,2.975-5.405,5.074-.9,1.571,1.69,3.119,2.64,1.669,1.2-1.83,3.229-3.421,4.124-5.386.352-.776-.65-1.551-1.359-1.357Z" transform="translate(-226.879 -214.636)" fill="#fff8d6" opacity="0.54"/>
        <path id="Pfad_1717" data-name="Pfad 1717" d="M261.71,248.264a23.26,23.26,0,0,0-3.278,4.2c-.98,1.4,1.326,2.958,2.362,1.72a13.374,13.374,0,0,0,2.978-4.675c.3-1.05-1.276-1.947-2.062-1.246Z" transform="translate(-222.407 -210.529)" fill="#fff8d6" opacity="0.54"/>
        <path id="Pfad_1718" data-name="Pfad 1718" d="M254.534,248.4a32.234,32.234,0,0,1-3.992,4.989c-1.238,1.308,1.542,2.988,2.7,1.656a17.093,17.093,0,0,0,3.1-5.549c.329-.919-1.213-2.029-1.8-1.1Z" transform="translate(-226.282 -210.512)" fill="#fff8d6" opacity="0.54"/>
        <path id="Pfad_1719" data-name="Pfad 1719" d="M246.443,250.459a15.37,15.37,0,0,0-3.792,5.167c-.516,1.344,1.811,2.673,2.593,1.42,1.047-1.678,1.837-3.468,3-5.08.685-.951-.987-2.315-1.8-1.507Z" transform="translate(-230.007 -209.458)" fill="#fff8d6" opacity="0.54"/>
        <path id="Pfad_1720" data-name="Pfad 1720" d="M255.119,255.152a19.4,19.4,0,0,0-2.594,3.989c-.935,1.909,2.252,3.181,3.027,1.267.565-1.4,1.1-2.8,1.663-4.2.455-1.14-1.393-1.909-2.1-1.06Z" transform="translate(-225.249 -207.231)" fill="#fff8d6" opacity="0.54"/>
        <path id="Pfad_1721" data-name="Pfad 1721" d="M246.622,260.6a9.264,9.264,0,0,0-2.019,5.327,1.654,1.654,0,0,0,2.823,1.021,9.978,9.978,0,0,0,2.019-5.327,1.65,1.65,0,0,0-2.823-1.021Z" transform="translate(-229.023 -204.652)" fill="#fff8d6" opacity="0.54"/>
        <path id="Pfad_1722" data-name="Pfad 1722" d="M304.86,249.053c-7.4-4.869-14.691-9.892-19.366-17.613-.712-1.177-5.552-.886-5.072-.094,4.781,7.9,12.278,13.067,19.851,18.05,1.008.662,5.781.443,4.588-.343Z" transform="translate(-211.607 -218.977)" fill="#71a52d"/>
        <path id="Pfad_1723" data-name="Pfad 1723" d="M299.608,245.6c5.167-3.488,10.2-4.867,16.353-5.477,4.278-.424,8.383-1.017,12.294-2.887,1.577-.757-3.165-2.054-4.4-1.463-5.013,2.4-10.53,2.135-15.9,3.031a31.627,31.627,0,0,0-12.749,5.334c-1.573,1.061,3.269,2.225,4.4,1.461Z" transform="translate(-204.548 -216.558)" fill="#71a52d"/>
        <path id="Pfad_1724" data-name="Pfad 1724" d="M301.71,224.241a2.572,2.572,0,0,1,.685-.971,2.452,2.452,0,0,1,1.262-.372,23.211,23.211,0,0,1,11.011,1.662,92.039,92.039,0,0,0-15.07,30.905,1.6,1.6,0,0,1-.5.94,1.51,1.51,0,0,1-.89.2,15.392,15.392,0,0,1-2.043-.132,5.1,5.1,0,0,1-2.918-1.149c-1.608-1.534-.232-4.751.137-6.562q.874-4.3,2.118-8.515A102.463,102.463,0,0,1,301.71,224.241Z" transform="translate(-205.723 -222.799)" fill="#1c697f"/>
        <path id="Pfad_1725" data-name="Pfad 1725" d="M301.71,224.241a2.572,2.572,0,0,1,.685-.971,2.452,2.452,0,0,1,1.262-.372,23.211,23.211,0,0,1,11.011,1.662,92.039,92.039,0,0,0-15.07,30.905,1.6,1.6,0,0,1-.5.94,1.51,1.51,0,0,1-.89.2,15.392,15.392,0,0,1-2.043-.132,5.1,5.1,0,0,1-2.918-1.149c-1.608-1.534-.232-4.751.137-6.562q.874-4.3,2.118-8.515A102.463,102.463,0,0,1,301.71,224.241Z" transform="translate(-205.723 -222.799)" fill="#71a52d"/>
      </g>
      <path id="Pfad_1726" data-name="Pfad 1726" d="M382.723,269.406c-11.3,30.36-12.111,47.231-34.326,58.549s-33.229,8.188-62.79,1.852c-26.581-5.7-45.318-22.671-48.831-26.038,4.487,13.888,12.876,26.292,25.589,33.53,6.14,3.5,13.3,4.7,19.811,7.436,6.534,2.743,12.471,7.045,19.387,8.6,7.547,1.692,15.432-.091,22.773-2.527,15.144-5.028,29.708-13.209,39.446-25.848,5.267-6.835,8.961-14.749,12.079-22.794C379.921,291.687,383.107,280.633,382.723,269.406Z" transform="translate(-232.829 -200.119)" fill="#ffbe3b" opacity="0.46"/>
    </g>
    <g id="Gruppe_638" data-name="Gruppe 638" transform="translate(9.19 102.171)">
      <g id="Gruppe_636" data-name="Gruppe 636" transform="translate(0)">
        <path id="Pfad_1727" data-name="Pfad 1727" d="M129.953,251.234c-5.267,2.24-8.294,9.746-11.642,5.316s-4.75-8.59-8.368-11.074a5.826,5.826,0,0,0-5.389-.752c-.03.051-.067.1-.1.146,2.075,1.964,8.984,17,6.1,17.539-3.052.566-6.375,3.076-8.023,7.8a9.416,9.416,0,0,0,.321,6.572c.016,0,.033,0,.049,0a10.259,10.259,0,0,1,2.141-3.248c4.7-5.291,17.646,1.262,18.606,1.6,8.524,2.99,5.538-4.185,6.375-3.077s-6.424-10.8.221-15.825c3.5-2.646,10.533-4.481,10.533-4.481S135.22,248.994,129.953,251.234Z" transform="translate(-75.27 -244.378)" fill="#a3ce72"/>
        <path id="Pfad_1728" data-name="Pfad 1728" d="M128.987,377.956c-16.79-6.028-44.548-34.4-44.939-64.111s44.46-37.7,52.949-45.514,37.983-28.516,67.36-20.756,46.174,59.968,29.637,89.262S161.392,389.588,128.987,377.956Z" transform="translate(-84.045 -243.655)" fill="#ffc527"/>
      </g>
      <path id="Pfad_1729" data-name="Pfad 1729" d="M233.993,324.9c8.552-15.15,8.173-36.42,1.766-54.51,5.349,86.626-108.161,79.712-125.2,52.028-14.145-22.986-6.114-44.537-2.535-51.924-12.548,6.714-24.181,16.219-23.98,31.414.391,29.714,28.149,58.083,44.939,64.111C161.392,377.653,217.455,354.193,233.993,324.9Z" transform="translate(-84.045 -231.72)" fill="#ffaf27"/>
      <g id="Gruppe_637" data-name="Gruppe 637" transform="translate(88.25 15.928)">
        <path id="Pfad_1730" data-name="Pfad 1730" d="M143.643,260.3a16.817,16.817,0,0,1,2.9.369,27.009,27.009,0,0,1,7.222,2.7,29.38,29.38,0,0,1,4.289,2.92c.7.605,1.374,1.271,2.074,1.937.635.731,1.323,1.443,1.936,2.237a35.185,35.185,0,0,1,3.358,5.172l.728,1.4c.125.253.239.431.372.745l.287.722c.355.986.827,1.885,1.111,2.948a38.82,38.82,0,0,1,1.892,12.351c-.031,1.991-.167,3.9-.339,5.709-.195,1.8-.424,3.5-.734,5.05a55.8,55.8,0,0,1-2.789,10.113.2.2,0,0,1-.263.111.206.206,0,0,1-.122-.232s.9-4.073,1.589-10.226c.14-1.542.3-3.205.409-4.968.083-1.765.126-3.623.065-5.539a53.915,53.915,0,0,0-1.375-11.811,20.785,20.785,0,0,0-.934-2.942l-.26-.731c-.064-.164-.205-.437-.3-.65l-.648-1.359a25.7,25.7,0,0,0-3.282-4.839c-.615-.72-1.308-1.353-1.93-2.016-.69-.6-1.351-1.2-2.028-1.733a35.387,35.387,0,0,0-4.018-2.777,29.207,29.207,0,0,0-3.656-1.968,30.875,30.875,0,0,0-2.954-1.292c-1.675-.673-2.667-.953-2.667-.953a.228.228,0,0,1-.158-.28A.237.237,0,0,1,143.643,260.3Z" transform="translate(-143.409 -252.556)" fill="#ffde52"/>
        <path id="Pfad_1731" data-name="Pfad 1731" d="M150.326,255.208a28.275,28.275,0,0,1,3.456-.109c1.1.043,2.434.109,3.959.294a45.1,45.1,0,0,1,5.075.953,25.473,25.473,0,0,1,2.839.846,24.566,24.566,0,0,1,2.967,1.137,32.11,32.11,0,0,1,5.972,3.4,36.366,36.366,0,0,1,2.838,2.285c.925.812,1.7,1.8,2.59,2.7.745,1.014,1.527,2.028,2.211,3.106.559,1.167,1.232,2.211,1.736,3.483a32.524,32.524,0,0,1,1.183,3.559,27.154,27.154,0,0,1,.693,3.813,23.073,23.073,0,0,1,.143,3.752,24.827,24.827,0,0,1-.287,3.642,27.333,27.333,0,0,1-.666,3.453,29.053,29.053,0,0,1-.893,3.233,39.612,39.612,0,0,1-2.217,5.7c-.788,1.716-1.609,3.239-2.379,4.559-.751,1.332-1.51,2.431-2.124,3.336a31.308,31.308,0,0,1-2.069,2.755.2.2,0,0,1-.323-.242s.656-1.047,1.69-2.944c.517-.947,1.109-2.118,1.747-3.476.657-1.347,1.345-2.893,1.985-4.616.34-.853.651-1.757.957-2.7a30.416,30.416,0,0,0,.893-2.917,27.038,27.038,0,0,0,.733-3.123,25.569,25.569,0,0,0,.5-3.3,32.772,32.772,0,0,0,.18-6.92,25.761,25.761,0,0,0-.45-3.468,33.016,33.016,0,0,0-.963-3.553,33.476,33.476,0,0,0-1.445-3.232c-.609-1.021-1.314-1.986-1.982-2.961-.821-.853-1.579-1.757-2.456-2.518a23.345,23.345,0,0,0-2.738-2.083,32.066,32.066,0,0,0-5.793-3c-.96-.4-1.894-.794-2.835-1.084-.923-.34-1.834-.607-2.716-.849a44.08,44.08,0,0,0-4.848-1.218c-1.455-.346-2.744-.569-3.807-.736-2.127-.373-3.358-.51-3.358-.51a.226.226,0,0,1-.2-.25A.23.23,0,0,1,150.326,255.208Z" transform="translate(-140.142 -255.092)" fill="#ffde52"/>
        <path id="Pfad_1732" data-name="Pfad 1732" d="M169.542,273.287c-3.727-7.464-12.774-9.611-18.917-14.6-.242-.2-.593.138-.349.351,5.991,5.233,12.583,9.322,18.153,15.11C169.009,274.75,169.892,273.986,169.542,273.287Z" transform="translate(-140.107 -253.373)" fill="#ffde52"/>
        <path id="Pfad_1733" data-name="Pfad 1733" d="M171.157,257.154c-.412-.123-.572.5-.177.638,11.251,3.969,9.19,18.14,10.119,27.664a.529.529,0,0,0,1.057,0C183.263,275,183.281,260.847,171.157,257.154Z" transform="translate(-130.102 -254.097)" fill="#ffde52"/>
      </g>
    </g>
    <g id="Gruppe_639" data-name="Gruppe 639" transform="translate(350.153)">
      <path id="Pfad_1734" data-name="Pfad 1734" d="M339.247,383.977a86.528,86.528,0,0,0,18.883,9.177c9.85,3.65,20.087,6.595,30.582,7.045,27.49,1.18,54.157-15.987,67.137-40.248s12.986-54.336,2.877-79.926c-3.342-8.457-7.753-16.622-9.285-25.585-1.729-10.113.335-20.433,1.968-30.563s2.8-20.76-.6-30.443-12.654-18.043-22.873-17.114A25.031,25.031,0,0,0,417.625,180c-11.851,7-19.5,19.3-25.622,31.631s-11.3,25.362-20.139,35.916c-9.009,10.762-21.253,18.266-31.427,27.933-15.033,14.285-25.5,33.907-26.518,54.618S322.115,372.292,339.247,383.977Z" transform="translate(-313.187 -175.359)" fill="#c8e4d7"/>
      <path id="Pfad_1735" data-name="Pfad 1735" d="M338.806,383.38a86.512,86.512,0,0,0,18.884,9.177c9.849,3.65,20.087,6.595,30.581,7.045,27.49,1.179,54.157-15.989,67.137-40.248s12.986-54.336,2.877-79.926c-3.342-8.459-7.751-16.622-9.285-25.586-1.729-10.113.335-20.433,1.968-30.562s2.8-20.762-.595-30.443-12.655-18.043-22.873-17.115a25.029,25.029,0,0,0-10.316,3.675c-11.851,7-19.5,19.3-25.62,31.631s-11.3,25.363-20.141,35.916C362.416,257.7,350.171,265.209,340,274.876c-15.033,14.285-25.5,33.908-26.518,54.619S321.674,371.693,338.806,383.38Z" transform="translate(-313.401 -175.651)" fill="none" stroke="#004249" stroke-miterlimit="10" stroke-width="3.71"/>
      <path id="Pfad_1736" data-name="Pfad 1736" d="M414.728,309.647c4.867-9.59,6.926-21.089,3.244-31.193-2.517-6.908-7.555-12.719-13.544-16.982-14.392-10.241-35.2-11.2-49.742-1.174s-20.967,30.862-13.412,46.828c3.975,8.4,11.248,15,19.593,19.09,14.835,7.262,34.384,6.039,46.107-5.6A42.284,42.284,0,0,0,414.728,309.647Z" transform="translate(-301.391 -137.883)" fill="#afd3c1"/>
      <path id="Pfad_1737" data-name="Pfad 1737" d="M415.226,303.743c4.867-9.59,6.926-21.091,3.244-31.2-2.518-6.907-7.555-12.718-13.544-16.982-14.392-10.24-35.2-11.2-49.742-1.173s-20.967,30.862-13.412,46.828c3.974,8.4,11.246,15,19.594,19.09,14.835,7.262,34.384,6.039,46.107-5.6A42.311,42.311,0,0,0,415.226,303.743Z" transform="translate(-301.148 -140.756)" fill="#79372e"/>
    </g>
    <g id="Gruppe_640" data-name="Gruppe 640" transform="translate(139.648 88.152)">
      <path id="Pfad_1738" data-name="Pfad 1738" d="M239.316,313.632c-8.4,2.848-17.323,4.611-24.858,9.266s-13.589,13.223-12.172,22.47a26.982,26.982,0,0,1-14.887-3.489,8.035,8.035,0,0,1-2.945-2.483c-1.427-2.221-.777-5.072-.147-7.555a132.794,132.794,0,0,0,1.748-56.282l8.665,1.386c-.513,7.214.332,13.027,1.665,20.1.437,2.324.978,4.837,2.718,6.437,5.435,4.992,16.909.092,22.112-2.27,1.775-.807,20.444-13.212,18.837-14.646,1.976,1.763,2.178,4.959,1.127,7.3s-3.067,4-5.062,5.524a128,128,0,0,1-20.094,12.583c7.427,1.43,14.994-.546,21.492-4.048,4.44-2.392,18.654-17.973,20.989-10.412C261.095,305.9,244.591,311.844,239.316,313.632Z" transform="translate(-166.06 -215.186)" fill="#a3ce72"/>
      <path id="Pfad_1739" data-name="Pfad 1739" d="M264.945,243.954c-4.9-1.513-17.377,2.108-17.9,8.6.349-4.348-1.916-8.734-5.069-11.774-4.882-4.707-10.61-7.487-16.628-4.745-2.3,1.047-11.428,8.346-9.01,12.162-3.7-5.838-11.245-7.182-17.7-6.8-4.5.266-9.094,1.145-12.73,3.783s-6.119,7.362-5.239,12.1c-6.546,3.742-10.124,12.29-8.466,20.224s8.423,14.652,16.009,15.892A30.182,30.182,0,0,0,202.5,315.748a25.407,25.407,0,0,0,24.927.544,40.76,40.76,0,0,0,22.284,17.646c3.569,1.1,7.426,1.641,10.828.389s6.18-4.665,5.9-8.535c6.051,5.169,13.806,8.393,21.311,7.638s14.512-5.93,16.62-13.485-1.579-17.053-8.658-20.335c4.137.59,8.156-1.884,10.335-5.478s2.741-8.124,2.441-12.5c-.525-7.655-3.849-15.551-9.938-20.06s-15.053-4.692-19.937.682C278.312,254.127,272.439,246.264,264.945,243.954Z" transform="translate(-171.801 -234.948)" fill="#71a52d"/>
      <path id="Pfad_1740" data-name="Pfad 1740" d="M246.929,263.6" transform="translate(-135.243 -221.005)" fill="none" stroke="#a3ce72" stroke-miterlimit="10" stroke-width="1.42"/>
      <path id="Pfad_1741" data-name="Pfad 1741" d="M232.171,251.2" transform="translate(-142.424 -227.038)" fill="none" stroke="#a3ce72" stroke-miterlimit="10" stroke-width="1.42"/>
      <path id="Pfad_1742" data-name="Pfad 1742" d="M235.919,265.551" transform="translate(-140.6 -220.056)" fill="none" stroke="#a3ce72" stroke-miterlimit="10" stroke-width="1.42"/>
      <path id="Pfad_1743" data-name="Pfad 1743" d="M247.357,284.885" transform="translate(-135.035 -210.648)" fill="none" stroke="#a3ce72" stroke-miterlimit="10" stroke-width="1.42"/>
      <path id="Pfad_1744" data-name="Pfad 1744" d="M225.9,289.138" transform="translate(-145.477 -208.579)" fill="none" stroke="#a3ce72" stroke-miterlimit="10" stroke-width="1.42"/>
      <path id="Pfad_1745" data-name="Pfad 1745" d="M222.48,276.82" transform="translate(-147.14 -214.573)" fill="none" stroke="#a3ce72" stroke-miterlimit="10" stroke-width="1.42"/>
      <path id="Pfad_1746" data-name="Pfad 1746" d="M190.619,278.007" transform="translate(-162.644 -213.995)" fill="none" stroke="#a3ce72" stroke-miterlimit="10" stroke-width="1.42"/>
      <path id="Pfad_1747" data-name="Pfad 1747" d="M210.565,263.053" transform="translate(-152.938 -221.272)" fill="none" stroke="#a3ce72" stroke-miterlimit="10" stroke-width="1.42"/>
      <path id="Pfad_1748" data-name="Pfad 1748" d="M195.431,251.591" transform="translate(-160.302 -226.849)" fill="none" stroke="#a3ce72" stroke-miterlimit="10" stroke-width="1.42"/>
      <path id="Pfad_1749" data-name="Pfad 1749" d="M185.677,259.618" transform="translate(-165.049 -222.943)" fill="none" stroke="#a3ce72" stroke-miterlimit="10" stroke-width="1.42"/>
      <path id="Pfad_1750" data-name="Pfad 1750" d="M196.822,267.849" transform="translate(-159.625 -218.938)" fill="none" stroke="#a3ce72" stroke-miterlimit="10" stroke-width="1.42"/>
      <path id="Pfad_1751" data-name="Pfad 1751" d="M220.745,258.348" transform="translate(-147.984 -223.561)" fill="none" stroke="#a3ce72" stroke-miterlimit="10" stroke-width="1.42"/>
      <path id="Pfad_1752" data-name="Pfad 1752" d="M236.776,281.823" transform="translate(-140.183 -212.138)" fill="none" stroke="#a3ce72" stroke-miterlimit="10" stroke-width="1.42"/>
      <path id="Pfad_1753" data-name="Pfad 1753" d="M211.669,280.245" transform="translate(-152.401 -212.906)" fill="none" stroke="#a3ce72" stroke-miterlimit="10" stroke-width="1.42"/>
      <path id="Pfad_1754" data-name="Pfad 1754" d="M208.159,245.154" transform="translate(-154.109 -229.982)" fill="none" stroke="#a3ce72" stroke-miterlimit="10" stroke-width="1.42"/>
      <path id="Pfad_1755" data-name="Pfad 1755" d="M182.849,248.025" transform="translate(-166.425 -228.585)" fill="none" stroke="#a3ce72" stroke-miterlimit="10" stroke-width="1.42"/>
    </g>
    <g id="Gruppe_659" data-name="Gruppe 659" transform="translate(0 121.858)">
      <g id="Gruppe_649" data-name="Gruppe 649" transform="translate(311.658)">
        <path id="Pfad_1756" data-name="Pfad 1756" d="M345.669,294.48c22.543,28.054,23.472,64.737,23.472,64.737s-35.612-8.807-58.162-36.863-23.472-64.733-23.472-64.733S323.131,266.426,345.669,294.48Z" transform="translate(-287.507 -257.621)" fill="#008275"/>
        <g id="Gruppe_648" data-name="Gruppe 648" transform="translate(13.631 15.923)">
          <g id="Gruppe_641" data-name="Gruppe 641">
            <path id="Pfad_1757" data-name="Pfad 1757" d="M362.384,350.564c-9.954-14.45-20.387-28.791-31.008-42.78-5.454-7.185-11.045-14.27-16.855-21.171-5.352-6.355-11.438-11.914-16.949-18.091a.5.5,0,0,0-.809.571c3.864,6.494,9.551,11.8,14.506,17.457,5.939,6.786,11.551,13.854,17.078,20.972,11.193,14.419,21.9,29.362,33.639,43.317.192.235.574-.013.4-.275Z" transform="translate(-296.676 -268.332)" fill="#005853"/>
          </g>
          <g id="Gruppe_642" data-name="Gruppe 642" transform="translate(21.487 46.84)">
            <path id="Pfad_1758" data-name="Pfad 1758" d="M311.268,300.347a173.627,173.627,0,0,0,15.849,8.463c5.826,2.932,10.375,7.1,15.5,11,.238.189.684-.037.535-.367-2.475-5.277-7.616-8.138-12.593-10.784-6.186-3.3-12.763-5.722-19.066-8.784-.317-.153-.508.294-.224.476Z" transform="translate(-311.13 -299.84)" fill="#005853"/>
          </g>
          <g id="Gruppe_643" data-name="Gruppe 643" transform="translate(44.593 33.787)">
            <path id="Pfad_1759" data-name="Pfad 1759" d="M326.688,291.342c-.168,9.876.917,23.94,8.682,30.853a.143.143,0,0,0,.208-.192c-6.147-8.347-7.9-20.631-8.344-30.7-.016-.351-.534-.306-.546.04Z" transform="translate(-326.673 -291.06)" fill="#005853"/>
          </g>
          <g id="Gruppe_644" data-name="Gruppe 644" transform="translate(9.456 31.557)">
            <path id="Pfad_1760" data-name="Pfad 1760" d="M303.227,290.051a68.06,68.06,0,0,1,16.724,6.444c4.7,2.584,8.422,6.712,13.127,9.18.238.12.58-.143.452-.407-2.112-4.536-7.255-7.381-11.515-9.63a60.593,60.593,0,0,0-18.693-6.073.248.248,0,0,0-.1.486Z" transform="translate(-303.037 -289.56)" fill="#005853"/>
          </g>
          <g id="Gruppe_645" data-name="Gruppe 645" transform="translate(0.342 14.133)">
            <path id="Pfad_1761" data-name="Pfad 1761" d="M297.281,278.785c4.183.945,8.206,1.7,11.945,3.883a43.085,43.085,0,0,1,5.555,3.77c1.5,1.234,2.569,2.866,4.383,3.623a.272.272,0,0,0,.375-.333c-1.1-3.812-5.2-6.366-8.517-8.109a39.218,39.218,0,0,0-13.556-3.776.481.481,0,0,0-.184.943Z" transform="translate(-296.906 -277.839)" fill="#005853"/>
          </g>
          <g id="Gruppe_646" data-name="Gruppe 646" transform="translate(11.588 0.372)">
            <path id="Pfad_1762" data-name="Pfad 1762" d="M304.9,268.787c-1.718,6.62,2.053,15.375,6.158,20.61a.336.336,0,0,0,.589-.3c-1.155-3.024-2.646-5.86-4.051-8.772a25.839,25.839,0,0,1-2.178-11.5c.007-.314-.447-.3-.517-.031Z" transform="translate(-304.471 -268.583)" fill="#005853"/>
          </g>
          <g id="Gruppe_647" data-name="Gruppe 647" transform="translate(28.036 13.018)">
            <path id="Pfad_1763" data-name="Pfad 1763" d="M316.207,277.477a37.882,37.882,0,0,0,.333,15.707c.966,4.552,2.569,11.63,6.438,14.523a.663.663,0,0,0,1.042-.716c-1.008-4.452-3.3-8.633-4.594-13.051a66.486,66.486,0,0,1-2.23-16.4.5.5,0,0,0-.99-.062Z" transform="translate(-315.535 -277.089)" fill="#005853"/>
          </g>
        </g>
      </g>
      <path id="Pfad_1764" data-name="Pfad 1764" d="M583.322,304.6H78.764S49.046,552.326,331.044,552.326,583.322,304.6,583.322,304.6Z" transform="translate(-77.863 -234.762)" fill="#ffcf96"/>
      <path id="Pfad_1765" data-name="Pfad 1765" d="M583.322,304.6H78.764S49.046,552.326,331.044,552.326,583.322,304.6,583.322,304.6Z" transform="translate(-77.863 -234.762)" fill="none"/>
      <g id="Gruppe_657" data-name="Gruppe 657" transform="translate(20.096 80.478)">
        <g id="Gruppe_650" data-name="Gruppe 650" transform="translate(0 13.112)">
          <path id="Pfad_1766" data-name="Pfad 1766" d="M102.67,391.23a1.094,1.094,0,0,1-1.054-.8c-8.673-31.8-10.219-68.345-10.234-68.713a1.1,1.1,0,0,1,1.048-1.136,1.124,1.124,0,0,1,1.136,1.051c.015.363,1.552,36.666,10.159,68.222a1.1,1.1,0,0,1-.769,1.342A1.117,1.117,0,0,1,102.67,391.23Z" transform="translate(-91.381 -320.577)" fill="#afd8da"/>
        </g>
        <g id="Gruppe_651" data-name="Gruppe 651" transform="translate(17.481 105.616)">
          <path id="Pfad_1767" data-name="Pfad 1767" d="M127.538,425.047a1.085,1.085,0,0,1-.7-.257c-13.912-11.716-23.248-39.379-23.639-40.55a1.092,1.092,0,1,1,2.072-.691c.094.282,9.534,28.252,22.976,39.569a1.094,1.094,0,0,1-.706,1.93Z" transform="translate(-103.14 -382.801)" fill="#afd8da"/>
        </g>
        <g id="Gruppe_652" data-name="Gruppe 652" transform="translate(13.11 35.695)">
          <path id="Pfad_1768" data-name="Pfad 1768" d="M106.392,363.443a1.1,1.1,0,0,1-1.032-.731c-5.1-14.573-5.16-25.4-5.16-25.852a1.092,1.092,0,0,1,1.093-1.093h0a1.092,1.092,0,0,1,1.093,1.093c0,.107.068,10.931,5.038,25.13a1.091,1.091,0,0,1-.67,1.391A1.062,1.062,0,0,1,106.392,363.443Z" transform="translate(-100.2 -335.767)" fill="#afd8da"/>
        </g>
        <g id="Gruppe_653" data-name="Gruppe 653" transform="translate(27.677 92.508)">
          <path id="Pfad_1769" data-name="Pfad 1769" d="M119.833,399.474a1.1,1.1,0,0,1-.945-.543c-5.117-8.774-8.706-22.99-8.856-23.591a1.092,1.092,0,1,1,2.12-.529c.036.143,3.664,14.517,8.625,23.02a1.1,1.1,0,0,1-.394,1.494A1.071,1.071,0,0,1,119.833,399.474Z" transform="translate(-109.999 -373.984)" fill="#afd8da"/>
        </g>
        <g id="Gruppe_654" data-name="Gruppe 654" transform="translate(53.898 160.244)">
          <path id="Pfad_1770" data-name="Pfad 1770" d="M154.95,443.583a1.1,1.1,0,0,1-.541-.143c-15.291-8.738-26.408-21.968-26.52-22.1a1.093,1.093,0,0,1,1.68-1.4c.109.131,10.986,13.066,25.923,21.6a1.093,1.093,0,0,1-.543,2.041Z" transform="translate(-127.637 -419.548)" fill="#afd8da"/>
        </g>
        <g id="Gruppe_655" data-name="Gruppe 655" transform="translate(12.382)">
          <path id="Pfad_1771" data-name="Pfad 1771" d="M101.531,324.869a1.092,1.092,0,0,1-1.09-1.02l-.728-10.925a1.093,1.093,0,0,1,1.017-1.163,1.076,1.076,0,0,1,1.164,1.017l.728,10.927a1.094,1.094,0,0,1-1.018,1.163C101.58,324.869,101.555,324.869,101.531,324.869Z" transform="translate(-99.71 -311.756)" fill="#afd8da"/>
        </g>
        <g id="Gruppe_656" data-name="Gruppe 656" transform="translate(60.454 93.964)">
          <path id="Pfad_1772" data-name="Pfad 1772" d="M159.359,415.749a1.085,1.085,0,0,1-.685-.242c-18.975-15.325-26.5-38.893-26.576-39.128a1.092,1.092,0,1,1,2.084-.653c.073.23,7.418,23.181,25.864,38.081a1.091,1.091,0,0,1-.687,1.941Z" transform="translate(-132.047 -374.963)" fill="#afd8da"/>
        </g>
      </g>
      <path id="Pfad_1773" data-name="Pfad 1773" d="M125.367,352.392a3.641,3.641,0,1,1-3.642-3.642A3.641,3.641,0,0,1,125.367,352.392Z" transform="translate(-58.292 -213.277)" fill="#fff"/>
      <path id="Pfad_1774" data-name="Pfad 1774" d="M252.754,349.942a3.642,3.642,0,1,1-3.642-3.642A3.642,3.642,0,0,1,252.754,349.942Z" transform="translate(3.696 -214.469)" fill="#fff"/>
      <path id="Pfad_1775" data-name="Pfad 1775" d="M364.952,357.291a3.641,3.641,0,1,1-3.642-3.642A3.642,3.642,0,0,1,364.952,357.291Z" transform="translate(58.293 -210.893)" fill="#fff"/>
      <path id="Pfad_1776" data-name="Pfad 1776" d="M330.166,438.133a3.642,3.642,0,1,1-3.642-3.642A3.641,3.641,0,0,1,330.166,438.133Z" transform="translate(41.365 -171.554)" fill="#fff"/>
      <path id="Pfad_1777" data-name="Pfad 1777" d="M187.1,373.949a3.642,3.642,0,1,1-3.642-3.641A3.642,3.642,0,0,1,187.1,373.949Z" transform="translate(-28.252 -202.786)" fill="#fff"/>
      <path id="Pfad_1778" data-name="Pfad 1778" d="M301.259,388.158a3.642,3.642,0,1,1-3.642-3.642A3.642,3.642,0,0,1,301.259,388.158Z" transform="translate(27.299 -195.873)" fill="#fff"/>
      <path id="Pfad_1779" data-name="Pfad 1779" d="M145.945,421.474a3.642,3.642,0,1,1-3.642-3.641A3.641,3.641,0,0,1,145.945,421.474Z" transform="translate(-48.279 -179.66)" fill="#fff"/>
      <path id="Pfad_1780" data-name="Pfad 1780" d="M238.545,417.555a3.641,3.641,0,1,1-3.642-3.642A3.642,3.642,0,0,1,238.545,417.555Z" transform="translate(-3.218 -181.568)" fill="#fff"/>
      <path id="Pfad_1781" data-name="Pfad 1781" d="M229.236,462.63a3.641,3.641,0,1,1-3.642-3.642A3.642,3.642,0,0,1,229.236,462.63Z" transform="translate(-7.748 -159.634)" fill="#fff"/>
      <path id="Pfad_1782" data-name="Pfad 1782" d="M388.96,406.286a3.642,3.642,0,1,1-3.642-3.642A3.642,3.642,0,0,1,388.96,406.286Z" transform="translate(69.975 -187.052)" fill="#fff"/>
      <g id="Gruppe_658" data-name="Gruppe 658" transform="translate(0.004 87.495)">
        <path id="Pfad_1783" data-name="Pfad 1783" d="M77.876,321.133c10.228-2.413,31.567-5.167,61.321,2.816,39.364,10.559,82.889,12.424,119.415,5.112l.321-.064c32.98-6.6,82.822-16.583,142.854.048,37.048,10.259,87.359,6.74,122.088.016,21.911-4.232,43.614-1.319,60.016,2.732.034-.715.071-1.432.1-2.127-16.594-4.058-38.441-6.932-60.512-2.657-34.494,6.676-84.435,10.189-121.132.016-60.511-16.757-110.648-6.721-143.823-.08l-.323.064c-36.217,7.25-79.4,5.4-118.462-5.084-29.985-8.043-51.269-5.484-61.873-3C77.866,319.645,77.869,320.38,77.876,321.133Z" transform="translate(-77.866 -316.476)" fill="#fff"/>
        <path id="Pfad_1784" data-name="Pfad 1784" d="M522.977,341.452c-37.929,7.341-75.7,12.867-120.594.043-59.863-17.1-109.1-7.194-141.68-.645l-3.009.6c-36.053,7.217-79.042,5.37-117.943-5.068-29.152-7.823-50.2-5.682-61.3-3.259q.174,2.183.389,4.446c10.427-2.31,31.17-4.643,59.782,3.034,39.527,10.6,83.24,12.471,119.934,5.132l3.012-.605c32.167-6.467,80.776-16.247,139.621.563,45.826,13.092,84.151,7.491,122.624.043,20.9-4.045,41.637-1.515,57.676,2.267.2-1.507.393-3,.565-4.467C565.692,339.726,544.6,337.264,522.977,341.452Z" transform="translate(-77.583 -309.456)" fill="#fff"/>
      </g>
      <path id="Pfad_1785" data-name="Pfad 1785" d="M450.9,304.6c1.742,17.211,7.3,109.794-64.425,182.176-64.859,65.455-157.9,61.879-189.794,58.378,22.558,4.586,47.919,7.174,76.543,7.174,282,0,252.277-247.729,252.277-247.729Z" transform="translate(-20.045 -234.762)" fill="#e76a0b" opacity="0.34"/>
    </g>
  </g>
</svg>
