<svg xmlns="http://www.w3.org/2000/svg" width="550" height="550.175" viewBox="0 0 550 550.175">
  <g  transform="translate(550 550.175) rotate(180)" opacity="0.35">
    <path id="Pfad_1" data-name="Pfad 1" d="M411.372,333.3c27.288,12.374,50.571,15.285,50.571,15.285s-33.108,33.848-73.493,25.114a123.566,123.566,0,0,1-21.841-6.929,124.613,124.613,0,0,1,6.943,21.841c8.731,40.4-25.112,73.5-25.112,73.5s-2.91-23.28-15.286-50.572c0,0,7.65,75.325-58.22,138.637-65.856-63.312-58.221-138.637-58.221-138.637C204.351,438.83,201.44,462.11,201.44,462.11s-33.842-33.1-25.111-73.5a124.388,124.388,0,0,1,6.9-21.779,123.018,123.018,0,0,1-21.68,6.867c-40.385,8.734-73.493-25.114-73.493-25.114s23.282-2.911,50.571-15.285c0,0-75.322,7.645-138.628-58.217,63.306-65.857,138.628-58.212,138.628-58.212-27.288-12.374-50.571-15.285-50.571-15.285s33.108-33.837,73.493-25.108a124.038,124.038,0,0,1,21.653,6.85,124.253,124.253,0,0,1-6.9-21.768c-8.731-40.393,25.111-73.5,25.111-73.5l.014.135.133-.135s2.884,23.043,15.1,50.154c-.468-5.789-4.9-77.491,58.26-138.208l.066.068.08-.068c63.147,60.717,58.727,132.419,58.247,138.208,12.216-27.111,15.1-50.154,15.1-50.154l.133.135.014-.135s33.843,33.109,25.111,73.5a124.324,124.324,0,0,1-6.9,21.779,123.04,123.04,0,0,1,21.68-6.861c40.385-8.729,73.493,25.108,73.493,25.108s-23.283,2.911-50.571,15.285c0,0,75.322-7.645,138.628,58.212C486.693,340.942,411.372,333.3,411.372,333.3ZM275,344.575a69.469,69.469,0,0,0,58.913-106.1,67.192,67.192,0,0,0-23.71-23.19c-1.348-.8-2.723-1.552-4.139-2.257A69.439,69.439,0,1,0,275,344.575Zm-.014-236.841c-1.562.688-57.405,25.926-41.1,85.334.561-.293,1.148-.559,1.722-.829.387-.186.761-.389,1.162-.559,1.2-.559,2.4-1.106,3.631-1.619.707-.288,1.442-.519,2.148-.784s1.376-.525,2.07-.762c.948-.333,1.869-.734,2.83-1.027h0c-2.1-14.061-3.35-47.666,27.475-66.325l.066.051.08-.051c30.812,18.659,29.557,52.253,27.462,66.314.961.3,1.868.688,2.8,1.021.734.254,1.469.525,2.2.8,1.922.739,3.831,1.512,5.7,2.381.387.169.774.372,1.161.559.574.271,1.148.536,1.709.818C332.392,133.66,276.561,108.422,274.986,107.734ZM192.977,316.29l-.054-.124c-.614-1.213-1.215-2.409-1.763-3.656-.6-1.326-1.134-2.652-1.669-3.989q-.741-1.9-1.4-3.848c-.241-.711-.548-1.388-.774-2.11-14.138,2.088-47.553,3.233-66.15-27.484,18.6-30.711,52.012-29.56,66.15-27.489.187-.547.427-1.083.614-1.642.535-1.6,1.108-3.182,1.736-4.751.427-1.072.855-2.15,1.322-3.21.627-1.388,1.3-2.759,1.975-4.113-60.169-16.43-85.254,41.206-85.254,41.206S132.793,332.738,192.977,316.29ZM316.118,357.1c-.561.293-1.148.564-1.722.824-.387.192-.774.389-1.161.559-1.87.863-3.779,1.648-5.7,2.381-.734.282-1.469.547-2.2.8-.975.344-1.922.762-2.923,1.072,2.1,14.078,3.324,47.615-27.474,66.269-30.812-18.665-29.557-52.253-27.462-66.308-.961-.31-1.869-.7-2.8-1.033-.734-.254-1.468-.519-2.2-.8-1.922-.734-3.831-1.518-5.7-2.381-.4-.169-.774-.367-1.162-.559-.614-.293-1.229-.576-1.842-.88-16.568,60.294,41.172,85.413,41.172,85.413S332.646,417.35,316.118,357.1Zm126.172-82.022s-25.085-57.647-85.268-41.206l.054.124c.614,1.213,1.215,2.421,1.762,3.656.588,1.326,1.136,2.652,1.656,3.995.508,1.27.975,2.55,1.415,3.842.24.711.547,1.388.774,2.1,14.124-2.071,47.553-3.222,66.15,27.489-18.6,30.717-52.026,29.571-66.163,27.484a88.956,88.956,0,0,1-5.648,13.728C417.206,332.738,442.291,275.079,442.291,275.079Z" fill="rgba(146,193,98,0.75)"/>
    <path id="Pfad_2" data-name="Pfad 2" d="M41.3,0h-.231c-1.429,0-2.818.09-4.207.22a41.232,41.232,0,0,0-8.011,1.64,32.7,32.7,0,0,0-3.763,1.379,41.408,41.408,0,0,0-13.066,8.793c-.928.93-1.815,1.909-2.645,2.92A40.934,40.934,0,0,0,0,41.063H0A40.766,40.766,0,0,0,6.216,62.7c.444.734.906,1.428,1.39,2.129a44.051,44.051,0,0,0,4.42,5.286,43.838,43.838,0,0,0,5.288,4.421c.694.481,1.409.938,2.123,1.379a40.75,40.75,0,0,0,5.655,3c1.216.514,2.471.963,3.763,1.362a41.471,41.471,0,0,0,12.218,1.86H41.3A41.067,41.067,0,1,0,41.3,0Z" transform="translate(233.812 234.017)" fill="rgba(146,193,98,0.75)"/>
  </g>
</svg>
