<svg xmlns="http://www.w3.org/2000/svg" viewBox="0 0 496.56 350.48"><defs><style>.cls-1{fill:#d15719;}</style></defs><g id="rüssel"><path id="Rüssel-2" data-name="Rüssel" d="M511.29,107.31c-1.19-11.74-6.13-22.87-12.87-32.56s-15.69-18.21-27-20.84c-6.24-1.45-12.73-1-19.13-1.07s-13.08-.85-18.42-4.37S425,38,427.27,32c1.44-3.79,4.92-6.53,8.7-8s7.9-1.79,11.95-2l-8.87-8.27a6,6,0,0,0-2.19-1.51,5.17,5.17,0,0,0-2-.13c-11.48.91-20.74,11.89-21.25,23.39s6.7,22.57,16.7,28.29c8.17,4.67,17.74,6.11,26.55,9.4s17.13,8.63,23,16.08,9.06,17.14,7.81,26.52c-1,7.56-4.83,14.56-9.9,20.27A33.68,33.68,0,0,1,463,146a21.42,21.42,0,0,1-8.74,1c-3.38-.38-5,.1-9.44-1.08-3.8-1-5.69,5.89-7.06,9.3-1.63,4-6.73,11.95-4.27,16.28s8.89,2.11,12.79,1.74c4.79-.47,10.46-1.68,15.19-2.58a82.3,82.3,0,0,0,12.08-3.19c1.28-.45,11.18-3.83,11.1-5.09C502.23,150.51,513.46,128.55,511.29,107.31Z" transform="translate(-15 -12)"/></g><g id="ohr"><path id="Ohr-2" data-name="Ohr" d="M333,148.08c-2.26.42-5-4.34-6.17-10.63s-.25-11.71,2-12.12a1.58,1.58,0,0,1,.57,0,109.14,109.14,0,0,1-.79-24.19c-6.33.37-11.56-1.38-11.71-3.91s4.88-4.94,11.26-5.33c.61,0,1.21,0,1.8,0,.15-.69.3-1.38.46-2.07l-.34,0c-3.33.39-3.56-2.66-5-4.81a15.37,15.37,0,0,0-6-5.12,18.38,18.38,0,0,0-15.82.09c-4.83,2.28-9.84,6.89-10.72,12.33-.75,4.64.31,9.68-.61,14.31-1.79,8.93-3.48,18.5-2.47,27.75,1.21,11,8.74,17.34,14,26.53,3.13,5.46,7,10.47,5.82,17.08s-1.72,15.07.62,21.43c1.88,5.11,7,8.08,11.77,10.1a39.84,39.84,0,0,0,9.21,2.87c1.11.17,3.64.79,4.66.05,1.94-1.42.38-2.28-.34-4.4-1.43-4.21-.75-8.85.34-13.05,1-3.77,4.44-7.32,4.3-11.36-.17-4.75-4.79-8.61-5.11-13.82-.12-1.84.69-7.18,3.13-8.08-1.41-4.65-2.78-9.39-4-14.19A1.72,1.72,0,0,1,333,148.08ZM314.76,106.9c1.44-1.45,5.25,0,8.51,3.25s4.73,7,3.29,8.5-5.25,0-8.51-3.25S313.32,108.35,314.76,106.9Zm-6.5,18.8c1.25-2,5.19-1.82,8.8.43s5.5,5.71,4.25,7.72-5.19,1.82-8.8-.43S307,127.71,308.26,125.7Zm14.05,23.75c-1.38,2.45-3.94,3.61-5.72,2.61s-2.1-3.8-.72-6.25,3.94-3.62,5.72-2.61S323.69,147,322.31,149.45Zm6.83,18.42c-2.3.14-4.31-2.23-4.5-5.29s1.52-5.65,3.82-5.79,4.3,2.22,4.49,5.28S331.43,167.73,329.14,167.87Z" transform="translate(-15 -12)"/></g><g id="stoßzahn"><path id="stoßzahn-2" data-name="stoßzahn" d="M421.43,176.57s-16-4.58-5.84,10.56,47,11,65.73-1.26-2.3-7.27-2.3-7.27S439.73,195.38,421.43,176.57Z" transform="translate(-15 -12)"/></g><g id="kopf"><path id="Kopf-2" data-name="Kopf" d="M446.72,145.25c-2.66-3-6.08-5.29-8.22-8.74-5.8-9.34-7-21.66-15.41-29.32L389.79,77c-14.07-12.77-34.17-7.21-44.54,6-3.64,4.63-9.22,6.11-14.8,6.8-.16.69-.31,1.38-.46,2.07,5.54,0,9.88,1.66,10,4,.16,2.55-4.88,4.94-11.26,5.33h-.11a109.14,109.14,0,0,0,.79,24.19c2.14.38,4.55,4.85,5.6,10.61,1,5.34.46,10.06-1.1,11.6,1.24,4.8,2.61,9.54,4,14.19a2.13,2.13,0,0,1,.95-.14,4.6,4.6,0,0,1,2.22,1.12l2.51,1.92a2.41,2.41,0,0,1,.95,1.08,2.45,2.45,0,0,1,.05,1,60.16,60.16,0,0,0-.62,9.08c.6,4.35,2.16,8.52,2.92,12.84.49,2.8-.72,7.11,2.81,7.62,4.09.59,10-4.92,13.86-6.09,6.29-1.88,12.83-2.73,19.27-3.86-.92-3-3.07-9.08,2.55-7.55,8.48,2.26,15.17,5.56,20.14-4,3.31-6.36-6.43-13.65-12.18-12,4.58-8,15.85-2.27,21.51,1,4.42,2.51,7.81,6.19,12.45,8.48,8.92,4.39,21.79,2.67,24.26-10.28,1-5.08,2.45-8.87-.36-13.13C450.77,148.08,447.27,145.87,446.72,145.25ZM373.88,96.54c2.81-.18,5.2,1.54,5.34,3.84s-2,4.29-4.83,4.47-5.19-1.55-5.33-3.85S371.08,96.71,373.88,96.54ZM362.47,84.26c1.53-.09,2.92,2.31,3.11,5.37s-.9,5.62-2.43,5.71S360.23,93,360,90,360.94,84.35,362.47,84.26Zm-11.28,73a4.63,4.63,0,1,1,4.34-4.9A4.64,4.64,0,0,1,351.19,157.25Zm15,2.78c-3.06.19-5.65-1.52-5.79-3.81s2.22-4.31,5.28-4.5,5.66,1.52,5.8,3.82S369.25,159.84,366.19,160Zm3.33-28.93a4.65,4.65,0,1,1,4.79-4.93A4.89,4.89,0,0,1,369.52,131.1ZM390,114.64l-.2-.06c-3.63-1.15-6,1.53-9.63,1.59-1.07,0-7.11-1.55-4.83-4,0,0,13.92-14.75,24.23,2.22.73,1.21-.85,3.28-2,3.35C394.48,117.94,392.6,115.56,390,114.64Zm7.36,16.6a3.72,3.72,0,1,1,3.93-3.94A3.94,3.94,0,0,1,397.33,131.24Z" transform="translate(-15 -12)"/></g><g id="dreieck"><path id="dreieck-2" data-name="dreieck" class="cls-1" d="M80.46,96.93S61.4,81.22,74.66,76.09s82-35.21,83-38.06S245,68.24,272.91,71.59c1.81.21,3,4.45,2.58,9.79a76.72,76.72,0,0,1-3.08,14.24S174.26,13,80.46,96.93Z" transform="translate(-15 -12)"/></g><g id="schwanz"><path id="schwanz-2" data-name="schwanz" d="M15.31,245.22c-.78-1.47.13-3.93.47-5.52.47-2.25,1.13-4.45,1.66-6.68a87.38,87.38,0,0,1,5.9-17.79c1.4-2.88,3.13-5.91,5.73-7.88,5.5-4.16,5.5,4.34,5.28,7.78-.46,7.14-1.86,14.33-5.47,20.59a38,38,0,0,1-5.17,7.72c-1.49,1.55-4,3.17-6.26,3A2.44,2.44,0,0,1,15.31,245.22Z" transform="translate(-15 -12)"/></g><g id="körper"><path id="körper-2" data-name="körper" d="M286.68,207c2.61-4,11.36-12.51,13-17,2.46-6.78,8.05-11.59,5-20-4.46-12.28-24.33-25.35-21-38,1.51-5.73,2-13,4-22,1.28-5.78,3.57-18.23-1-22-5.7-4.69-9.14,4.49-15,0a36.62,36.62,0,0,1-6-6c-3.81-5.12-4.31-6.25-10.09-8.95C167.68,32,68.68,75,47.57,147a410.48,410.48,0,0,0-10.88,46.56c1.61,1.53,3.93-1,4.66-3.06s2.7-4.75,4.54-3.48A3.58,3.58,0,0,1,47,188.64c9.15,21.47,6.89,30.87,31.59,44.79,14.26,8,40.92,11.79,57.85,4.69,18.5-7.76,53.7,4.81,77.29,1.91C247.41,235.88,269.68,233,286.68,207Z" transform="translate(-15 -12)"/></g><g id="rh_fuß" data-name="rh fuß"><path d="M113.89,349.19c-2.27,1.57-7.28-2.37-6.74-4.88,1-4.65,12.22-5.26,15.71-6,2.52-.5,5.18-1,7.13-2.68s2.76-5,1-6.8c-1.38-1.41-3.61-1.43-5.58-1.28-4.64.36-9.46,1.15-13.21,3.9-4.49,3.28-6.83,8.38-12.48,10.08a3.84,3.84,0,0,1-3.22-.13,4,4,0,0,1-1.29-1.84C92.76,334.07,91,326.44,97.3,323c4.89-2.71,11.48,2.3,15.12.65,5.53-2.5,18.53-1.16,19.88-1,1-10.61,2.8-21.68,2.42-32.5.05-.56.08-1.12.1-1.68.51-17.26-12.08-31.67-29.34-32.18a31.26,31.26,0,0,0-26.22,12.88c-.22.2-.47.39-.69.6-6.88,6.61-6,8.65-5.89,17.25.33,35.39,6.2,88,16,70.36s17.31,3.1,17.31,3.1c1.05-18.65,15.26,1.76,15.26,1.76,2.39-20.71,12.12.3,12.12.3a76.25,76.25,0,0,1-2.21-17C126.08,340.72,113.92,349.17,113.89,349.19Z" transform="translate(-15 -12)"/><circle cx="88.68" cy="274.96" r="31"/></g><g id="rh_bein" data-name="rh bein"><path d="M134.62,281.27l5-48.7a36.76,36.76,0,1,0-72.07,2.5L72.68,287c10,18,3.73,13.48,11.92,19.62a31.26,31.26,0,0,0,50-25.31Z" transform="translate(-15 -12)"/><circle cx="88.68" cy="274.96" r="31"/></g><g id="rv_bein" data-name="rv bein"><path d="M277.41,224.36a.83.83,0,0,0,0-.15c0-.48-1-39-1-39.43-.09-14.28-10.73-26.78-25-26.69-12.75.08-23.29,15.4-25.32,27.56-.27,1.35-.41,35.7-.36,36.93a1.85,1.85,0,0,0,0,.23c0,.1,0,.2,0,.29,0,.57,0,1.14.07,1.7-3,12.83-3.14,28.69-3.14,28.69s1,24.61,1,25.47c0,.37.27.79.29,1.15,0,.17,0,.34,0,.5a2.85,2.85,0,0,0,.07.51c1.15,13.58,12.78,21.93,26.64,21.84,14.56-.09,26.09-9.71,26-24.27C276.64,273.21,279.67,248.61,277.41,224.36Z" transform="translate(-15 -12)"/><circle cx="235.18" cy="266.46" r="26.5"/></g><g id="lv_fuß" data-name="lv fuß"><path d="M275,284.36c-1-13.34-13.07-15.91-26.21-18.44-6-1.15-22.27,10.44-22.52,20.43,0,.59-.16,2.44-.08,3-.15,6-.59,21.2,6.2,18.2a1.31,1.31,0,0,1,.28-.09c11.33-1.75,7,5.32,6.16,6.36-.78.89-8.14.84-10.14.81a1,1,0,0,0-.82.41,6.13,6.13,0,0,0-1.32,3.59c.15,1.93,14,5.74,13.37,9.68-.56,3.26-8.84,1.11-11.69.27a1,1,0,0,0-1.24.7c-.68,2.57-2,9.67,1.6,16.41,4,7.44,7.9,3.46,8.75,2.45a.94.94,0,0,0,.21-.45c2.12-10.57,6.14-8,6.14-8s1.93-.15,2.51,7.59c.49,6.46,3.7,3.89,4.73,2.87a1,1,0,0,0,.29-.78l-.47-6.32s-1.36,7.87-.08-1c1.14-7.84,5.52-2.94,6.5-1.72a1,1,0,0,1,.22.55c.76,9.09,4.46,8,5.84,7.31a1,1,0,0,0,.53-.85c.06-2.17.4-10.32,2-11.29,1.86-1.11,4.16,3.58,4.52,8.41.3,4,4.1,1.76,5.42.85a1,1,0,0,0,.44-.85c-.21-11.71-1.24-23.19-1.45-34.9-.1-5.56.28-11,.49-16.93.06-1.5.18-4.53.09-6.07C275.32,285.37,275,285.62,275,284.36Z" transform="translate(-15 -12)"/><circle cx="235.72" cy="274.47" r="24.5"/><circle cx="236.18" cy="274.46" r="24.5"/></g><g id="rv_fuß" data-name="rv fuß"><path d="M278.22,337c-5.39,4-17,5.65-18.78-2.81s19.06-4.53,19.06-4.53c-.56-9.46-1.49-17.59-1.8-27.06-.23-7,.33-13,.43-17,.13-.92.12-5,.15-6,.56-14.75-10.58-24.37-25.34-24.93a26.75,26.75,0,0,0-27.27,21.67,4.3,4.3,0,0,0-.36,1.43l-.26,10.5s-.28,18.36-.89,23.17c4.19-.61,10.09-2.22,12.92,2.06.24.36,1.71,5.1.86,5.15l-10.52.65c-10.52.66-2.49,10.4-2.49,10.4s20.15-5.53,14.59,2.65-15.76.46-15.76.46l1.47,18.12,7.25.19c14.45-18.29,23.14-.32,23.14-.32,4.62-11.37,13.58,1.56,13.58,1.56,1.44-10.44,10.6-2.75,10.6-2.75S283.62,333,278.22,337Z" transform="translate(-15 -12)"/><circle cx="235.18" cy="266.46" r="26.5"/></g><g id="lv_bein" data-name="lv bein"><path d="M275.15,287.36c0-.26.06-.51.08-.77,0-.74.07-1.47.06-2.2.67-14.74.8-30.91.81-45.45,0-6.82-.31-13.64-.59-20.46-.19-4.6-1.3-40.36-1.16-45.4,0,0-1.17-28.42-23.12-26.59-26.2,2.18-26,29.3-26,29.3-.22,19.1,1.38,70.77,1.51,89.57.05,6.25-.35,14-.53,21-.1,12.9,9.48,22.08,22.53,23a24.71,24.71,0,0,0,26-19.49,6.61,6.61,0,0,0,.37-1.87Z" transform="translate(-15 -12)"/><circle cx="235.72" cy="274.47" r="24.5"/></g><g id="lh_fuß" data-name="lh fuß"><path d="M126.77,325c-7,2.84-17,3.76-16.5-5.37s17.86-2.15,17.41-6.65c-1-10,2-25-1.54-33.78-3.67-9.09-12.28-14.6-22-15.5a26,26,0,0,0-8,.5C83.48,267,79.68,277,77.68,287c1,15,0,52,3.79,59.3C87.26,357.41,90,355,90,355s1.35-5.45,3.52-7.21,5,5.33,5,5.33,3.11,8.32,6.36-.11,5.55-3.8,5.55-3.8l1.08,4.91s7.17,3.57,7-2.83,7.71-5.56,8.25-3.11,4.88-1.07,4.88-1.07l-1.89-8.59s-19.9,8.24-20.57-.62,19.49-4.29,19.49-4.29S133.81,322.15,126.77,325Z" transform="translate(-15 -12)"/><circle cx="87.68" cy="274.96" r="25"/></g><g id="lh_bein" data-name="lh bein"><path d="M127.25,242.42a26.39,26.39,0,0,0-31.71-19.67C90.06,224,85.89,227.17,82,231a20.74,20.74,0,0,0-6.37,14.72c-.07,7,1.31,10.29,2.1,17.23.32,2.83-.3,9.18,0,12,.17,1.71-.33,10.67,0,12s.23,3.71.54,5c3.24,13.85,15.61,19.23,29.46,16s18-8,20-21c.33-2.15,0-11.41,0-24C127.63,261.22,127.67,244.19,127.25,242.42Z" transform="translate(-15 -12)"/><circle cx="87.68" cy="274.96" r="25"/></g><g id="decke"><path id="Mantel" class="cls-1" d="M84.07,99.17S107.76,114.56,98,225.53c0,0-5.41,10.89,34.69-4.06,0,0,25.7,15.15,70.58,1.65,0,0,31.74-8.1,39.77-3.57,5.1,2.88,11.89,5.37,17.86,4.39,9.41-1.59,5.83-21.51,6-27.84.44-16.43,5.94-32.27,5.95-48.74,0-14.07,3.79-34.33-1.71-47.72C260.33,73.35,201,60.88,201,60.88S133.05,51.11,84.07,99.17Z" transform="translate(-15 -12)"/></g></svg>