<svg xmlns="http://www.w3.org/2000/svg" xmlns:xlink="http://www.w3.org/1999/xlink" width="570.438" height="1081.863" viewBox="0 0 570.438 1081.863"  preserveAspectRatio="none">
  <defs>
    <linearGradient id="linear-gradient" x1="0.391" y1="0.011" x2="0.391" y2="0.974" gradientUnits="objectBoundingBox">
      <stop offset="0" stop-color="#fff" stop-opacity="0"/>
      <stop offset="0.507" stop-color="#fff" stop-opacity="0.251"/>
      <stop offset="1" stop-color="#fff" stop-opacity="0"/>
    </linearGradient>
  </defs>
  <path id="Schnittmenge_3" data-name="Schnittmenge 3" d="M50.777-119.229c3.869-2.03,14.993-9.228,10.92-23.2-.166.081-.34.156-.511.231-.114.052-.226.109-.345.156-.356.156-.711.309-1.077.452-.208.08-.427.145-.635.22s-.408.146-.615.213c-.28.092-.553.2-.838.286.591,3.736.957,12.418-6.9,17.733v-22.82c10.773-.626,19.307-9.048,19.307-19.349s-8.533-18.726-19.307-19.352V-207.48c7.849,5.317,7.484,13.991,6.892,17.725.286.087.555.195.832.289.217.07.434.145.653.224.569.2,1.135.423,1.688.664.119.047.23.1.345.155.182.083.364.162.546.246,4.091-14.015-7.106-21.218-10.955-23.231V-240.9c18.172,17.409,16.008,37.517,16.008,37.517A51.9,51.9,0,0,0,71.31-217.49s10.03,9.235,7.442,20.507a33.275,33.275,0,0,1-2.045,6.076,38.112,38.112,0,0,1,6.425-1.917c11.969-2.436,21.78,7.007,21.78,7.007a60.5,60.5,0,0,0-14.987,4.264s22.321-2.134,41.083,16.242c-18.761,18.373-41.083,16.241-41.083,16.241a60.5,60.5,0,0,0,14.987,4.265s-9.811,9.439-21.78,7a38.4,38.4,0,0,1-6.417-1.911,33.242,33.242,0,0,1,2.045,6.074c2.588,11.269-7.442,20.507-7.442,20.507l0-.039-.04.039A51.845,51.845,0,0,0,66.8-127.124c.135,1.578,1.395,20.72-16.024,37.4Zm24.538-37.954c-.158.447-.329.888-.515,1.326-.126.3-.252.6-.392.895-.185.388-.383.771-.585,1.148a24.839,24.839,0,0,0,6.2.823c13.377,0,19.071-12.319,19.071-12.319s-7.433-16.086-25.27-11.5l.016.035c.182.34.361.673.522,1.021.179.37.336.74.494,1.113q.22.53.415,1.073c.072.2.163.388.23.59,4.19-.583,14.093-.9,19.6,7.667-5.511,8.568-15.415,8.247-19.6,7.669C75.441-157.488,75.371-157.339,75.315-157.183ZM50.777-172.764a8.128,8.128,0,0,1,1.141.25c.251.075.5.156.733.251a8,8,0,0,1,1.1.551c.139.081.279.164.415.253a8.634,8.634,0,0,1,1.031.812,8.2,8.2,0,0,1,.863.972c.094.128.185.255.271.391a7.171,7.171,0,0,1,1.213,3.973,7.257,7.257,0,0,1-1.831,4.8c-.163.185-.336.365-.516.536a8.113,8.113,0,0,1-2.55,1.616,6.917,6.917,0,0,1-.733.253,8.153,8.153,0,0,1-1.141.249Zm96.536-7.887-.023.019c-18.714-16.939-17.4-36.945-17.262-38.559a51.844,51.844,0,0,0-4.474,13.992l-.04-.037,0,.037s-10.03-9.238-7.442-20.507a33.268,33.268,0,0,1,2.045-6.076,37.9,37.9,0,0,1-6.424,1.914c-11.969,2.436-21.782-7-21.782-7a60.5,60.5,0,0,0,14.988-4.264S84.572-239,65.811-257.378c18.761-18.374,41.084-16.242,41.084-16.242a60.574,60.574,0,0,0-14.988-4.264s9.813-9.443,21.782-7.006a38.22,38.22,0,0,1,6.472,1.933,33.318,33.318,0,0,1-2.058-6.094c-2.588-11.27,7.442-20.507,7.442-20.507a51.883,51.883,0,0,0,4.531,14.11s-2.268-21.015,17.253-38.679c19.517,17.665,17.255,38.679,17.255,38.679a51.982,51.982,0,0,0,4.526-14.11s10.03,9.236,7.442,20.507a33.236,33.236,0,0,1-2.045,6.076,38.129,38.129,0,0,1,6.425-1.916c11.968-2.437,21.78,7.006,21.78,7.006a60.573,60.573,0,0,0-14.988,4.264s22.323-2.132,41.084,16.242c-18.761,18.374-41.084,16.241-41.084,16.241a60.5,60.5,0,0,0,14.988,4.264s-9.813,9.441-21.78,7a38.3,38.3,0,0,1-6.418-1.91,33.3,33.3,0,0,1,2.046,6.072c2.586,11.269-7.442,20.507-7.442,20.507l0-.037-.04.037a51.908,51.908,0,0,0-4.474-13.992c.138,1.614,1.451,21.62-17.266,38.559Zm0-30.038c.464-.192,17.014-7.232,12.182-23.807-.166.081-.339.156-.511.232-.114.051-.224.108-.343.156-.356.155-.713.308-1.077.452-.21.08-.427.145-.637.218s-.408.146-.613.213c-.282.093-.555.2-.839.286.622,3.923.993,13.3-8.142,18.5l-.021-.014-.023.014c-9.13-5.205-8.759-14.578-8.139-18.5-.285-.086-.553-.192-.83-.286-.217-.07-.436-.146-.653-.222-.569-.207-1.135-.423-1.69-.664-.114-.048-.229-.1-.343-.156-.17-.076-.34-.151-.506-.229C130.3-217.922,146.846-210.882,147.313-210.69Zm-7.995-64.554a19.42,19.42,0,0,0-12.582,17.866,18.38,18.38,0,0,0,2.07,8.426,19.538,19.538,0,0,0,1.044,1.788,19.968,19.968,0,0,0,2.919,3.5,20.839,20.839,0,0,0,4.107,2.973q.6.334,1.226.628a21.514,21.514,0,0,0,9.207,2.076c11.362-.011,20.573-8.687,20.573-19.388s-9.211-19.377-20.573-19.388A21.62,21.62,0,0,0,139.318-275.244ZM97.73-257.378s7.435,16.083,25.27,11.5l-.016-.034c-.18-.34-.359-.675-.521-1.021-.175-.37-.337-.74-.491-1.115-.151-.355-.289-.711-.42-1.072-.07-.2-.161-.388-.229-.586-4.187.577-14.093.9-19.6-7.67,5.511-8.569,15.418-8.25,19.608-7.667a24.041,24.041,0,0,1,1.674-3.83,24.832,24.832,0,0,0-6.2-.823C103.424-269.7,97.73-257.378,97.73-257.378Zm75.383,8.127c-.158.447-.329.888-.515,1.326-.126.3-.254.6-.392.9-.186.387-.384.769-.585,1.148a24.812,24.812,0,0,0,6.192.822c13.379,0,19.074-12.319,19.074-12.319s-7.435-16.086-25.27-11.5l.016.035c.182.338.359.673.522,1.019.178.37.336.74.494,1.113q.22.532.415,1.074c.072.2.163.387.23.588,4.19-.583,14.092-.9,19.6,7.667-5.511,8.569-15.413,8.247-19.6,7.67C173.24-249.556,173.168-249.405,173.114-249.25Zm-17.646-32.573c.285.087.555.2.83.289.219.07.436.145.653.224.571.2,1.135.424,1.69.664.119.047.229.1.343.156.183.081.365.16.547.246,4.91-16.822-12.2-23.831-12.2-23.831s-17.1,7.006-12.205,23.814c.166-.081.34-.157.511-.229.114-.054.229-.109.343-.156.555-.24,1.121-.46,1.69-.664.217-.079.436-.153.653-.224.289-.1.569-.213.867-.3-.622-3.928-.986-13.284,8.142-18.488C156.461-295.115,156.088-285.744,155.468-281.823Zm-8.14,31.988h-.041a7.792,7.792,0,0,1-8.014-7.543,7.791,7.791,0,0,1,8.014-7.546h.045a8.073,8.073,0,0,1,.822.041,8.177,8.177,0,0,1,1.562.3q.378.11.735.25a8.34,8.34,0,0,1,1.1.551c.139.081.279.166.414.254a8.481,8.481,0,0,1,1.033.812,8.425,8.425,0,0,1,.863.971c.094.128.185.255.271.391a7.174,7.174,0,0,1,1.212,3.975,7.263,7.263,0,0,1-1.829,4.8c-.163.186-.336.366-.516.537a8.142,8.142,0,0,1-2.55,1.614,6.531,6.531,0,0,1-.735.254,8.511,8.511,0,0,1-1.562.3c-.271.024-.543.04-.822.04Zm97.784-22.885-.023.019c-18.714-16.94-17.4-36.943-17.262-38.559a51.847,51.847,0,0,0-4.474,13.992l-.04-.037,0,.037s-10.03-9.236-7.442-20.505a33.234,33.234,0,0,1,2.045-6.077,38.112,38.112,0,0,1-6.425,1.914c-11.968,2.435-21.78-7.006-21.78-7.006a60.51,60.51,0,0,0,14.987-4.263s-22.321,2.132-41.083-16.241c18.761-18.376,41.083-16.242,41.083-16.242a60.478,60.478,0,0,0-14.987-4.265s9.813-9.443,21.78-7.007a38.286,38.286,0,0,1,6.472,1.933,33.451,33.451,0,0,1-2.057-6.093c-2.588-11.272,7.442-20.507,7.442-20.507a51.894,51.894,0,0,0,4.53,14.108s-2.267-21.015,17.255-38.678c19.517,17.663,17.255,38.678,17.255,38.678a51.965,51.965,0,0,0,4.526-14.108s10.03,9.235,7.442,20.507a33.25,33.25,0,0,1-2.045,6.075,38.123,38.123,0,0,1,6.424-1.915c11.969-2.436,21.78,7.007,21.78,7.007a60.5,60.5,0,0,0-14.987,4.265s22.323-2.134,41.084,16.242c-18.761,18.373-41.084,16.241-41.084,16.241a60.528,60.528,0,0,0,14.987,4.263s-9.811,9.441-21.78,7.006a38.437,38.437,0,0,1-6.416-1.911,33.2,33.2,0,0,1,2.045,6.074c2.588,11.269-7.442,20.505-7.442,20.505l0-.037-.038.037a51.884,51.884,0,0,0-4.476-13.992c.139,1.616,1.452,21.62-17.265,38.559Zm0-30.037c.464-.192,17.012-7.234,12.182-23.809-.166.083-.34.156-.51.232-.114.052-.226.109-.345.156-.355.156-.711.308-1.075.452-.21.08-.427.145-.637.218s-.408.146-.613.213c-.282.094-.554.206-.839.287.62,3.922.993,13.3-8.142,18.5l-.02-.014-.023.014c-9.132-5.206-8.759-14.578-8.139-18.5-.285-.084-.553-.192-.83-.285-.219-.072-.436-.146-.653-.224-.571-.206-1.135-.423-1.69-.664-.114-.047-.229-.1-.345-.156-.17-.076-.34-.149-.506-.228C228.1-309.99,244.645-302.948,245.111-302.756Zm-8-64.555a19.42,19.42,0,0,0-12.581,17.867,18.39,18.39,0,0,0,2.068,8.424,18.851,18.851,0,0,0,1.046,1.788,19.964,19.964,0,0,0,2.919,3.5,20.763,20.763,0,0,0,4.106,2.972c.4.224.808.432,1.226.63a21.5,21.5,0,0,0,9.207,2.074c11.363-.011,20.574-8.687,20.574-19.387s-9.211-19.378-20.574-19.389A21.62,21.62,0,0,0,237.115-367.312Zm-41.586,17.867s7.435,16.083,25.27,11.5l-.016-.034c-.182-.338-.359-.675-.522-1.021-.173-.37-.336-.739-.49-1.115-.151-.354-.289-.711-.42-1.072-.072-.2-.163-.387-.23-.586-4.185.577-14.092.9-19.6-7.669,5.511-8.571,15.418-8.25,19.608-7.669a24.1,24.1,0,0,1,1.674-3.83,24.831,24.831,0,0,0-6.2-.823C201.223-361.766,195.529-349.444,195.529-349.444Zm75.382,8.127q-.238.669-.513,1.324c-.128.3-.254.6-.392.9-.186.387-.384.769-.587,1.148a24.823,24.823,0,0,0,6.194.822c13.379,0,19.072-12.317,19.072-12.317s-7.433-16.087-25.269-11.5l.015.035c.183.338.361.673.522,1.021.179.37.337.74.5,1.113.145.354.285.711.415,1.073.07.2.161.387.229.588,4.19-.581,14.093-.9,19.6,7.669-5.511,8.568-15.415,8.246-19.6,7.669C271.037-341.622,270.967-341.473,270.911-341.317Zm-17.645-32.572c.285.086.553.195.83.287.217.072.436.145.653.224.569.2,1.135.424,1.689.664.119.047.23.1.345.156.182.081.364.16.546.246,4.91-16.822-12.2-23.829-12.2-23.829s-17.1,7-12.207,23.813c.167-.081.34-.156.511-.229.116-.054.23-.109.345-.156.554-.24,1.119-.46,1.69-.664.217-.079.434-.152.653-.224.289-.1.569-.213.865-.3-.62-3.928-.984-13.284,8.143-18.489C254.258-387.182,253.887-377.811,253.266-373.889ZM50.777-304.9c3.869-2.03,14.993-9.227,10.92-23.2-.166.083-.34.156-.511.232-.114.053-.226.109-.345.156-.356.156-.711.308-1.077.451-.208.08-.427.145-.635.218s-.408.146-.615.213c-.28.092-.553.2-.838.287.591,3.735.957,12.416-6.9,17.732v-22.82c10.773-.626,19.307-9.05,19.307-19.351S61.551-369.7,50.777-370.33v-22.818c7.849,5.317,7.484,13.99,6.892,17.725.286.086.555.195.832.287.217.072.434.145.653.224.569.2,1.135.424,1.688.664.119.047.23.1.345.156.182.082.364.16.546.246,4.091-14.016-7.106-21.218-10.955-23.231v-29.489c18.172,17.409,16.008,37.517,16.008,37.517a51.9,51.9,0,0,0,4.526-14.11s10.03,9.236,7.442,20.507a33.233,33.233,0,0,1-2.045,6.076,38.135,38.135,0,0,1,6.425-1.915c11.969-2.436,21.78,7.007,21.78,7.007a60.531,60.531,0,0,0-14.987,4.263s22.321-2.132,41.083,16.242c-18.761,18.374-41.083,16.241-41.083,16.241a60.5,60.5,0,0,0,14.987,4.265s-9.811,9.441-21.78,7.006a38.4,38.4,0,0,1-6.417-1.911,33.227,33.227,0,0,1,2.045,6.072c2.588,11.27-7.442,20.507-7.442,20.507l0-.037-.04.037A51.844,51.844,0,0,0,66.8-312.793c.135,1.579,1.395,20.722-16.024,37.4Zm24.538-37.953c-.158.446-.329.887-.515,1.324-.126.3-.252.6-.392.9-.185.387-.383.769-.585,1.148a24.814,24.814,0,0,0,6.194.822c13.379,0,19.072-12.319,19.072-12.319s-7.433-16.086-25.27-11.5l.016.035c.182.338.361.673.522,1.021.179.37.336.739.494,1.113q.22.53.415,1.073c.072.2.163.387.23.588,4.19-.581,14.093-.9,19.6,7.667-5.511,8.569-15.415,8.247-19.6,7.67C75.441-343.158,75.371-343.007,75.315-342.851Zm169.811.949h-.041a7.793,7.793,0,0,1-8.016-7.543,7.792,7.792,0,0,1,8.016-7.544h.046c.279,0,.549.014.82.04a8.327,8.327,0,0,1,1.564.3q.379.11.734.25a8.121,8.121,0,0,1,1.1.552c.139.08.279.164.414.253a8.359,8.359,0,0,1,1.031.812,8.149,8.149,0,0,1,.863.971c.1.13.185.257.271.391a7.175,7.175,0,0,1,1.213,3.975,7.254,7.254,0,0,1-1.831,4.8,7.346,7.346,0,0,1-.516.537,8.137,8.137,0,0,1-2.55,1.616,6.682,6.682,0,0,1-.734.253,8.55,8.55,0,0,1-1.564.3c-.271.024-.541.04-.82.04ZM50.777-358.433a8.11,8.11,0,0,1,1.141.25q.376.11.733.25a8.009,8.009,0,0,1,1.1.552c.139.08.279.164.415.253a8.35,8.35,0,0,1,1.031.812,8.288,8.288,0,0,1,.863.971c.094.128.185.257.271.391a7.175,7.175,0,0,1,1.213,3.975,7.257,7.257,0,0,1-1.831,4.8c-.163.186-.336.366-.516.537a8.111,8.111,0,0,1-2.55,1.614,6.615,6.615,0,0,1-.733.254,8.339,8.339,0,0,1-1.141.249Zm292.133-6.353-.025.018c-18.713-16.939-17.4-36.943-17.262-38.558a51.906,51.906,0,0,0-4.474,13.992l-.04-.039,0,.039s-10.028-9.238-7.44-20.507a33.239,33.239,0,0,1,2.045-6.076A38.163,38.163,0,0,1,309.284-414c-11.969,2.435-21.78-7-21.78-7a60.5,60.5,0,0,0,14.987-4.265s-22.322,2.132-41.084-16.241c18.763-18.376,41.084-16.242,41.084-16.242a60.5,60.5,0,0,0-14.987-4.264s9.811-9.443,21.78-7.007a38.355,38.355,0,0,1,6.472,1.933,33.3,33.3,0,0,1-2.057-6.093c-2.588-11.272,7.442-20.507,7.442-20.507a51.892,51.892,0,0,0,4.53,14.108S323.4-500.6,342.925-518.262c19.518,17.663,17.254,38.678,17.254,38.678a51.9,51.9,0,0,0,4.526-14.108s10.03,9.235,7.442,20.507a33.269,33.269,0,0,1-2.045,6.076,38.134,38.134,0,0,1,6.425-1.917c11.969-2.436,21.78,7.007,21.78,7.007a60.5,60.5,0,0,0-14.987,4.264s22.321-2.134,41.083,16.242c-18.761,18.373-41.083,16.241-41.083,16.241a60.5,60.5,0,0,0,14.987,4.265s-9.811,9.439-21.78,7a38.4,38.4,0,0,1-6.417-1.911,33.246,33.246,0,0,1,2.045,6.074c2.588,11.269-7.442,20.507-7.442,20.507l0-.039-.04.039a51.84,51.84,0,0,0-4.474-13.992c.138,1.614,1.452,21.618-17.266,38.558Zm0-30.038c.462-.192,17.012-7.234,12.182-23.807-.166.082-.34.156-.51.231-.114.053-.226.109-.345.156-.356.156-.711.309-1.077.452-.208.08-.427.145-.635.22s-.408.146-.615.213c-.28.093-.553.2-.838.286.62,3.923.993,13.3-8.143,18.5l-.019-.014-.025.014c-9.13-5.2-8.759-14.578-8.137-18.5-.285-.084-.555-.192-.832-.284-.217-.07-.434-.146-.653-.224-.569-.206-1.135-.421-1.689-.664-.114-.047-.23-.1-.345-.156-.17-.075-.34-.149-.506-.228C325.9-402.058,342.442-395.016,342.91-394.824Zm-8-64.554a19.417,19.417,0,0,0-12.581,17.866,18.39,18.39,0,0,0,2.068,8.424,19.157,19.157,0,0,0,1.044,1.789,19.931,19.931,0,0,0,2.921,3.5,20.724,20.724,0,0,0,4.106,2.972q.6.335,1.226.63a21.5,21.5,0,0,0,9.207,2.074c11.363-.011,20.573-8.685,20.573-19.387s-9.21-19.378-20.573-19.389A21.65,21.65,0,0,0,334.914-459.378Zm-41.586,17.866s7.433,16.083,25.27,11.5l-.016-.035c-.182-.338-.361-.675-.522-1.019-.175-.37-.337-.74-.491-1.114q-.225-.533-.42-1.073c-.07-.2-.161-.387-.229-.586-4.185.579-14.093.9-19.6-7.669,5.511-8.569,15.419-8.25,19.609-7.667a23.918,23.918,0,0,1,1.674-3.831,24.843,24.843,0,0,0-6.2-.823C299.02-453.835,293.328-441.512,293.328-441.512Zm75.382,8.127c-.158.447-.329.888-.515,1.326-.126.3-.252.6-.392.895-.185.388-.383.771-.585,1.148a24.842,24.842,0,0,0,6.2.823c13.377,0,19.071-12.319,19.071-12.319s-7.433-16.086-25.27-11.5l.016.035c.182.34.361.673.522,1.02.179.37.336.74.494,1.113q.22.53.415,1.073c.072.2.163.388.23.59,4.19-.583,14.093-.9,19.6,7.667-5.511,8.568-15.415,8.247-19.6,7.669C368.836-433.69,368.765-433.541,368.71-433.385Zm-17.646-32.572c.286.087.554.195.832.289q.326.106.653.224c.569.2,1.135.423,1.688.664.119.047.23.1.345.155.182.083.364.162.546.246,4.91-16.821-12.2-23.829-12.2-23.829s-17.1,7-12.205,23.814c.167-.081.34-.157.51-.231.115-.052.23-.108.345-.155.553-.242,1.119-.46,1.689-.664q.328-.118.653-.224c.289-.1.571-.213.867-.3-.62-3.928-.984-13.284,8.142-18.489C352.057-479.249,351.685-469.878,351.063-465.957ZM147.313-366.32l-.023.018c-18.714-16.939-17.4-36.943-17.262-38.558a51.844,51.844,0,0,0-4.474,13.992l-.04-.039,0,.039s-10.03-9.238-7.442-20.507a33.23,33.23,0,0,1,2.045-6.076,38.16,38.16,0,0,1-6.424,1.914c-11.969,2.435-21.782-7-21.782-7a60.576,60.576,0,0,0,14.988-4.265s-22.323,2.132-41.084-16.241c18.761-18.376,41.084-16.242,41.084-16.242a60.5,60.5,0,0,0-14.988-4.265s9.813-9.443,21.782-7.007a38.337,38.337,0,0,1,6.472,1.934,33.3,33.3,0,0,1-2.058-6.093c-2.588-11.272,7.442-20.507,7.442-20.507a51.868,51.868,0,0,0,4.531,14.108s-2.268-21.015,17.253-38.678c19.517,17.663,17.255,38.678,17.255,38.678a51.967,51.967,0,0,0,4.526-14.108s10.03,9.235,7.442,20.507a33.274,33.274,0,0,1-2.045,6.077,37.988,37.988,0,0,1,6.425-1.917c11.968-2.436,21.78,7.007,21.78,7.007a60.5,60.5,0,0,0-14.988,4.265s22.323-2.134,41.084,16.242c-18.761,18.373-41.084,16.241-41.084,16.241a60.576,60.576,0,0,0,14.988,4.265s-9.813,9.439-21.78,7a38.429,38.429,0,0,1-6.418-1.911,33.312,33.312,0,0,1,2.046,6.074c2.586,11.269-7.442,20.507-7.442,20.507l0-.039-.04.039A51.907,51.907,0,0,0,164.6-404.86c.138,1.614,1.451,21.618-17.266,38.558Zm0-30.038c.464-.192,17.014-7.234,12.182-23.807-.166.081-.339.156-.511.231-.114.053-.224.109-.343.156-.356.156-.713.308-1.077.452-.21.08-.427.145-.637.22s-.408.146-.613.213c-.282.093-.555.2-.839.286.622,3.923.993,13.3-8.142,18.5l-.021-.014-.023.014c-9.13-5.205-8.759-14.578-8.139-18.5-.285-.084-.553-.192-.83-.285-.217-.071-.436-.146-.653-.224-.569-.206-1.135-.421-1.69-.664-.114-.047-.229-.1-.343-.156-.17-.075-.34-.149-.506-.228C130.3-403.592,146.846-396.55,147.313-396.358Zm-7.995-64.555a19.422,19.422,0,0,0-12.582,17.868,18.374,18.374,0,0,0,2.07,8.424,19.156,19.156,0,0,0,1.044,1.788,19.926,19.926,0,0,0,2.919,3.5,20.78,20.78,0,0,0,4.107,2.972q.6.335,1.226.63a21.5,21.5,0,0,0,9.207,2.074c11.362-.011,20.573-8.685,20.573-19.387s-9.211-19.378-20.573-19.389A21.618,21.618,0,0,0,139.318-460.914ZM97.73-443.046s7.435,16.083,25.27,11.5l-.016-.034c-.18-.338-.359-.675-.521-1.019-.175-.37-.337-.74-.491-1.116-.151-.354-.289-.711-.42-1.072-.07-.2-.161-.387-.229-.586-4.187.579-14.093.9-19.6-7.669,5.511-8.57,15.418-8.25,19.608-7.667A24.059,24.059,0,0,1,123-454.544a24.852,24.852,0,0,0-6.2-.823C103.424-455.369,97.73-443.046,97.73-443.046Zm75.383,8.127c-.158.447-.329.888-.515,1.326-.126.3-.254.6-.392.9-.186.388-.384.771-.585,1.148a24.817,24.817,0,0,0,6.194.822c13.377,0,19.072-12.317,19.072-12.317s-7.435-16.086-25.27-11.5l.016.035c.182.338.359.673.522,1.021.178.37.336.74.494,1.113q.22.53.415,1.073c.072.2.163.388.23.59,4.19-.583,14.092-.9,19.6,7.667-5.511,8.568-15.413,8.247-19.6,7.669C173.24-435.224,173.168-435.075,173.114-434.919Zm-17.646-32.573c.285.087.555.195.83.289.219.07.436.144.653.222.571.206,1.135.424,1.69.664.119.049.229.1.343.156.183.083.365.162.547.246,4.91-16.821-12.2-23.829-12.2-23.829s-17.1,7-12.205,23.814c.166-.083.34-.157.511-.231.114-.053.229-.108.343-.156.555-.24,1.121-.458,1.69-.664.217-.079.436-.152.653-.222.289-.1.569-.213.867-.3-.622-3.928-.986-13.284,8.142-18.489C156.461-480.784,156.088-471.412,155.468-467.491Zm187.457,33.523h-.043a7.793,7.793,0,0,1-8.014-7.545,7.792,7.792,0,0,1,8.014-7.544h.045c.279,0,.55.014.821.04a8.317,8.317,0,0,1,1.564.3c.251.075.5.156.733.251a8,8,0,0,1,1.1.551c.139.081.279.164.415.253a8.635,8.635,0,0,1,1.031.812,8.2,8.2,0,0,1,.863.972c.094.129.185.256.271.391a7.171,7.171,0,0,1,1.213,3.973,7.258,7.258,0,0,1-1.831,4.8c-.163.185-.336.365-.516.536a8.11,8.11,0,0,1-2.55,1.616,6.913,6.913,0,0,1-.733.253,8.43,8.43,0,0,1-1.564.3c-.271.025-.543.042-.821.042Zm-195.6-1.534h-.041a7.792,7.792,0,0,1-8.014-7.544,7.791,7.791,0,0,1,8.014-7.544h.045c.279,0,.55.014.822.04a8.28,8.28,0,0,1,1.562.3c.252.075.5.156.735.251a8.006,8.006,0,0,1,1.1.551c.139.08.279.164.414.253a8.491,8.491,0,0,1,1.033.812,8.32,8.32,0,0,1,.863.972c.094.128.185.255.271.391a7.165,7.165,0,0,1,1.212,3.973,7.263,7.263,0,0,1-1.829,4.8c-.163.185-.336.365-.516.536a8.147,8.147,0,0,1-2.55,1.616,6.8,6.8,0,0,1-.735.253,8.382,8.382,0,0,1-1.562.3c-.271.025-.543.041-.822.041Zm293.38-21.35-.023.019c-18.714-16.939-17.4-36.945-17.262-38.559a51.843,51.843,0,0,0-4.474,13.992l-.04-.037,0,.037s-10.03-9.237-7.442-20.507a33.269,33.269,0,0,1,2.045-6.076,37.909,37.909,0,0,1-6.424,1.914c-11.969,2.436-21.782-7-21.782-7a60.5,60.5,0,0,0,14.988-4.265s-22.323,2.134-41.084-16.241c18.761-18.374,41.084-16.242,41.084-16.242a60.573,60.573,0,0,0-14.988-4.264s9.813-9.443,21.782-7.006a38.218,38.218,0,0,1,6.472,1.933,33.319,33.319,0,0,1-2.058-6.094c-2.588-11.27,7.442-20.507,7.442-20.507a51.883,51.883,0,0,0,4.531,14.11s-2.268-21.015,17.253-38.679c19.517,17.664,17.254,38.679,17.254,38.679a51.98,51.98,0,0,0,4.526-14.11s10.03,9.236,7.442,20.507a33.234,33.234,0,0,1-2.045,6.076,38.119,38.119,0,0,1,6.425-1.916c11.967-2.437,21.78,7.006,21.78,7.006a60.574,60.574,0,0,0-14.988,4.264s22.323-2.132,41.084,16.242c-18.761,18.374-41.084,16.241-41.084,16.241a60.5,60.5,0,0,0,14.988,4.265s-9.813,9.441-21.78,7a38.31,38.31,0,0,1-6.418-1.91,33.3,33.3,0,0,1,2.046,6.072c2.586,11.269-7.442,20.507-7.442,20.507l0-.037-.04.037a51.906,51.906,0,0,0-4.474-13.992c.138,1.614,1.451,21.62-17.266,38.559Zm0-30.038c.464-.192,17.014-7.232,12.182-23.807-.166.081-.339.156-.51.232-.114.051-.224.108-.343.156-.356.155-.713.308-1.077.452-.21.08-.427.145-.637.218s-.408.146-.613.213c-.282.093-.555.2-.839.286.622,3.923.993,13.3-8.142,18.5l-.021-.014-.023.014c-9.13-5.205-8.759-14.578-8.139-18.5-.285-.086-.553-.192-.83-.286-.217-.071-.436-.146-.653-.222-.569-.207-1.135-.423-1.69-.664-.114-.048-.229-.1-.343-.156-.17-.076-.34-.151-.506-.229C423.695-494.124,440.241-487.084,440.707-486.892Zm-7.995-64.554A19.42,19.42,0,0,0,420.13-533.58a18.38,18.38,0,0,0,2.07,8.426,19.553,19.553,0,0,0,1.044,1.788,19.974,19.974,0,0,0,2.919,3.5,20.842,20.842,0,0,0,4.108,2.973q.6.334,1.226.628a21.514,21.514,0,0,0,9.207,2.076c11.362-.011,20.573-8.687,20.573-19.388s-9.211-19.377-20.573-19.388A21.62,21.62,0,0,0,432.712-551.446ZM391.125-533.58s7.435,16.083,25.27,11.5l-.016-.035c-.18-.338-.359-.675-.521-1.021-.175-.37-.337-.74-.491-1.115-.151-.355-.289-.711-.42-1.072-.07-.2-.161-.388-.229-.586-4.187.577-14.093.9-19.6-7.67,5.511-8.569,15.418-8.25,19.608-7.667a24.05,24.05,0,0,1,1.674-3.83,24.833,24.833,0,0,0-6.2-.824C396.819-545.9,391.125-533.58,391.125-533.58Zm75.383,8.127c-.158.447-.329.888-.515,1.326-.126.3-.254.6-.392.9-.186.387-.384.769-.585,1.148a24.814,24.814,0,0,0,6.192.822c13.379,0,19.074-12.319,19.074-12.319s-7.435-16.086-25.27-11.5l.016.035c.182.338.359.672.522,1.019.178.37.336.74.494,1.113q.22.532.415,1.074c.072.2.163.387.23.588,4.19-.583,14.092-.9,19.6,7.667-5.511,8.569-15.413,8.247-19.6,7.67C466.634-525.758,466.563-525.607,466.508-525.452Zm-17.646-32.573c.285.087.555.2.83.289q.328.106.653.224c.571.2,1.135.424,1.69.664.119.047.229.1.343.156.183.081.365.16.547.246,4.91-16.822-12.2-23.831-12.2-23.831s-17.1,7.006-12.205,23.814c.166-.082.34-.157.51-.229.114-.054.229-.109.343-.156.555-.24,1.121-.46,1.69-.664.217-.079.436-.153.653-.224.289-.1.569-.213.867-.3-.622-3.928-.986-13.284,8.142-18.488C449.855-571.317,449.483-561.945,448.862-558.025ZM245.111-458.388l-.023.019c-18.714-16.939-17.4-36.945-17.262-38.559a51.848,51.848,0,0,0-4.474,13.993l-.04-.037,0,.037s-10.03-9.238-7.442-20.507a33.268,33.268,0,0,1,2.045-6.076,38.126,38.126,0,0,1-6.425,1.914c-11.968,2.436-21.78-7-21.78-7a60.484,60.484,0,0,0,14.987-4.265s-22.321,2.134-41.083-16.241c18.761-18.374,41.083-16.242,41.083-16.242a60.484,60.484,0,0,0-14.987-4.265s9.813-9.443,21.78-7.006a38.308,38.308,0,0,1,6.472,1.932,33.387,33.387,0,0,1-2.057-6.093c-2.588-11.271,7.442-20.507,7.442-20.507a51.91,51.91,0,0,0,4.53,14.11s-2.267-21.015,17.255-38.679c19.517,17.664,17.255,38.679,17.255,38.679a51.981,51.981,0,0,0,4.526-14.11s10.03,9.236,7.442,20.507a33.228,33.228,0,0,1-2.045,6.076,38.174,38.174,0,0,1,6.424-1.915c11.969-2.437,21.78,7.006,21.78,7.006a60.5,60.5,0,0,0-14.987,4.265s22.323-2.132,41.084,16.242c-18.761,18.374-41.084,16.241-41.084,16.241a60.5,60.5,0,0,0,14.987,4.265s-9.811,9.44-21.78,7a38.564,38.564,0,0,1-6.416-1.91,33.187,33.187,0,0,1,2.045,6.072c2.588,11.269-7.442,20.507-7.442,20.507l0-.037-.038.037a51.885,51.885,0,0,0-4.476-13.993c.139,1.614,1.452,21.62-17.265,38.559Zm0-30.038c.464-.192,17.012-7.232,12.182-23.807-.166.082-.34.156-.51.232-.114.051-.226.108-.345.155-.355.156-.711.309-1.075.453-.21.08-.427.144-.637.218s-.408.146-.613.213c-.282.093-.554.2-.839.286.62,3.923.993,13.3-8.142,18.5l-.02-.014-.023.014c-9.132-5.205-8.759-14.578-8.139-18.5-.285-.086-.553-.192-.83-.286-.219-.07-.436-.146-.653-.224-.571-.206-1.135-.421-1.69-.664-.114-.047-.229-.1-.345-.155-.17-.076-.34-.15-.506-.229C228.1-495.658,244.645-488.618,245.111-488.426Zm-8-64.554a19.417,19.417,0,0,0-12.581,17.866,18.4,18.4,0,0,0,2.068,8.426,19.2,19.2,0,0,0,1.046,1.788,19.9,19.9,0,0,0,2.919,3.5,20.762,20.762,0,0,0,4.106,2.972q.6.336,1.226.63a21.522,21.522,0,0,0,9.207,2.076c11.363-.011,20.574-8.687,20.574-19.388s-9.211-19.377-20.574-19.388A21.621,21.621,0,0,0,237.115-552.98Zm-41.586,17.866s7.435,16.083,25.27,11.5l-.016-.036c-.182-.338-.359-.675-.522-1.019-.173-.37-.336-.74-.49-1.114-.151-.355-.289-.711-.42-1.072-.072-.2-.163-.388-.23-.586-4.185.577-14.092.9-19.6-7.67,5.511-8.569,15.418-8.25,19.608-7.667a24.045,24.045,0,0,1,1.674-3.83,24.839,24.839,0,0,0-6.2-.824C201.223-547.435,195.529-535.114,195.529-535.114Zm75.382,8.127c-.158.447-.329.888-.513,1.326-.128.3-.254.6-.392.9-.186.387-.384.769-.587,1.148a24.812,24.812,0,0,0,6.194.822c13.379,0,19.072-12.319,19.072-12.319s-7.433-16.086-25.269-11.5l.015.035c.183.338.361.671.522,1.019.179.37.337.74.5,1.113.145.355.285.711.415,1.074.07.2.161.387.229.588,4.19-.583,14.093-.9,19.6,7.667-5.511,8.568-15.415,8.247-19.6,7.67C271.037-527.292,270.967-527.143,270.911-526.987Zm-17.645-32.573c.285.087.553.2.83.289.217.07.436.145.653.224.569.2,1.135.423,1.689.664.119.047.23.1.345.156.182.082.364.16.546.245,4.91-16.821-12.2-23.829-12.2-23.829s-17.1,7.006-12.207,23.814c.167-.082.34-.158.511-.229.116-.054.23-.109.345-.156.554-.242,1.119-.46,1.69-.664.217-.079.434-.153.653-.224.289-.1.569-.213.865-.3-.62-3.928-.984-13.284,8.143-18.488C254.258-572.851,253.887-563.48,253.266-559.559ZM50.777-490.567c3.869-2.03,14.993-9.228,10.92-23.2-.166.081-.34.156-.511.231-.114.052-.226.109-.345.156-.356.156-.711.309-1.077.452-.208.081-.427.145-.635.219s-.408.146-.615.213c-.28.092-.553.2-.838.286.591,3.736.957,12.418-6.9,17.733V-517.3c10.773-.626,19.307-9.05,19.307-19.351S61.551-555.374,50.777-556v-22.817c7.849,5.316,7.484,13.99,6.892,17.723.286.087.555.2.832.289.217.07.434.145.653.224.569.2,1.135.423,1.688.664.119.047.23.1.345.156.182.081.364.16.546.244,4.091-14.015-7.106-21.218-10.955-23.231v-29.489c18.172,17.409,16.008,37.518,16.008,37.518a51.92,51.92,0,0,0,4.526-14.11s10.03,9.236,7.442,20.507a33.235,33.235,0,0,1-2.045,6.076,38.115,38.115,0,0,1,6.425-1.915c11.969-2.437,21.78,7.006,21.78,7.006a60.5,60.5,0,0,0-14.987,4.265s22.321-2.133,41.083,16.242c-18.761,18.373-41.083,16.241-41.083,16.241a60.5,60.5,0,0,0,14.987,4.265s-9.811,9.441-21.78,7a38.409,38.409,0,0,1-6.417-1.911,33.24,33.24,0,0,1,2.045,6.074c2.588,11.269-7.442,20.507-7.442,20.507l0-.037-.04.037A51.845,51.845,0,0,0,66.8-498.462c.135,1.578,1.395,20.722-16.024,37.4Zm24.538-37.954c-.158.448-.329.888-.515,1.326-.126.3-.252.6-.392.9-.185.387-.383.769-.585,1.146a24.842,24.842,0,0,0,6.2.823c13.377,0,19.071-12.318,19.071-12.318s-7.433-16.086-25.27-11.5l.016.035c.182.338.361.671.522,1.019.179.37.336.74.494,1.113.147.355.285.711.415,1.073.072.2.163.388.23.59,4.19-.583,14.093-.9,19.6,7.667-5.511,8.568-15.415,8.247-19.6,7.669C75.441-528.826,75.371-528.677,75.315-528.521Zm365.407,2.484h-.041a7.792,7.792,0,0,1-8.014-7.543,7.791,7.791,0,0,1,8.014-7.546h.045a8.084,8.084,0,0,1,.822.042,8.165,8.165,0,0,1,1.562.3q.378.11.735.25a8.342,8.342,0,0,1,1.1.551c.139.082.279.166.414.254a8.5,8.5,0,0,1,1.033.812,8.412,8.412,0,0,1,.862.971c.094.129.185.257.271.391a7.173,7.173,0,0,1,1.212,3.975,7.263,7.263,0,0,1-1.829,4.8c-.163.186-.336.366-.516.537a8.14,8.14,0,0,1-2.55,1.614,6.505,6.505,0,0,1-.735.254,8.508,8.508,0,0,1-1.562.3c-.271.023-.543.04-.822.04Zm-195.6-1.534h-.041a7.793,7.793,0,0,1-8.016-7.543,7.793,7.793,0,0,1,8.016-7.546h.046a8.019,8.019,0,0,1,.82.041,8.212,8.212,0,0,1,1.564.3q.379.11.734.25a8.106,8.106,0,0,1,1.1.551c.139.081.279.166.414.254a8.365,8.365,0,0,1,1.031.812,8.055,8.055,0,0,1,.863.971c.1.128.185.255.271.391a7.176,7.176,0,0,1,1.213,3.975,7.257,7.257,0,0,1-1.831,4.8,7.035,7.035,0,0,1-.516.536,8.115,8.115,0,0,1-2.55,1.616,6.411,6.411,0,0,1-.734.253,8.438,8.438,0,0,1-1.564.3c-.271.023-.541.04-.82.04ZM50.777-544.1a7.911,7.911,0,0,1,1.141.25c.251.073.5.155.733.25a8.02,8.02,0,0,1,1.1.551c.139.082.279.164.415.253a8.484,8.484,0,0,1,1.031.813,8.175,8.175,0,0,1,.863.971c.094.128.185.255.271.391a7.175,7.175,0,0,1,1.213,3.975,7.257,7.257,0,0,1-1.831,4.8c-.163.185-.336.366-.516.536a8.114,8.114,0,0,1-2.55,1.616,6.6,6.6,0,0,1-.733.253,8.135,8.135,0,0,1-1.141.249Zm487.729-4.819-.023.019c-18.714-16.94-17.4-36.944-17.262-38.559a51.845,51.845,0,0,0-4.474,13.994l-.04-.039,0,.039s-10.03-9.238-7.442-20.507a33.235,33.235,0,0,1,2.045-6.076,38.124,38.124,0,0,1-6.425,1.914c-11.968,2.435-21.78-7.006-21.78-7.006a60.507,60.507,0,0,0,14.987-4.263S475.765-607.273,457-625.646c18.761-18.376,41.083-16.242,41.083-16.242a60.483,60.483,0,0,0-14.987-4.265s9.813-9.443,21.78-7.007a38.3,38.3,0,0,1,6.472,1.933,33.461,33.461,0,0,1-2.057-6.093c-2.588-11.272,7.442-20.507,7.442-20.507a51.894,51.894,0,0,0,4.53,14.108S519-684.732,538.522-702.4c19.517,17.663,17.254,38.678,17.254,38.678a51.959,51.959,0,0,0,4.526-14.108s10.03,9.235,7.442,20.507a33.256,33.256,0,0,1-2.045,6.075,38.153,38.153,0,0,1,6.424-1.915c11.969-2.436,21.78,7.007,21.78,7.007a60.5,60.5,0,0,0-14.987,4.265s22.323-2.134,41.084,16.242c-18.761,18.373-41.084,16.241-41.084,16.241a60.526,60.526,0,0,0,14.987,4.263s-9.811,9.441-21.78,7.006a38.43,38.43,0,0,1-6.417-1.911,33.225,33.225,0,0,1,2.045,6.074c2.588,11.269-7.442,20.507-7.442,20.507l0-.039-.038.039a51.891,51.891,0,0,0-4.476-13.994c.139,1.616,1.452,21.62-17.265,38.559Zm0-30.037c.464-.192,17.012-7.234,12.182-23.809-.166.083-.34.156-.51.232-.114.052-.226.109-.345.156-.355.156-.711.308-1.075.452-.21.08-.427.145-.637.218s-.408.146-.613.213c-.282.094-.555.206-.839.287.621,3.922.993,13.3-8.142,18.5l-.021-.014-.023.014c-9.132-5.206-8.759-14.578-8.139-18.5-.284-.084-.553-.192-.83-.284q-.328-.108-.653-.224c-.571-.206-1.135-.423-1.69-.664-.115-.047-.229-.1-.345-.156-.17-.076-.34-.149-.506-.228C521.493-586.192,538.039-579.15,538.506-578.958Zm-8-64.555a19.421,19.421,0,0,0-12.581,17.868A18.389,18.389,0,0,0,520-617.222a18.874,18.874,0,0,0,1.046,1.789,19.91,19.91,0,0,0,2.919,3.5,20.765,20.765,0,0,0,4.106,2.972c.4.224.808.432,1.227.63a21.5,21.5,0,0,0,9.207,2.074c11.363-.011,20.574-8.686,20.574-19.387s-9.211-19.378-20.574-19.389A21.619,21.619,0,0,0,530.509-643.514Zm-41.586,17.868s7.435,16.083,25.27,11.5l-.016-.034c-.182-.338-.359-.675-.522-1.021-.173-.37-.336-.739-.49-1.114-.151-.354-.289-.711-.42-1.072-.072-.2-.163-.387-.23-.586-4.185.577-14.092.9-19.6-7.669,5.511-8.57,15.418-8.25,19.608-7.669a24.111,24.111,0,0,1,1.674-3.83,24.829,24.829,0,0,0-6.2-.823C494.618-637.968,488.924-625.646,488.924-625.646Zm75.382,8.127q-.238.669-.513,1.324c-.128.3-.254.6-.392.9-.187.387-.385.769-.587,1.148a24.82,24.82,0,0,0,6.194.822c13.379,0,19.072-12.317,19.072-12.317s-7.433-16.087-25.269-11.5l.015.035c.183.338.361.673.522,1.021.179.37.337.74.5,1.113.145.353.285.711.415,1.073.07.2.161.387.229.588,4.19-.581,14.093-.9,19.6,7.669-5.511,8.568-15.415,8.246-19.6,7.669C564.432-617.824,564.361-617.675,564.305-617.519Zm-17.645-32.573c.284.086.553.195.83.287.217.072.436.145.653.224.569.2,1.135.424,1.689.664.119.047.23.1.345.156.182.081.364.16.546.246,4.91-16.822-12.2-23.829-12.2-23.829s-17.1,7-12.207,23.813c.167-.081.34-.156.51-.229.116-.054.23-.109.345-.156.554-.24,1.119-.46,1.69-.664.217-.079.434-.152.653-.224.289-.1.569-.213.866-.3-.62-3.928-.984-13.285,8.143-18.489C547.652-663.383,547.281-654.013,546.661-650.091ZM342.91-550.456l-.025.019c-18.713-16.939-17.4-36.943-17.262-38.559A51.9,51.9,0,0,0,321.149-575l-.04-.037,0,.037s-10.028-9.236-7.44-20.507a33.257,33.257,0,0,1,2.045-6.075,38.175,38.175,0,0,1-6.425,1.914c-11.969,2.435-21.78-7.006-21.78-7.006a60.5,60.5,0,0,0,14.987-4.265s-22.322,2.134-41.084-16.239c18.763-18.376,41.084-16.244,41.084-16.244a60.532,60.532,0,0,0-14.987-4.263s9.811-9.443,21.78-7.007a38.209,38.209,0,0,1,6.472,1.933,33.318,33.318,0,0,1-2.057-6.094c-2.588-11.27,7.442-20.505,7.442-20.505a51.892,51.892,0,0,0,4.53,14.108s-2.268-21.015,17.253-38.678c19.518,17.663,17.254,38.678,17.254,38.678A51.9,51.9,0,0,0,364.7-679.36s10.03,9.235,7.442,20.505a33.236,33.236,0,0,1-2.045,6.076,38.126,38.126,0,0,1,6.425-1.915c11.969-2.436,21.78,7.007,21.78,7.007a60.531,60.531,0,0,0-14.987,4.263s22.321-2.132,41.083,16.244c-18.761,18.373-41.083,16.239-41.083,16.239a60.5,60.5,0,0,0,14.987,4.265s-9.811,9.441-21.78,7.006a38.411,38.411,0,0,1-6.417-1.911,33.228,33.228,0,0,1,2.045,6.072c2.588,11.27-7.442,20.507-7.442,20.507l0-.037-.04.037A51.839,51.839,0,0,0,360.2-589c.138,1.616,1.452,21.62-17.266,38.559Zm0-30.037c.462-.192,17.012-7.234,12.182-23.808-.166.083-.34.156-.51.232-.114.053-.226.109-.345.156-.356.156-.711.308-1.077.451-.208.08-.427.145-.635.218s-.408.146-.615.213c-.28.093-.553.2-.838.287.62,3.922.993,13.3-8.143,18.5l-.019-.015-.025.015c-9.13-5.206-8.759-14.579-8.137-18.5-.285-.086-.555-.192-.832-.285q-.326-.108-.653-.224c-.569-.207-1.135-.423-1.689-.664-.114-.047-.23-.1-.345-.156-.17-.076-.34-.149-.506-.228C325.9-587.726,342.442-580.684,342.91-580.493Zm-8-64.555a19.421,19.421,0,0,0-12.581,17.868,18.4,18.4,0,0,0,2.068,8.424,19.169,19.169,0,0,0,1.044,1.788,20.038,20.038,0,0,0,2.921,3.5,20.727,20.727,0,0,0,4.106,2.972c.4.224.807.432,1.226.63a21.518,21.518,0,0,0,9.207,2.074c11.363-.011,20.573-8.687,20.573-19.386s-9.21-19.378-20.573-19.389A21.619,21.619,0,0,0,334.914-645.048ZM293.328-627.18s7.433,16.082,25.27,11.5l-.016-.035c-.182-.338-.361-.675-.522-1.021-.175-.37-.337-.74-.491-1.114q-.225-.53-.42-1.072c-.07-.2-.161-.387-.229-.586-4.185.577-14.093.9-19.6-7.669,5.511-8.571,15.419-8.252,19.609-7.669a23.961,23.961,0,0,1,1.674-3.829,24.834,24.834,0,0,0-6.2-.824C299.021-639.5,293.328-627.18,293.328-627.18Zm75.382,8.127c-.158.446-.329.888-.515,1.324-.126.3-.252.6-.392.9-.185.387-.383.769-.585,1.148a24.825,24.825,0,0,0,6.194.822c13.379,0,19.072-12.317,19.072-12.317s-7.433-16.087-25.27-11.5l.016.034c.182.338.361.673.522,1.021.179.37.336.739.494,1.113q.22.53.415,1.073c.072.2.163.387.23.588,4.19-.583,14.093-.9,19.6,7.669-5.511,8.568-15.415,8.246-19.6,7.669C368.836-619.36,368.765-619.209,368.71-619.053Zm-17.646-32.573c.286.086.554.195.832.287.217.072.434.145.653.224.569.2,1.135.424,1.688.664.119.047.23.1.345.156.182.081.364.16.546.246,4.91-16.822-12.2-23.829-12.2-23.829s-17.1,7-12.205,23.813c.167-.081.34-.157.51-.229.115-.054.23-.109.345-.156.553-.24,1.119-.46,1.689-.664.219-.079.436-.152.653-.224.289-.1.571-.213.867-.3-.62-3.928-.984-13.285,8.142-18.489C352.057-664.918,351.685-655.548,351.063-651.625ZM147.313-551.99l-.023.019c-18.714-16.94-17.4-36.943-17.262-38.559a51.846,51.846,0,0,0-4.474,13.993l-.04-.037,0,.037s-10.03-9.236-7.442-20.507a33.27,33.27,0,0,1,2.045-6.076,38.025,38.025,0,0,1-6.424,1.915c-11.969,2.435-21.782-7.006-21.782-7.006a60.5,60.5,0,0,0,14.988-4.264s-22.323,2.134-41.084-16.241c18.761-18.374,41.084-16.242,41.084-16.242a60.572,60.572,0,0,0-14.988-4.265s9.813-9.443,21.782-7.006a38.211,38.211,0,0,1,6.472,1.934,33.325,33.325,0,0,1-2.058-6.094c-2.588-11.271,7.442-20.507,7.442-20.507a51.885,51.885,0,0,0,4.531,14.11s-2.268-21.015,17.253-38.679c19.517,17.664,17.255,38.679,17.255,38.679a51.984,51.984,0,0,0,4.526-14.11s10.03,9.236,7.442,20.507a33.236,33.236,0,0,1-2.045,6.076,38.126,38.126,0,0,1,6.425-1.916c11.968-2.437,21.78,7.006,21.78,7.006a60.572,60.572,0,0,0-14.988,4.265s22.323-2.132,41.084,16.242c-18.761,18.374-41.084,16.241-41.084,16.241a60.5,60.5,0,0,0,14.988,4.264s-9.813,9.441-21.78,7.006a38.418,38.418,0,0,1-6.418-1.911,33.3,33.3,0,0,1,2.046,6.072c2.586,11.27-7.442,20.507-7.442,20.507l0-.037-.04.037A51.909,51.909,0,0,0,164.6-590.53c.138,1.616,1.451,21.62-17.266,38.559Zm0-30.038c.464-.192,17.014-7.232,12.182-23.807-.166.083-.339.156-.511.232-.114.051-.224.108-.343.156-.356.155-.713.308-1.077.452-.21.08-.427.145-.637.218s-.408.146-.613.213c-.282.093-.555.2-.839.287.622,3.922.993,13.3-8.142,18.5l-.021-.015-.023.015c-9.13-5.206-8.759-14.579-8.139-18.5-.285-.086-.553-.192-.83-.284-.217-.072-.436-.148-.653-.224-.569-.207-1.135-.423-1.69-.664-.114-.048-.229-.1-.343-.156-.17-.076-.34-.149-.506-.228C130.3-589.261,146.846-582.22,147.313-582.028Zm-7.995-64.554a19.42,19.42,0,0,0-12.582,17.866,18.379,18.379,0,0,0,2.07,8.425,19.177,19.177,0,0,0,1.044,1.789,20.032,20.032,0,0,0,2.919,3.5,20.832,20.832,0,0,0,4.107,2.972q.6.334,1.226.63a21.536,21.536,0,0,0,9.207,2.074c11.362-.011,20.573-8.687,20.573-19.388s-9.211-19.377-20.573-19.388A21.621,21.621,0,0,0,139.318-646.582ZM97.73-628.716s7.435,16.083,25.27,11.5l-.016-.035c-.18-.338-.359-.675-.521-1.021-.175-.37-.337-.74-.491-1.114-.151-.354-.289-.711-.42-1.072-.07-.2-.161-.388-.229-.586-4.187.577-14.093.9-19.6-7.67,5.511-8.569,15.418-8.25,19.608-7.667a24.1,24.1,0,0,1,1.674-3.83,24.834,24.834,0,0,0-6.2-.824C103.424-641.037,97.73-628.716,97.73-628.716Zm75.383,8.127c-.158.447-.329.888-.515,1.326-.126.3-.254.6-.392.9-.186.387-.384.769-.585,1.148a24.814,24.814,0,0,0,6.192.822c13.379,0,19.074-12.319,19.074-12.319s-7.435-16.086-25.27-11.5l.016.035c.182.338.359.673.522,1.021.178.369.336.739.494,1.112q.22.533.415,1.074c.072.2.163.387.23.588,4.19-.583,14.092-.9,19.6,7.667-5.511,8.569-15.413,8.247-19.6,7.67C173.24-620.894,173.168-620.743,173.114-620.589ZM155.468-653.16c.285.086.555.195.83.287.219.07.436.145.653.224.571.2,1.135.424,1.69.664.119.047.229.1.343.156.183.082.365.16.547.246,4.91-16.822-12.2-23.831-12.2-23.831s-17.1,7.006-12.205,23.814c.166-.082.34-.158.511-.229.114-.054.229-.109.343-.156.555-.24,1.121-.46,1.69-.664.217-.079.436-.153.653-.224.289-.1.569-.213.867-.3-.622-3.928-.986-13.285,8.142-18.489C156.461-666.452,156.088-657.082,155.468-653.16ZM538.521-618.1h-.041a7.793,7.793,0,0,1-8.016-7.543,7.792,7.792,0,0,1,8.016-7.544h.045c.279,0,.549.014.82.04a8.32,8.32,0,0,1,1.564.3c.253.073.5.156.734.25a8.119,8.119,0,0,1,1.1.552c.139.08.279.164.414.253a8.351,8.351,0,0,1,1.031.812,8.174,8.174,0,0,1,.863.971c.1.13.185.257.271.391a7.176,7.176,0,0,1,1.213,3.975,7.255,7.255,0,0,1-1.831,4.8,7.355,7.355,0,0,1-.517.537,8.136,8.136,0,0,1-2.55,1.616,6.688,6.688,0,0,1-.734.253,8.54,8.54,0,0,1-1.564.3c-.271.024-.541.04-.82.04Zm-195.6-1.534h-.043a7.793,7.793,0,0,1-8.014-7.543,7.791,7.791,0,0,1,8.014-7.544h.045a8.081,8.081,0,0,1,.821.04,8.327,8.327,0,0,1,1.564.3c.251.073.5.156.733.25a8,8,0,0,1,1.1.552c.139.08.279.164.415.253a8.348,8.348,0,0,1,1.031.812,8.283,8.283,0,0,1,.863.971c.094.128.185.257.271.391a7.175,7.175,0,0,1,1.213,3.975,7.257,7.257,0,0,1-1.831,4.8c-.163.186-.336.366-.516.537a8.106,8.106,0,0,1-2.55,1.614,6.574,6.574,0,0,1-.733.254,8.537,8.537,0,0,1-1.564.3c-.271.023-.543.04-.821.04Zm-195.6-1.534h-.041a7.792,7.792,0,0,1-8.014-7.543,7.79,7.79,0,0,1,8.014-7.544h.045a8.049,8.049,0,0,1,.822.04,8.16,8.16,0,0,1,1.562.3q.378.11.735.25a8.351,8.351,0,0,1,1.1.551c.139.081.279.166.414.254a8.479,8.479,0,0,1,1.033.812,8.425,8.425,0,0,1,.863.971c.094.128.185.257.271.391a7.174,7.174,0,0,1,1.212,3.975,7.262,7.262,0,0,1-1.829,4.8c-.163.187-.336.366-.516.537a8.143,8.143,0,0,1-2.55,1.614,6.561,6.561,0,0,1-.735.254,8.513,8.513,0,0,1-1.562.3c-.271.024-.543.04-.822.04Zm293.38-21.349-.023.018c-18.714-16.939-17.4-36.943-17.262-38.558a51.846,51.846,0,0,0-4.474,13.992l-.04-.039,0,.039s-10.03-9.238-7.442-20.507a33.235,33.235,0,0,1,2.045-6.076,38.134,38.134,0,0,1-6.424,1.914c-11.969,2.435-21.782-7-21.782-7a60.575,60.575,0,0,0,14.988-4.265s-22.323,2.132-41.084-16.241c18.761-18.376,41.084-16.242,41.084-16.242a60.5,60.5,0,0,0-14.988-4.265s9.813-9.443,21.782-7.007a38.346,38.346,0,0,1,6.472,1.933,33.3,33.3,0,0,1-2.058-6.093c-2.588-11.272,7.442-20.507,7.442-20.507a51.868,51.868,0,0,0,4.531,14.108S421.2-778.335,440.723-796c19.517,17.663,17.254,38.678,17.254,38.678a51.966,51.966,0,0,0,4.526-14.108s10.03,9.235,7.442,20.507a33.262,33.262,0,0,1-2.045,6.076,38.01,38.01,0,0,1,6.425-1.917c11.967-2.436,21.78,7.007,21.78,7.007a60.5,60.5,0,0,0-14.988,4.265s22.323-2.134,41.084,16.242c-18.761,18.373-41.084,16.241-41.084,16.241a60.576,60.576,0,0,0,14.988,4.265s-9.813,9.439-21.78,7a38.405,38.405,0,0,1-6.418-1.911,33.321,33.321,0,0,1,2.046,6.074c2.586,11.269-7.442,20.507-7.442,20.507l0-.039-.04.039a51.909,51.909,0,0,0-4.474-13.992c.138,1.614,1.451,21.618-17.266,38.558Zm0-30.038c.464-.192,17.014-7.234,12.182-23.807-.166.082-.339.155-.51.231-.114.053-.224.109-.343.156-.356.156-.713.308-1.077.451-.21.08-.427.145-.637.22s-.408.146-.613.213c-.282.093-.555.2-.839.286.622,3.923.993,13.3-8.142,18.5l-.021-.014-.023.014c-9.13-5.2-8.759-14.578-8.139-18.5-.285-.084-.553-.192-.83-.284-.217-.07-.436-.146-.653-.224-.569-.206-1.135-.421-1.69-.664-.114-.047-.229-.1-.343-.156-.17-.076-.34-.149-.506-.228C423.695-679.794,440.241-672.752,440.707-672.56Zm-7.995-64.555a19.422,19.422,0,0,0-12.582,17.868,18.374,18.374,0,0,0,2.07,8.424,19.2,19.2,0,0,0,1.044,1.788,19.927,19.927,0,0,0,2.919,3.5,20.777,20.777,0,0,0,4.108,2.972q.6.336,1.226.63a21.5,21.5,0,0,0,9.207,2.074c11.362-.011,20.573-8.685,20.573-19.387s-9.211-19.378-20.573-19.389A21.65,21.65,0,0,0,432.712-737.116Zm-41.587,17.868s7.435,16.083,25.27,11.5l-.016-.035c-.18-.338-.359-.675-.521-1.021-.175-.369-.337-.739-.491-1.114-.151-.354-.289-.711-.42-1.072-.07-.2-.161-.387-.229-.586-4.187.579-14.093.9-19.6-7.669,5.511-8.571,15.418-8.25,19.608-7.667a24.068,24.068,0,0,1,1.674-3.831,24.846,24.846,0,0,0-6.2-.823C396.818-731.571,391.125-719.248,391.125-719.248Zm75.383,8.127c-.158.447-.329.888-.515,1.326-.126.3-.254.6-.392.895-.186.388-.384.771-.585,1.148a24.811,24.811,0,0,0,6.194.822c13.377,0,19.072-12.317,19.072-12.317s-7.435-16.086-25.27-11.5l.016.035c.182.338.359.673.522,1.021.178.37.336.74.494,1.113q.22.53.415,1.073c.072.2.163.388.23.59,4.19-.583,14.092-.9,19.6,7.667-5.511,8.568-15.413,8.247-19.6,7.669C466.634-711.426,466.563-711.277,466.508-711.121Zm-17.646-32.573c.285.087.555.195.83.289.219.071.436.144.653.222.571.206,1.135.424,1.69.664.119.048.229.1.343.156.183.083.365.162.547.246,4.91-16.821-12.2-23.829-12.2-23.829s-17.1,7-12.205,23.814c.166-.083.34-.157.51-.231.114-.053.229-.108.343-.156.555-.24,1.121-.458,1.69-.664.217-.079.436-.152.653-.222.289-.1.569-.213.867-.3-.622-3.928-.986-13.284,8.142-18.489C449.855-756.985,449.483-747.614,448.862-743.693ZM245.111-644.056l-.023.018c-18.714-16.939-17.4-36.943-17.262-38.559a51.848,51.848,0,0,0-4.474,13.994l-.04-.039,0,.039s-10.03-9.237-7.442-20.507a33.232,33.232,0,0,1,2.045-6.076,38.14,38.14,0,0,1-6.425,1.914c-11.968,2.435-21.78-7-21.78-7a60.556,60.556,0,0,0,14.987-4.265s-22.321,2.132-41.083-16.241c18.761-18.376,41.083-16.242,41.083-16.242a60.478,60.478,0,0,0-14.987-4.265s9.813-9.443,21.78-7.007a38.3,38.3,0,0,1,6.472,1.933,33.452,33.452,0,0,1-2.057-6.093c-2.588-11.272,7.442-20.507,7.442-20.507a51.893,51.893,0,0,0,4.53,14.108s-2.267-21.015,17.255-38.678c19.517,17.663,17.255,38.678,17.255,38.678a51.965,51.965,0,0,0,4.526-14.108s10.03,9.235,7.442,20.507a33.264,33.264,0,0,1-2.045,6.076,38,38,0,0,1,6.424-1.917c11.969-2.436,21.78,7.007,21.78,7.007a60.5,60.5,0,0,0-14.987,4.265s22.323-2.134,41.084,16.242c-18.761,18.373-41.084,16.241-41.084,16.241a60.573,60.573,0,0,0,14.987,4.265s-9.811,9.439-21.78,7a38.463,38.463,0,0,1-6.416-1.911,33.2,33.2,0,0,1,2.045,6.074c2.588,11.269-7.442,20.507-7.442,20.507l0-.039-.038.039A51.885,51.885,0,0,0,262.4-682.6c.139,1.616,1.452,21.62-17.265,38.559Zm0-30.038c.464-.192,17.012-7.234,12.182-23.807-.166.081-.34.155-.51.231-.114.052-.226.109-.345.156-.355.156-.711.308-1.075.452-.21.08-.427.145-.637.22s-.408.146-.613.211c-.282.094-.554.206-.839.287.62,3.922.993,13.3-8.142,18.5l-.02-.014-.023.014c-9.132-5.206-8.759-14.578-8.139-18.5-.285-.084-.553-.192-.83-.284-.219-.07-.436-.146-.653-.224-.571-.206-1.135-.421-1.69-.664-.114-.047-.229-.1-.345-.156-.17-.076-.34-.149-.506-.228C228.1-681.328,244.645-674.286,245.111-674.095Zm-8-64.555a19.42,19.42,0,0,0-12.581,17.867,18.392,18.392,0,0,0,2.068,8.424,18.86,18.86,0,0,0,1.046,1.788,19.872,19.872,0,0,0,2.919,3.5,20.774,20.774,0,0,0,4.106,2.972c.4.224.808.432,1.226.63a21.5,21.5,0,0,0,9.207,2.074c11.363-.011,20.574-8.685,20.574-19.387s-9.211-19.378-20.574-19.389A21.619,21.619,0,0,0,237.115-738.65Zm-41.586,17.867s7.435,16.083,25.27,11.5l-.016-.035c-.182-.338-.359-.675-.522-1.021-.173-.369-.336-.739-.49-1.115-.151-.353-.289-.711-.42-1.072-.072-.2-.163-.387-.23-.586-4.185.577-14.092.9-19.6-7.669,5.511-8.571,15.418-8.25,19.608-7.669a24.094,24.094,0,0,1,1.674-3.829,24.844,24.844,0,0,0-6.2-.823C201.222-733.105,195.529-720.782,195.529-720.782Zm75.382,8.127c-.158.447-.329.888-.513,1.326-.128.3-.254.6-.392.895-.186.388-.384.771-.587,1.148a24.831,24.831,0,0,0,6.194.822c13.379,0,19.072-12.317,19.072-12.317s-7.433-16.086-25.269-11.5l.015.034c.183.338.361.673.522,1.021.179.37.337.74.5,1.113.145.354.285.711.415,1.073.07.2.161.388.229.588,4.19-.581,14.093-.9,19.6,7.669-5.511,8.568-15.415,8.246-19.6,7.669C271.037-712.96,270.967-712.811,270.911-712.655Zm-17.645-32.573c.285.087.553.195.83.287.217.072.436.145.653.224.569.2,1.135.424,1.689.664.119.048.23.1.345.156.182.081.364.16.546.246,4.91-16.822-12.2-23.829-12.2-23.829s-17.1,7-12.207,23.814c.167-.083.34-.157.511-.231.116-.054.23-.108.345-.156.554-.24,1.119-.46,1.69-.664.217-.079.434-.152.653-.224.289-.1.569-.211.865-.3-.62-3.928-.984-13.284,8.143-18.489C254.258-758.52,253.887-749.15,253.266-745.228ZM50.777-676.236c3.869-2.03,14.993-9.228,10.92-23.2-.166.083-.34.156-.511.232-.114.052-.226.109-.345.156-.356.156-.711.308-1.077.452-.208.08-.427.145-.635.218s-.408.147-.615.213c-.28.094-.553.2-.838.287.591,3.735.957,12.416-6.9,17.732v-22.82c10.773-.626,19.307-9.05,19.307-19.349s-8.533-18.726-19.307-19.352v-22.818c7.849,5.317,7.484,13.99,6.892,17.724.286.086.555.195.832.287.217.072.434.145.653.224.569.2,1.135.424,1.688.664.119.047.23.1.345.156.182.082.364.16.546.246,4.091-14.016-7.106-21.219-10.955-23.231v-29.489c18.172,17.409,16.008,37.517,16.008,37.517A51.9,51.9,0,0,0,71.31-774.5s10.03,9.235,7.442,20.507a33.256,33.256,0,0,1-2.045,6.075,38.12,38.12,0,0,1,6.425-1.916c11.969-2.436,21.78,7.007,21.78,7.007a60.5,60.5,0,0,0-14.987,4.265s22.321-2.134,41.083,16.242c-18.761,18.373-41.083,16.241-41.083,16.241a60.525,60.525,0,0,0,14.987,4.263s-9.811,9.441-21.78,7.006a38.386,38.386,0,0,1-6.417-1.911,33.208,33.208,0,0,1,2.045,6.074c2.588,11.269-7.442,20.507-7.442,20.507l0-.039-.04.039A51.847,51.847,0,0,0,66.8-684.132c.135,1.579,1.395,20.722-16.024,37.4Zm24.538-37.954c-.158.446-.329.888-.515,1.324-.126.3-.252.6-.392.9-.185.387-.383.769-.585,1.148a24.82,24.82,0,0,0,6.194.822c13.379,0,19.072-12.317,19.072-12.317s-7.433-16.087-25.27-11.5l.016.035c.182.338.361.673.522,1.021.179.37.336.74.494,1.113q.22.53.415,1.073c.072.2.163.387.23.588,4.19-.581,14.093-.9,19.6,7.669-5.511,8.568-15.415,8.246-19.6,7.669C75.441-714.495,75.371-714.345,75.315-714.189ZM440.722-711.7h-.041a7.792,7.792,0,0,1-8.014-7.544,7.791,7.791,0,0,1,8.014-7.544h.045c.279,0,.55.014.822.04a8.28,8.28,0,0,1,1.562.3c.252.075.5.156.735.251a8.006,8.006,0,0,1,1.1.551c.139.08.279.164.414.253a8.5,8.5,0,0,1,1.033.812,8.311,8.311,0,0,1,.862.972c.094.128.185.255.271.391a7.166,7.166,0,0,1,1.212,3.973,7.263,7.263,0,0,1-1.829,4.8c-.163.185-.336.365-.516.536a8.146,8.146,0,0,1-2.55,1.616,6.8,6.8,0,0,1-.735.253,8.392,8.392,0,0,1-1.562.3c-.271.025-.543.041-.822.041Zm-195.6-1.536h-.041a7.792,7.792,0,0,1-8.016-7.543,7.792,7.792,0,0,1,8.016-7.545h.046c.279,0,.549.014.82.04a8.318,8.318,0,0,1,1.564.3q.379.11.734.25a8.12,8.12,0,0,1,1.1.552c.139.08.279.164.414.253a8.366,8.366,0,0,1,1.031.812,8.153,8.153,0,0,1,.863.971c.1.13.185.257.271.392a7.167,7.167,0,0,1,1.213,3.973,7.258,7.258,0,0,1-1.831,4.8c-.161.185-.334.365-.516.536a8.111,8.111,0,0,1-2.55,1.616,6.657,6.657,0,0,1-.734.253,8.543,8.543,0,0,1-1.564.3c-.271.025-.541.04-.82.04ZM50.777-729.771a8.136,8.136,0,0,1,1.141.25c.251.073.5.156.733.25a8.026,8.026,0,0,1,1.1.552c.139.08.279.164.415.253a8.361,8.361,0,0,1,1.031.812,8.288,8.288,0,0,1,.863.971c.094.13.185.257.271.391a7.176,7.176,0,0,1,1.213,3.975,7.254,7.254,0,0,1-1.831,4.8c-.163.186-.336.366-.516.537a8.136,8.136,0,0,1-2.55,1.616,6.952,6.952,0,0,1-.733.253,8.329,8.329,0,0,1-1.141.249Zm292.133-6.353-.025.019c-18.713-16.939-17.4-36.945-17.262-38.559a51.906,51.906,0,0,0-4.474,13.992l-.04-.037,0,.037s-10.028-9.238-7.44-20.507a33.238,33.238,0,0,1,2.045-6.076,38.169,38.169,0,0,1-6.425,1.914c-11.969,2.436-21.78-7-21.78-7a60.5,60.5,0,0,0,14.987-4.264s-22.322,2.132-41.084-16.241c18.763-18.376,41.084-16.242,41.084-16.242a60.5,60.5,0,0,0-14.987-4.265s9.811-9.443,21.78-7.006a38.2,38.2,0,0,1,6.472,1.932,33.27,33.27,0,0,1-2.057-6.093c-2.588-11.271,7.442-20.507,7.442-20.507a51.908,51.908,0,0,0,4.53,14.11S323.4-871.937,342.925-889.6c19.518,17.663,17.254,38.679,17.254,38.679a51.919,51.919,0,0,0,4.526-14.11s10.03,9.236,7.442,20.507a33.233,33.233,0,0,1-2.045,6.076,38.12,38.12,0,0,1,6.425-1.915c11.969-2.438,21.78,7.006,21.78,7.006a60.5,60.5,0,0,0-14.987,4.265s22.321-2.134,41.083,16.242c-18.761,18.373-41.083,16.241-41.083,16.241a60.5,60.5,0,0,0,14.987,4.264s-9.811,9.441-21.78,7a38.4,38.4,0,0,1-6.417-1.911,33.243,33.243,0,0,1,2.045,6.074c2.588,11.269-7.442,20.507-7.442,20.507l0-.037-.04.037a51.84,51.84,0,0,0-4.474-13.992c.138,1.614,1.452,21.62-17.266,38.559Zm0-30.038c.462-.192,17.012-7.234,12.182-23.807-.166.081-.34.156-.51.231-.114.053-.226.109-.345.156-.356.156-.711.309-1.077.452-.208.081-.427.145-.635.22s-.408.146-.615.213c-.28.093-.553.2-.838.286.62,3.923.993,13.3-8.143,18.5l-.019-.014-.025.014c-9.13-5.2-8.759-14.578-8.137-18.5-.285-.086-.555-.193-.832-.286-.217-.07-.434-.146-.653-.224-.569-.206-1.135-.421-1.689-.664-.114-.047-.23-.1-.345-.156-.17-.075-.34-.149-.506-.228C325.9-773.4,342.442-766.354,342.91-766.162Zm-8-64.554a19.417,19.417,0,0,0-12.581,17.866,18.4,18.4,0,0,0,2.068,8.426,19.334,19.334,0,0,0,1.044,1.787,19.939,19.939,0,0,0,2.921,3.5,20.726,20.726,0,0,0,4.106,2.972q.6.336,1.226.63a21.519,21.519,0,0,0,9.207,2.076c11.363-.011,20.573-8.687,20.573-19.388s-9.21-19.378-20.573-19.389A21.648,21.648,0,0,0,334.914-830.716ZM293.328-812.85s7.433,16.083,25.27,11.5l-.016-.035c-.182-.338-.361-.675-.522-1.019-.175-.37-.337-.74-.491-1.115q-.225-.532-.42-1.073c-.07-.2-.161-.387-.229-.586-4.185.579-14.093.9-19.6-7.669,5.511-8.569,15.419-8.25,19.609-7.667a23.86,23.86,0,0,1,1.674-3.83,24.837,24.837,0,0,0-6.2-.823C299.02-825.171,293.328-812.85,293.328-812.85Zm75.382,8.127c-.158.447-.329.888-.515,1.326-.126.3-.252.6-.392.9-.185.387-.383.769-.585,1.146a24.842,24.842,0,0,0,6.2.823c13.377,0,19.071-12.319,19.071-12.319s-7.433-16.086-25.27-11.5l.016.035c.182.339.361.671.522,1.019.179.37.336.74.494,1.113.147.355.285.711.415,1.073.072.2.163.388.23.59,4.19-.583,14.093-.9,19.6,7.667-5.511,8.568-15.415,8.247-19.6,7.669C368.836-805.028,368.765-804.879,368.71-804.723ZM351.063-837.3c.286.087.554.2.832.289q.326.106.653.224c.569.2,1.135.423,1.688.664.119.047.23.1.345.156.182.082.364.16.546.245,4.91-16.821-12.2-23.829-12.2-23.829s-17.1,7.006-12.205,23.814c.167-.081.34-.157.51-.229.115-.054.23-.109.345-.156.553-.242,1.119-.46,1.689-.664q.328-.118.653-.224c.289-.1.571-.213.867-.3-.62-3.928-.984-13.284,8.142-18.488C352.057-850.587,351.685-841.216,351.063-837.3ZM147.313-737.658l-.023.018c-18.714-16.94-17.4-36.943-17.262-38.558a51.843,51.843,0,0,0-4.474,13.992l-.04-.037,0,.037s-10.03-9.237-7.442-20.507a33.235,33.235,0,0,1,2.045-6.076,38.157,38.157,0,0,1-6.424,1.914c-11.969,2.435-21.782-7-21.782-7a60.5,60.5,0,0,0,14.988-4.265s-22.323,2.132-41.084-16.241c18.761-18.376,41.084-16.242,41.084-16.242a60.5,60.5,0,0,0-14.988-4.265s9.813-9.443,21.782-7.007a38.329,38.329,0,0,1,6.472,1.933,33.3,33.3,0,0,1-2.058-6.093c-2.588-11.272,7.442-20.507,7.442-20.507a51.866,51.866,0,0,0,4.531,14.108s-2.268-21.015,17.253-38.678c19.517,17.663,17.255,38.678,17.255,38.678a51.965,51.965,0,0,0,4.526-14.108s10.03,9.235,7.442,20.507a33.27,33.27,0,0,1-2.045,6.076,38.129,38.129,0,0,1,6.425-1.917c11.968-2.436,21.78,7.007,21.78,7.007a60.5,60.5,0,0,0-14.988,4.265s22.323-2.134,41.084,16.242c-18.761,18.373-41.084,16.241-41.084,16.241a60.5,60.5,0,0,0,14.988,4.265s-9.813,9.439-21.78,7a38.441,38.441,0,0,1-6.418-1.911,33.345,33.345,0,0,1,2.046,6.074c2.586,11.269-7.442,20.507-7.442,20.507l0-.037-.04.037A51.906,51.906,0,0,0,164.6-776.2c.138,1.614,1.451,21.618-17.266,38.558Zm0-30.038c.464-.192,17.014-7.234,12.182-23.807-.166.081-.339.156-.511.231-.114.052-.224.109-.343.156-.356.156-.713.309-1.077.452-.21.08-.427.145-.637.22s-.408.146-.613.213c-.282.092-.555.2-.839.286.622,3.924.993,13.3-8.142,18.5l-.021-.014-.023.014c-9.13-5.205-8.759-14.578-8.139-18.5-.285-.084-.553-.192-.83-.285-.217-.07-.436-.146-.653-.224-.569-.206-1.135-.421-1.69-.664-.114-.047-.229-.1-.343-.156-.17-.075-.34-.149-.506-.228C130.3-774.93,146.846-767.889,147.313-767.7Zm-7.995-64.554a19.419,19.419,0,0,0-12.582,17.866,18.384,18.384,0,0,0,2.07,8.426,19.318,19.318,0,0,0,1.044,1.787,19.925,19.925,0,0,0,2.919,3.5,20.777,20.777,0,0,0,4.107,2.972q.6.335,1.226.63A21.492,21.492,0,0,0,147.31-795c11.362-.011,20.573-8.685,20.573-19.387s-9.211-19.378-20.573-19.389A21.648,21.648,0,0,0,139.318-832.25ZM97.73-814.384s7.435,16.083,25.27,11.5l-.016-.035c-.18-.338-.359-.675-.521-1.019-.175-.37-.337-.74-.491-1.114-.151-.355-.289-.713-.42-1.073-.07-.2-.161-.387-.229-.586-4.187.579-14.093.9-19.6-7.669,5.511-8.569,15.418-8.25,19.608-7.667A24.054,24.054,0,0,1,123-825.883a24.85,24.85,0,0,0-6.2-.823C103.424-826.707,97.73-814.384,97.73-814.384Zm75.383,8.127c-.158.448-.329.888-.515,1.326-.126.3-.254.6-.392.895-.186.388-.384.771-.585,1.148a24.842,24.842,0,0,0,6.2.823c13.376,0,19.071-12.319,19.071-12.319s-7.435-16.086-25.27-11.5l.016.036c.182.338.359.671.522,1.019.178.37.336.74.494,1.113q.22.53.415,1.073c.072.2.163.388.23.59,4.19-.583,14.092-.9,19.6,7.667-5.511,8.568-15.413,8.247-19.6,7.669C173.24-806.562,173.168-806.413,173.114-806.257ZM155.468-838.83c.285.087.555.195.83.289.219.07.436.145.653.224.571.2,1.135.422,1.69.664.119.047.229.1.343.155.183.083.365.161.547.246,4.91-16.821-12.2-23.829-12.2-23.829s-17.1,7-12.205,23.814c.166-.082.34-.157.511-.231.114-.053.229-.108.343-.155.555-.242,1.121-.46,1.69-.664.217-.079.436-.153.653-.224.289-.1.569-.213.867-.3-.622-3.928-.986-13.284,8.142-18.489C156.461-852.122,156.088-842.75,155.468-838.83Zm187.457,33.523h-.043a7.793,7.793,0,0,1-8.014-7.543,7.792,7.792,0,0,1,8.014-7.546h.045a8.08,8.08,0,0,1,.821.041,8.1,8.1,0,0,1,1.564.3c.251.073.5.155.733.25a8,8,0,0,1,1.1.551c.139.081.279.164.415.254a8.359,8.359,0,0,1,1.031.812,8.182,8.182,0,0,1,.863.971c.094.128.185.255.271.391a7.175,7.175,0,0,1,1.213,3.974,7.257,7.257,0,0,1-1.831,4.8c-.163.185-.336.366-.516.536a8.109,8.109,0,0,1-2.55,1.616,6.63,6.63,0,0,1-.733.253,8.446,8.446,0,0,1-1.564.3c-.271.025-.543.041-.821.041Zm-195.6-1.534h-.041a7.792,7.792,0,0,1-8.014-7.544,7.791,7.791,0,0,1,8.014-7.544h.045c.279,0,.55.014.822.04a8.181,8.181,0,0,1,1.562.3c.252.073.5.155.735.25a8.189,8.189,0,0,1,1.1.551c.139.082.279.164.414.253a8.763,8.763,0,0,1,1.033.812,8.322,8.322,0,0,1,.863.972c.094.129.185.255.271.391a7.169,7.169,0,0,1,1.212,3.973,7.263,7.263,0,0,1-1.829,4.8c-.163.185-.336.365-.516.536a8.146,8.146,0,0,1-2.55,1.616,6.811,6.811,0,0,1-.735.253,8.4,8.4,0,0,1-1.562.3c-.271.025-.543.041-.822.041Zm97.784-22.885-.023.019c-18.714-16.94-17.4-36.945-17.262-38.559a51.847,51.847,0,0,0-4.474,13.992l-.04-.037,0,.037s-10.03-9.237-7.442-20.506a33.272,33.272,0,0,1,2.045-6.077,37.971,37.971,0,0,1-6.425,1.914c-11.968,2.436-21.78-7-21.78-7a60.484,60.484,0,0,0,14.987-4.265s-22.321,2.134-41.083-16.241c18.761-18.374,41.083-16.242,41.083-16.242a60.557,60.557,0,0,0-14.987-4.265s9.813-9.443,21.78-7.006a38.182,38.182,0,0,1,6.472,1.934,33.433,33.433,0,0,1-2.057-6.094c-2.588-11.271,7.442-20.507,7.442-20.507a51.911,51.911,0,0,0,4.53,14.11s-2.267-21.015,17.255-38.679c19.517,17.664,17.255,38.679,17.255,38.679a51.982,51.982,0,0,0,4.526-14.11s10.03,9.236,7.442,20.507a33.224,33.224,0,0,1-2.045,6.076,38.157,38.157,0,0,1,6.424-1.916c11.969-2.437,21.78,7.006,21.78,7.006a60.574,60.574,0,0,0-14.987,4.265s22.323-2.132,41.084,16.242c-18.761,18.374-41.084,16.241-41.084,16.241a60.5,60.5,0,0,0,14.987,4.265s-9.811,9.441-21.78,7a38.419,38.419,0,0,1-6.416-1.91,33.186,33.186,0,0,1,2.045,6.072c2.588,11.269-7.442,20.506-7.442,20.506l0-.037-.038.037a51.884,51.884,0,0,0-4.476-13.992c.139,1.614,1.452,21.62-17.265,38.559Zm0-30.038c.464-.192,17.012-7.232,12.182-23.807-.166.082-.34.156-.51.232-.114.051-.226.108-.345.156-.355.155-.711.308-1.075.452-.21.08-.427.145-.637.218s-.408.146-.613.213c-.282.093-.554.2-.839.286.62,3.923.993,13.3-8.142,18.5l-.02-.014-.023.014c-9.132-5.2-8.759-14.578-8.139-18.5-.285-.086-.553-.192-.83-.286-.219-.07-.436-.146-.653-.222-.571-.207-1.135-.423-1.69-.664-.114-.048-.229-.105-.345-.156-.17-.076-.34-.15-.506-.229C228.1-867,244.645-859.956,245.111-859.764Zm-8-64.554a19.419,19.419,0,0,0-12.581,17.866,18.4,18.4,0,0,0,2.068,8.426,19.049,19.049,0,0,0,1.046,1.789,19.9,19.9,0,0,0,2.919,3.5,20.825,20.825,0,0,0,4.106,2.973q.6.334,1.226.628a21.521,21.521,0,0,0,9.207,2.076c11.363-.011,20.574-8.687,20.574-19.388s-9.211-19.377-20.574-19.388A21.62,21.62,0,0,0,237.115-924.318Zm-41.586,17.866s7.435,16.083,25.27,11.5l-.016-.034c-.182-.338-.359-.675-.522-1.021-.173-.37-.336-.74-.49-1.115-.151-.353-.289-.711-.42-1.072-.072-.2-.163-.388-.23-.586-4.185.577-14.092.9-19.6-7.67,5.511-8.569,15.418-8.25,19.608-7.667a24.05,24.05,0,0,1,1.674-3.83,24.833,24.833,0,0,0-6.2-.823C201.223-918.773,195.529-906.452,195.529-906.452Zm75.382,8.127c-.158.448-.329.888-.513,1.326-.128.3-.254.6-.392.9-.186.387-.384.769-.587,1.148a24.818,24.818,0,0,0,6.194.822c13.379,0,19.072-12.319,19.072-12.319s-7.433-16.086-25.269-11.5l.015.035c.183.338.361.673.522,1.019.179.37.337.74.5,1.113.145.355.285.713.415,1.074.07.2.161.387.229.588,4.19-.583,14.093-.9,19.6,7.667-5.511,8.569-15.415,8.247-19.6,7.67C271.037-898.63,270.967-898.48,270.911-898.325ZM253.266-930.9c.285.087.553.2.83.289.217.07.436.145.653.224.569.2,1.135.424,1.689.664.119.047.23.1.345.156.182.081.364.16.546.246,4.91-16.822-12.2-23.831-12.2-23.831s-17.1,7.006-12.207,23.814c.167-.081.34-.157.511-.229.116-.054.23-.109.345-.156.554-.24,1.119-.46,1.69-.664.217-.079.434-.153.653-.224.289-.1.569-.213.865-.3-.62-3.926-.984-13.284,8.143-18.488C254.258-944.19,253.887-934.818,253.266-930.9ZM50.777-861.905c3.869-2.03,14.993-9.227,10.92-23.2-.166.082-.34.156-.511.232-.114.051-.226.108-.345.155-.356.156-.711.309-1.077.453-.208.08-.427.144-.635.218s-.408.146-.615.213c-.28.093-.553.2-.838.286.591,3.736.957,12.418-6.9,17.733v-22.819c10.773-.626,19.307-9.05,19.307-19.351s-8.533-18.726-19.307-19.351v-22.818c7.849,5.316,7.484,13.99,6.892,17.723.286.087.555.2.832.289.217.07.434.145.653.224.569.2,1.135.422,1.688.664.119.047.23.1.345.156.182.081.364.16.546.244,4.091-14.015-7.106-21.218-10.955-23.231v-29.489c18.172,17.41,16.008,37.518,16.008,37.518a51.919,51.919,0,0,0,4.526-14.11s10.03,9.236,7.442,20.507a33.236,33.236,0,0,1-2.045,6.076,38.121,38.121,0,0,1,6.425-1.915c11.969-2.437,21.78,7.006,21.78,7.006a60.5,60.5,0,0,0-14.987,4.265s22.321-2.132,41.083,16.242c-18.761,18.374-41.083,16.241-41.083,16.241a60.5,60.5,0,0,0,14.987,4.265s-9.811,9.441-21.78,7a38.545,38.545,0,0,1-6.417-1.91,33.191,33.191,0,0,1,2.045,6.072c2.588,11.269-7.442,20.507-7.442,20.507l0-.037-.04.037A51.845,51.845,0,0,0,66.8-869.8c.135,1.578,1.395,20.722-16.024,37.4Zm24.538-37.954c-.158.447-.329.888-.515,1.326-.126.3-.252.6-.392.9-.185.387-.383.769-.585,1.148a24.811,24.811,0,0,0,6.194.822c13.379,0,19.072-12.319,19.072-12.319s-7.433-16.086-25.27-11.5l.016.034c.182.338.361.671.522,1.019.179.37.336.74.494,1.113.147.355.285.711.415,1.074.072.2.163.387.23.588,4.19-.583,14.093-.9,19.6,7.667-5.511,8.568-15.415,8.247-19.6,7.67C75.441-900.164,75.371-900.015,75.315-899.859Zm169.811.95h-.041a7.793,7.793,0,0,1-8.016-7.543A7.793,7.793,0,0,1,245.085-914h.046a8.054,8.054,0,0,1,.82.041,8.207,8.207,0,0,1,1.564.3c.252.073.5.156.734.25a8.265,8.265,0,0,1,1.1.551c.139.081.279.166.414.254a8.353,8.353,0,0,1,1.031.812,8.154,8.154,0,0,1,.863.971c.1.128.185.257.271.391a7.175,7.175,0,0,1,1.213,3.975,7.257,7.257,0,0,1-1.831,4.8,7.333,7.333,0,0,1-.516.537,8.11,8.11,0,0,1-2.55,1.614,6.452,6.452,0,0,1-.734.254,8.553,8.553,0,0,1-1.564.3c-.271.023-.541.04-.82.04ZM50.777-915.44a7.935,7.935,0,0,1,1.141.25q.376.11.733.25a8.02,8.02,0,0,1,1.1.551c.139.082.279.166.415.254a8.373,8.373,0,0,1,1.031.812,8.181,8.181,0,0,1,.863.971c.094.128.185.255.271.391a7.176,7.176,0,0,1,1.213,3.975,7.257,7.257,0,0,1-1.831,4.8c-.163.186-.336.366-.516.536a8.118,8.118,0,0,1-2.55,1.616,6.309,6.309,0,0,1-.733.253,8.207,8.207,0,0,1-1.141.25Zm96.536-7.888-.023.019c-18.714-16.94-17.4-36.943-17.262-38.559a51.844,51.844,0,0,0-4.474,13.992l-.04-.037,0,.037s-10.03-9.236-7.442-20.507a33.257,33.257,0,0,1,2.045-6.075,38.145,38.145,0,0,1-6.424,1.914c-11.969,2.435-21.782-7.006-21.782-7.006a60.5,60.5,0,0,0,14.988-4.265s-22.323,2.134-41.084-16.239c18.761-18.376,41.084-16.243,41.084-16.243a60.53,60.53,0,0,0-14.988-4.263s9.813-9.443,21.782-7.007a38.206,38.206,0,0,1,6.472,1.933,33.313,33.313,0,0,1-2.058-6.094c-2.588-11.27,7.442-20.505,7.442-20.505a51.868,51.868,0,0,0,4.531,14.108s-2.268-21.015,17.253-38.678c19.517,17.663,17.255,38.678,17.255,38.678a51.967,51.967,0,0,0,4.526-14.108s10.03,9.235,7.442,20.505a33.237,33.237,0,0,1-2.045,6.077,38.109,38.109,0,0,1,6.425-1.916c11.968-2.436,21.78,7.007,21.78,7.007a60.529,60.529,0,0,0-14.988,4.263s22.323-2.132,41.084,16.243c-18.761,18.373-41.084,16.239-41.084,16.239a60.5,60.5,0,0,0,14.988,4.265s-9.813,9.44-21.78,7.006a38.429,38.429,0,0,1-6.418-1.911,33.334,33.334,0,0,1,2.046,6.072c2.586,11.271-7.442,20.507-7.442,20.507l0-.037-.04.037a51.908,51.908,0,0,0-4.474-13.992c.138,1.616,1.451,21.62-17.266,38.559Zm0-30.037c.464-.193,17.014-7.234,12.182-23.809-.166.083-.339.156-.511.232-.114.052-.224.109-.343.156-.356.156-.713.308-1.077.452-.21.08-.427.145-.637.218s-.408.146-.613.213c-.282.093-.555.2-.839.287.622,3.922.993,13.3-8.142,18.5l-.021-.015-.023.015c-9.13-5.207-8.759-14.579-8.139-18.5-.285-.086-.553-.192-.83-.284-.217-.072-.436-.146-.653-.224-.569-.207-1.135-.423-1.69-.664-.114-.047-.229-.1-.343-.156-.17-.076-.34-.149-.506-.228C130.3-960.6,146.846-953.558,147.313-953.365Zm-7.995-64.555a19.422,19.422,0,0,0-12.582,17.868,18.378,18.378,0,0,0,2.07,8.424,19.183,19.183,0,0,0,1.044,1.788,20.028,20.028,0,0,0,2.919,3.5,20.771,20.771,0,0,0,4.107,2.972c.4.224.807.432,1.226.63a21.512,21.512,0,0,0,9.207,2.074c11.362-.011,20.573-8.686,20.573-19.386s-9.211-19.378-20.573-19.389A21.618,21.618,0,0,0,139.318-1017.92ZM97.73-1000.053s7.435,16.082,25.27,11.5l-.016-.034c-.18-.338-.359-.675-.521-1.021-.175-.37-.337-.74-.491-1.114-.151-.354-.289-.711-.42-1.072-.07-.2-.161-.387-.229-.585-4.187.577-14.093.9-19.6-7.669,5.511-8.571,15.418-8.252,19.608-7.669a24.1,24.1,0,0,1,1.674-3.83,24.833,24.833,0,0,0-6.2-.824C103.425-1012.375,97.73-1000.053,97.73-1000.053Zm75.383,8.127c-.158.446-.329.888-.515,1.324-.126.3-.254.6-.392.9-.186.387-.384.769-.585,1.148a24.817,24.817,0,0,0,6.194.822c13.377,0,19.072-12.317,19.072-12.317s-7.435-16.087-25.27-11.5l.016.034c.182.339.359.673.522,1.021.178.37.336.739.494,1.113q.22.53.415,1.073c.072.2.163.387.23.588,4.19-.583,14.092-.9,19.6,7.669-5.511,8.568-15.413,8.246-19.6,7.669C173.24-992.232,173.168-992.081,173.114-991.926ZM155.468-1024.5c.285.086.555.195.83.287.219.072.436.145.653.224.571.2,1.135.424,1.69.664.119.047.229.1.343.156.183.082.365.16.547.246,4.91-16.822-12.2-23.829-12.2-23.829s-17.1,7-12.205,23.813c.166-.081.34-.157.511-.229.114-.054.229-.109.343-.156.555-.24,1.121-.46,1.69-.664.217-.079.436-.152.653-.224.289-.1.569-.213.867-.3-.622-3.928-.986-13.285,8.142-18.489C156.461-1037.79,156.088-1028.42,155.468-1024.5Zm-8.14,31.987h-.041a7.792,7.792,0,0,1-8.014-7.543,7.79,7.79,0,0,1,8.014-7.544h.045a8.066,8.066,0,0,1,.822.04,8.28,8.28,0,0,1,1.562.3q.378.11.735.25a8.211,8.211,0,0,1,1.1.552c.139.08.279.164.414.253a8.466,8.466,0,0,1,1.033.812,8.415,8.415,0,0,1,.863.971c.094.128.185.257.271.391a7.174,7.174,0,0,1,1.212,3.975,7.263,7.263,0,0,1-1.829,4.8c-.163.186-.336.366-.516.537a8.141,8.141,0,0,1-2.55,1.614,6.549,6.549,0,0,1-.735.254,8.523,8.523,0,0,1-1.562.3c-.271.023-.543.04-.822.04Zm-96.55-55.063c3.869-2.03,14.993-9.228,10.92-23.2-.166.081-.34.155-.511.231-.114.052-.226.109-.345.156-.356.156-.711.308-1.077.452-.208.08-.427.145-.635.219s-.408.146-.615.211c-.28.094-.553.206-.838.287.591,3.735.957,12.416-6.9,17.732v-22.82c10.773-.626,19.307-9.048,19.307-19.349s-8.533-18.726-19.307-19.352v-22.818c7.849,5.317,7.484,13.99,6.892,17.724.286.087.555.195.832.287.217.072.434.145.653.224.569.2,1.135.424,1.688.664.119.049.23.1.345.156.182.081.364.16.546.246,4.091-14.016-7.106-21.219-10.955-23.231v-29.489c18.172,17.409,16.008,37.517,16.008,37.517a51.9,51.9,0,0,0,4.526-14.109s10.03,9.235,7.442,20.507a33.271,33.271,0,0,1-2.045,6.076,37.994,37.994,0,0,1,6.425-1.917c11.969-2.436,21.78,7.007,21.78,7.007a60.5,60.5,0,0,0-14.987,4.265s22.321-2.134,41.083,16.242c-18.761,18.373-41.083,16.241-41.083,16.241a60.57,60.57,0,0,0,14.987,4.265s-9.811,9.439-21.78,7a38.381,38.381,0,0,1-6.417-1.911,33.206,33.206,0,0,1,2.045,6.074c2.588,11.269-7.442,20.507-7.442,20.507l0-.039-.04.039A51.846,51.846,0,0,0,66.8-1055.47c.135,1.579,1.395,20.722-16.024,37.4Zm24.538-37.954c-.158.448-.329.888-.515,1.326-.126.3-.252.6-.392.9-.185.388-.383.771-.585,1.147a24.823,24.823,0,0,0,6.194.822c13.379,0,19.072-12.317,19.072-12.317s-7.433-16.086-25.27-11.5l.016.035c.182.338.361.672.522,1.021.179.37.336.74.494,1.113q.22.53.415,1.073c.072.2.163.388.23.588,4.19-.581,14.093-.9,19.6,7.669-5.511,8.568-15.415,8.246-19.6,7.669C75.441-1085.833,75.371-1085.684,75.315-1085.528Zm-24.538-15.581a8.119,8.119,0,0,1,1.141.249c.251.073.5.156.733.25a8.005,8.005,0,0,1,1.1.552c.139.08.279.164.415.253a8.379,8.379,0,0,1,1.031.812,8.288,8.288,0,0,1,.863.971c.094.13.185.257.271.392a7.167,7.167,0,0,1,1.213,3.973,7.258,7.258,0,0,1-1.831,4.8c-.163.185-.336.365-.516.536a8.117,8.117,0,0,1-2.55,1.616,6.9,6.9,0,0,1-.733.253,8.329,8.329,0,0,1-1.141.249Z" transform="translate(620.715 -88.551) rotate(180)" stroke="rgba(0,0,0,0)" stroke-miterlimit="10" stroke-width="1" fill="url(#linear-gradient)"/>
</svg>
